<svg width="185" height="40" viewBox="0 0 185 40" fill="none" xmlns="http://www.w3.org/2000/svg">
    <path
        d="M0.13422 23.064C0.13422 22.4321 0.505199 21.8827 1.71405 22.0611C1.65904 22.2804 1.67314 22.5555 1.71405 22.7889C1.83747 23.5168 2.41439 24.3272 3.69165 24.3272C4.50202 24.3272 5.17486 23.8878 5.17486 22.9399C5.17486 21.992 4.54293 21.5392 3.30657 20.8381C1.54831 19.8352 0.476989 19.0799 0.476989 17.4733C0.476989 15.7016 2.0018 15.0146 3.75936 15.0146C5.51692 15.0146 6.71237 15.5366 6.71237 16.6079C6.71237 17.0614 6.47892 17.4733 5.72356 17.4867C5.57263 17.5001 5.36669 17.4867 5.20166 17.4591C5.21506 17.1707 5.17415 16.8822 5.07823 16.6347C4.9273 16.1128 4.47381 15.6593 3.54002 15.6593C2.97721 15.6593 2.24865 15.9068 2.24865 16.799C2.24865 17.6369 2.68804 18.1313 4.36379 19.0651C5.64105 19.7654 7.02833 20.6033 7.02833 22.2656C7.02833 23.7629 5.84699 24.9993 3.41589 24.9993C1.17733 24.9993 0.132812 24.1614 0.132812 23.0626L0.13422 23.064Z"
        fill="#D9B88B" />
    <path
        d="M16.2337 24.5733C16.0686 24.7242 15.6708 24.9993 15.1348 24.9993C14.5029 24.9993 14.036 24.6283 14.036 24.0239V20.3014H10.5336V22.7875C10.5336 23.3094 10.5611 23.9689 10.8086 24.5733C10.6436 24.7242 10.2458 24.9993 9.70982 24.9993C9.07789 24.9993 8.611 24.6283 8.611 24.0239V17.225C8.611 16.7031 8.57009 16.0578 8.33594 15.4392C8.50097 15.2883 8.89875 15.0273 9.43476 15.0273C10.0526 15.0273 10.5336 15.3842 10.5336 15.9886V19.2851H14.036V17.225C14.036 16.7031 13.9951 16.0578 13.7609 15.4392C13.926 15.2883 14.3238 15.0273 14.8598 15.0273C15.4776 15.0273 15.9586 15.3842 15.9586 15.9886V22.7875C15.9586 23.3094 15.9861 23.9689 16.2337 24.5733Z"
        fill="#D9B88B" />
    <path
        d="M25.6767 24.5601C25.5117 24.7526 25.1823 24.9861 24.5504 24.9861C23.96 24.9861 23.5065 24.7385 23.3965 24.2441L22.8062 22.0055H19.8123L19.3863 23.6947C19.3313 23.9147 19.2904 24.1207 19.2904 24.3266C19.2904 24.5467 19.3454 24.6842 19.4413 24.7801C19.1662 24.8901 18.8785 24.9861 18.3975 24.9861C17.6555 24.9861 17.3262 24.7526 17.3262 24.1891C17.3262 23.9556 17.3946 23.5988 17.5187 23.2137L20.1833 15.261C20.7327 15.0825 21.268 15 21.804 15C22.2575 15 22.6969 15.1234 22.8344 15.6178L25.2246 23.6665C25.293 23.8999 25.4446 24.3118 25.6781 24.5594L25.6767 24.5601ZM22.5452 20.9892L21.2814 16.127L20.0591 20.9892H22.5452Z"
        fill="#D9B88B" />
    <path
        d="M33.4386 22.0599C33.4386 23.8865 31.9963 24.7928 29.5102 24.7928H27.9579C27.3259 24.7928 26.859 24.4359 26.859 23.8174V17.2245C26.859 16.7851 26.8181 16.0572 26.584 15.4387C27.1609 15.1636 27.9847 15.0127 29.166 15.0127C31.5421 15.0127 32.971 15.658 32.971 17.3204C32.971 18.4467 32.3116 19.3255 31.2127 19.6139C32.5175 19.7924 33.4379 20.6302 33.4379 22.0591L33.4386 22.0599ZM28.7823 15.6728V19.3678H29.4143C30.5131 19.3953 30.9391 18.599 30.9391 17.4861C30.9391 16.3732 30.5131 15.6728 29.1949 15.6728H28.783H28.7823ZM31.351 22.1008C31.351 20.4384 30.5406 20.0265 29.4559 20.0265H28.783V24.1334H29.4284C30.8432 24.1334 31.351 23.2405 31.351 22.1008Z"
        fill="#D9B88B" />
    <path
        d="M34.8679 24.7526C35.1013 24.1348 35.143 23.2969 35.143 22.7884V17.2117C35.143 16.3873 35.1154 15.8245 35.047 15.2616C35.253 15.0148 36.2009 14.9598 36.3652 15.1241C38.0275 17.4727 40.9255 20.8926 41.5434 22.3349L41.049 16.2913C40.9806 15.5769 41.2965 15.0825 41.9552 15.0416C42.2162 15.0282 42.5181 15.0966 42.7381 15.2475C42.5322 15.8245 42.5181 16.6073 42.5181 17.0467L42.5047 22.8293C42.5047 23.6538 42.5181 24.1891 42.6006 24.7526C42.408 24.9726 41.6252 25.0686 41.3092 24.9035C38.0677 21.126 36.8589 19.286 36.1861 17.9671L36.5979 23.9006C36.653 24.56 36.1169 24.9994 35.65 24.9994C35.375 24.9994 35.0872 24.9035 34.8672 24.7519L34.8679 24.7526Z"
        fill="#D9B88B" />
    <path
        d="M52.2418 24.5601C52.0768 24.7526 51.7474 24.9861 51.1155 24.9861C50.5252 24.9861 50.0717 24.7385 49.9617 24.2441L49.3707 22.0055H46.3767L45.9508 23.6947C45.8957 23.9147 45.8548 24.1207 45.8548 24.3266C45.8548 24.5467 45.9098 24.6842 46.0058 24.7801C45.7307 24.8901 45.443 24.9861 44.9619 24.9861C44.22 24.9861 43.8906 24.7526 43.8906 24.1891C43.8906 23.9556 43.959 23.5988 44.0832 23.2137L46.7477 15.261C47.2971 15.0825 47.8324 15 48.3684 15C48.8219 15 49.2613 15.1234 49.3989 15.6178L51.7891 23.6665C51.8575 23.8999 52.0091 24.3118 52.2425 24.5594L52.2418 24.5601ZM49.1104 20.9892L47.8465 16.127L46.6243 20.9892H49.1104Z"
        fill="#D9B88B" />
    <path
        d="M63.107 24.574C62.942 24.7249 62.5442 25 62.0082 25C61.4178 25 60.9777 24.629 60.9777 24.0246L60.9644 17.3491L58.6983 23.722C57.9979 23.9555 57.476 23.9971 56.94 23.7912C56.0888 21.9779 55.1268 19.5193 54.413 17.2941L54.4264 22.8016C54.4264 23.3101 54.4673 24.148 54.7015 24.7658C54.5364 24.9168 54.2755 24.9993 54.0286 24.9993C53.5617 24.9993 53.3967 24.6974 53.3967 24.2439V17.1841C53.3967 16.3596 53.3833 15.8243 53.3008 15.2608C53.4658 15.1099 53.8777 15.0273 54.6331 15.0273C55.1141 15.0273 55.4025 15.1374 55.636 15.3708C56.4738 17.6644 57.2983 19.958 58.1087 22.1147C58.8231 20.0405 59.8528 17.0741 60.4163 15.2058C60.8832 15.0407 61.3776 15.0273 61.6386 15.0273C62.2155 15.0273 62.7649 15.2199 62.8333 15.4117V22.7875C62.8333 23.3094 62.8743 23.9689 63.1084 24.5733L63.107 24.574Z"
        fill="#D9B88B" />
    <path
        d="M95.423 15.8057H95.4127V25.4903C95.4127 29.6508 92.0398 33.0236 87.8794 33.0236H86.8047V23.5769C86.8047 19.2846 90.2842 15.8057 94.576 15.8057H95.4127"
        fill="#D9B88B" />
    <path
        d="M101.959 15.5172V15.4894C101.958 15.4519 101.958 15.415 101.956 15.3775C101.956 15.3594 101.956 15.34 101.956 15.3219C101.868 11.2604 100.185 7.58881 97.5095 4.91368C94.7606 2.16354 90.961 0.462891 86.7656 0.462891C78.3729 0.463537 71.5703 7.26614 71.5703 15.6582V39.5358H84.5942V15.6582C84.5942 10.8627 88.4818 6.97516 93.2772 6.97516C95.6756 6.97516 97.8463 7.94705 99.417 9.51838C100.939 11.0399 101.899 13.1247 101.958 15.4338C101.96 15.5082 101.96 15.5832 101.96 15.6575C101.96 15.6103 101.96 15.5638 101.96 15.5166L101.959 15.5172Z"
        fill="#753418" />
    <path
        d="M85.0599 39.9989H71.1094V15.6583C71.1094 11.4758 72.7383 7.54365 75.6953 4.58659C78.6524 1.62952 82.5846 0 86.767 0C90.9495 0 94.8823 1.62887 97.8387 4.58659C100.705 7.45183 102.332 11.2592 102.421 15.3078C102.421 15.3272 102.422 15.3479 102.422 15.3673C102.423 15.3932 102.423 15.419 102.424 15.4449V15.5134C102.425 15.5619 102.425 15.6098 102.425 15.6583H101.499C101.499 15.5871 101.499 15.516 101.497 15.4455C101.442 13.331 100.589 11.3426 99.0919 9.84632C97.54 8.29375 95.4759 7.4389 93.2799 7.4389C88.7477 7.4389 85.0605 11.126 85.0605 15.6583V39.9989H85.0599ZM72.0354 39.073H84.1333V15.6583C84.1333 10.6152 88.2362 6.51227 93.2793 6.51227C95.7229 6.51227 98.0198 7.46347 99.7463 9.19128C99.9319 9.37686 100.108 9.56827 100.275 9.76678C99.5471 8.09717 98.5054 6.56335 97.183 5.24163C94.4012 2.45915 90.7018 0.926629 86.7664 0.926629C78.6433 0.926629 72.0347 7.53524 72.0347 15.6583V39.073H72.0354Z"
        fill="#D9B88B" />
    <path
        d="M85.0628 39.9991H75.4531V15.6584C75.4531 8.22147 81.5037 2.1709 88.9406 2.1709C92.5437 2.1709 95.9301 3.5741 98.4772 6.12184C100.933 8.57712 102.334 11.8387 102.424 15.3067C102.424 15.3299 102.425 15.3545 102.425 15.3778V15.3959C102.425 15.4049 102.426 15.4133 102.426 15.4218C102.427 15.4444 102.428 15.4677 102.428 15.4896V15.5136C102.428 15.5621 102.428 15.6099 102.428 15.6584H101.502C101.502 15.5879 101.502 15.5168 101.5 15.4463C101.445 13.3312 100.592 11.3428 99.0948 9.84646C97.5428 8.29389 95.4788 7.43904 93.2828 7.43904C88.7505 7.43904 85.0634 11.1262 85.0634 15.6584V39.9991H85.0628ZM76.3798 39.0731H84.1361V15.6584C84.1361 10.6153 88.239 6.51241 93.2822 6.51241C95.6831 6.51241 97.9418 7.43063 99.658 9.10089C99.1452 8.26544 98.5309 7.48495 97.8222 6.77688C95.4503 4.40373 92.296 3.09753 88.9406 3.09753C82.0145 3.09753 76.3798 8.73231 76.3798 15.6584V39.0731Z"
        fill="#D9B88B" />
    <path
        d="M85.0566 39.9992H79.7891V15.6586C79.7891 9.41853 84.8658 4.3418 91.1058 4.3418C94.1289 4.3418 96.9708 5.51867 99.108 7.65645C101.169 9.71792 102.345 12.4558 102.419 15.3663V15.396C102.419 15.4064 102.419 15.4161 102.42 15.4258C102.421 15.4549 102.422 15.484 102.422 15.5137C102.423 15.5622 102.423 15.6101 102.423 15.6586H101.497C101.497 15.5874 101.496 15.517 101.494 15.4458C101.44 13.3307 100.586 11.3423 99.0892 9.8466C97.5373 8.29403 95.4732 7.43918 93.2772 7.43918C88.745 7.43918 85.0578 11.1263 85.0578 15.6586V39.9992H85.0566ZM80.715 39.0732H84.1299V15.6586C84.1299 10.6155 88.2328 6.51255 93.2759 6.51255C94.8796 6.51255 96.4199 6.92252 97.7772 7.69202C95.9097 6.12263 93.5734 5.26778 91.1052 5.26778C85.376 5.26778 80.715 9.92873 80.715 15.6579V39.0726V39.0732Z"
        fill="#D9B88B" />
    <path d="M90.7495 39.3516V39.5365H89.2422C89.7621 39.5365 90.2671 39.4725 90.7495 39.3516Z"
        fill="#D9B88B" />
    <path
        d="M101.96 15.6572V30.5512C101.96 35.5128 97.9377 39.5355 92.9754 39.5355H89.2411C89.761 39.5355 90.266 39.4715 90.7484 39.3506C93.4333 38.6775 95.4204 36.2493 95.4204 33.3563V15.8047H94.3599C90.1852 15.8047 86.8014 19.1892 86.8014 23.3632V25.6678C86.7943 25.8508 86.791 26.0357 86.791 26.2226V39.5349H84.5938V15.76C84.5938 10.9478 88.5311 6.93864 93.3434 6.97485C95.7152 6.99296 97.8601 7.96097 99.4166 9.51807C100.939 11.0396 101.898 13.1244 101.957 15.4335C101.959 15.5079 101.96 15.5829 101.96 15.6572Z"
        fill="#753418" />
    <path
        d="M92.9768 39.999H89.2425C88.9865 39.999 88.7795 39.7914 88.7795 39.536C88.7795 39.2806 88.9871 39.073 89.2425 39.073C89.7139 39.073 90.1834 39.0155 90.6373 38.9017C93.1818 38.2641 94.9588 35.9834 94.9588 33.3561V16.2694H94.3619C90.4498 16.2694 87.2664 19.4522 87.2664 23.365V25.6696C87.2664 25.6754 87.2664 25.6812 87.2664 25.687C87.2599 25.8636 87.2561 26.044 87.2561 26.2244V39.5367C87.2561 39.7927 87.0485 39.9997 86.7931 39.9997H84.5958C84.3397 39.9997 84.1328 39.7921 84.1328 39.5367V15.7612C84.1328 13.2761 85.1118 10.936 86.8901 9.17131C88.636 7.43897 90.929 6.49359 93.3487 6.51299C95.7658 6.53109 98.0374 7.48229 99.7458 9.19135C101.411 10.8558 102.361 13.0686 102.422 15.4223C102.424 15.5019 102.424 15.5801 102.424 15.6584V30.5523C102.424 35.7616 98.1861 39.9997 92.9768 39.9997V39.999ZM92.6341 39.073H92.9768C97.6753 39.073 101.498 35.2508 101.498 30.5523V15.6584C101.498 15.5872 101.497 15.5161 101.495 15.445C101.441 13.3311 100.587 11.3421 99.0901 9.84639C97.555 8.30999 95.513 7.45514 93.3409 7.43897C93.3202 7.43897 93.3002 7.43897 93.2795 7.43897C91.1313 7.43897 89.0957 8.28606 87.5419 9.82893C85.9402 11.4184 85.0581 13.5251 85.0581 15.7612V39.073H86.3294V26.2237C86.3294 26.0349 86.3327 25.8454 86.3398 25.6599V23.3643C86.3398 18.9413 89.9383 15.3428 94.3613 15.3428H95.4218C95.6778 15.3428 95.8848 15.5504 95.8848 15.8058V33.3561C95.8848 35.7526 94.6115 37.9013 92.6335 39.0724L92.6341 39.073Z"
        fill="#D9B88B" />
    <path
        d="M87.6935 29.0255L90.238 27.3294L87.6935 25.6332C87.2454 25.3345 87.0184 25.3345 86.5703 25.6332V29.0255C87.0184 29.3242 87.2454 29.3242 87.6935 29.0255Z"
        fill="#C1272D" />
    <path
        d="M100.416 17.0704L99.2393 18.1089L98.0631 19.1467C97.5936 19.5625 96.8494 19.3123 96.7252 18.698L96.4142 17.1596L96.1187 15.6989C95.9809 15.6517 95.851 15.5695 95.7481 15.4525C95.644 15.3355 95.5781 15.1971 95.5496 15.0542L94.1367 14.5795L92.6495 14.0797C92.0546 13.8799 91.8994 13.1117 92.3701 12.6965L93.5463 11.658L94.7226 10.6196C95.1933 10.2044 95.9363 10.4547 96.0605 11.0696L96.3715 12.6073L96.667 14.0681C96.806 14.114 96.9347 14.1967 97.0388 14.3144C97.1423 14.4328 97.2082 14.5705 97.2367 14.714L98.6496 15.1887L100.137 15.6879C100.732 15.8877 100.887 16.6572 100.416 17.0717L100.416 17.0704Z"
        fill="#C1272D" />
    <path
        d="M110.428 24.6861C110.66 24.0725 110.701 23.2403 110.701 22.7353V17.1968C110.701 16.378 110.674 15.819 110.606 15.2601C110.81 15.0149 111.752 14.9603 111.916 15.1235C113.566 17.456 116.445 20.8525 117.058 22.2849L116.567 16.2827C116.499 15.5732 116.813 15.0821 117.467 15.0415C117.726 15.0282 118.026 15.0961 118.245 15.246C118.04 15.819 118.026 16.5965 118.026 17.0329L118.013 22.7759C118.013 23.5948 118.026 24.1264 118.108 24.6861C117.917 24.9046 117.139 24.9999 116.826 24.836C113.606 21.0843 112.406 19.2569 111.738 17.947L112.147 23.8399C112.201 24.4949 111.669 24.9312 111.205 24.9312C110.932 24.9312 110.646 24.836 110.428 24.6854V24.6861Z"
        fill="#D9B88B" />
    <path
        d="M120.838 23.9633V17.2109C120.838 16.6926 120.797 16.0517 120.564 15.4374C120.728 15.2875 121.123 15.0283 121.656 15.0283C122.269 15.0283 122.747 15.3828 122.747 15.983V22.7354C122.747 23.2538 122.774 23.9087 123.02 24.509C122.856 24.6589 122.461 24.9321 121.929 24.9321C121.301 24.9321 120.838 24.5636 120.838 23.9633Z"
        fill="#D9B88B" />
    <path
        d="M132.677 23.9633C132.677 24.5363 132.213 25 131.463 25C130.289 25 129.866 23.8541 129.539 22.9267L129.171 21.808C128.966 21.2217 128.625 20.4575 127.67 20.4575H127.466V22.7354C127.466 23.2538 127.493 23.9087 127.739 24.509C127.575 24.6589 127.18 24.9321 126.648 24.9321C126.02 24.9321 125.556 24.5636 125.556 23.9633V17.2109C125.556 16.6926 125.516 16.0517 125.283 15.4374C125.447 15.2875 125.842 15.0283 126.375 15.0283C126.988 15.0283 127.453 15.3828 127.453 15.983L127.466 19.762C127.561 19.7487 127.67 19.7074 127.766 19.68C129.293 19.2023 130.003 17.4834 130.003 16.3515C130.003 15.7925 129.853 15.4101 129.758 15.2602C130.031 15.1509 130.235 15.0963 130.535 15.0963C131.108 15.0963 131.845 15.3008 131.845 16.4741C131.845 17.7153 131 19.1477 128.967 19.9392C130.031 20.0485 130.522 20.4709 130.85 21.2077L131.45 22.5988C131.777 23.2944 131.928 23.5129 132.242 23.5403C132.351 23.5536 132.446 23.5269 132.569 23.445C132.637 23.6362 132.678 23.8134 132.678 23.9633H132.677Z"
        fill="#D9B88B" />
    <path
        d="M141.871 23.8817C141.871 24.6046 141.176 24.9184 140.753 24.9184C139.566 24.9184 139.252 24.1409 138.734 22.845L138.352 21.8084C138.079 21.1261 137.82 20.5258 136.906 20.5125L136.483 20.4985V22.845C136.483 23.2954 136.511 23.9497 136.757 24.5093C136.593 24.6592 136.198 24.9324 135.665 24.9324C135.038 24.9324 134.574 24.564 134.574 23.9637V17.2113C134.574 16.7749 134.533 16.052 134.301 15.4377C134.874 15.1645 135.692 15.0146 136.906 15.0146C139.498 15.0146 140.945 15.7102 140.945 17.4838C140.945 18.8342 140.112 19.7756 138.789 20.1168C139.444 20.308 139.799 20.7171 140.099 21.2487L140.658 22.5172C140.931 23.1722 141.163 23.4586 141.436 23.4719C141.531 23.4719 141.654 23.4446 141.763 23.3627C141.845 23.5672 141.872 23.7311 141.872 23.881L141.871 23.8817ZM137.001 19.8576C138.27 19.817 138.857 18.8342 138.857 17.607C138.857 16.5157 138.379 15.6563 137.07 15.6563C136.838 15.6563 136.647 15.6563 136.483 15.6696V19.8436C136.647 19.8569 136.825 19.8709 137.002 19.8569L137.001 19.8576Z"
        fill="#D9B88B" />
    <path
        d="M151.106 24.4947C150.942 24.6859 150.615 24.9177 149.987 24.9177C149.401 24.9177 148.951 24.6719 148.841 24.1809L148.255 21.9576H145.282L144.859 23.6352C144.804 23.8538 144.763 24.0583 144.763 24.2628C144.763 24.4814 144.818 24.6179 144.913 24.7132C144.64 24.8225 144.354 24.9177 143.876 24.9177C143.14 24.9177 142.812 24.6859 142.812 24.1262C142.812 23.8944 142.88 23.5399 143.004 23.1575L145.65 15.2592C146.196 15.082 146.728 15 147.26 15C147.71 15 148.146 15.1226 148.283 15.6136L150.657 23.6072C150.725 23.839 150.875 24.2481 151.107 24.494L151.106 24.4947ZM147.996 20.9483L146.741 16.1193L145.527 20.9483H147.996Z"
        fill="#D9B88B" />
    <path
        d="M158.023 16.8696C157.081 16.4333 155.908 16.1468 154.721 16.1054V19.3114H157.614C157.709 19.6666 157.668 20.0483 157.614 20.3348H154.735V22.7359C154.735 23.2543 154.763 23.9092 155.009 24.5095C154.845 24.6594 154.45 24.9326 153.917 24.9326C153.29 24.9326 152.826 24.5641 152.826 23.9638V17.4573C152.826 16.925 152.785 16.2981 152.553 15.6838C153.03 15.2747 153.426 15.2061 154.285 15.2061H158.227C158.745 15.2061 158.527 16.6385 158.023 16.8703V16.8696Z"
        fill="#D9B88B" />
    <path
        d="M166.454 16.8694C165.882 16.5556 165.063 16.1738 164.272 15.9693L164.285 22.735C164.285 23.2533 164.312 23.9082 164.558 24.5085C164.394 24.6584 163.999 24.9316 163.467 24.9316C162.839 24.9316 162.376 24.5632 162.376 23.9629V15.9826C161.584 16.1738 160.779 16.5556 160.193 16.8694C159.689 16.6375 159.47 15.2051 159.989 15.2051H166.673C167.191 15.2051 166.973 16.6375 166.454 16.8694Z"
        fill="#D9B88B" />
    <path
        d="M175.652 24.4947C175.488 24.6859 175.16 24.9177 174.533 24.9177C173.947 24.9177 173.496 24.6719 173.387 24.1809L172.801 21.9576H169.827L169.403 23.6352C169.349 23.8538 169.308 24.0583 169.308 24.2628C169.308 24.4814 169.363 24.6179 169.458 24.7132C169.185 24.8225 168.899 24.9177 168.421 24.9177C167.685 24.9177 167.357 24.6859 167.357 24.1262C167.357 23.8944 167.425 23.5399 167.549 23.1575L170.195 15.2592C170.741 15.082 171.272 15 171.805 15C172.255 15 172.691 15.1226 172.828 15.6136L175.202 23.6072C175.27 23.839 175.42 24.2481 175.652 24.494L175.652 24.4947ZM172.541 20.9483L171.286 16.1193L170.072 20.9483H172.541Z"
        fill="#D9B88B" />
    <path
        d="M184.664 23.8817C184.664 24.6046 183.969 24.9184 183.546 24.9184C182.359 24.9184 182.045 24.1409 181.527 22.845L181.145 21.8084C180.872 21.1261 180.613 20.5258 179.699 20.5125L179.276 20.4985V22.845C179.276 23.2954 179.304 23.9497 179.55 24.5093C179.386 24.6592 178.991 24.9324 178.458 24.9324C177.831 24.9324 177.367 24.564 177.367 23.9637V17.2113C177.367 16.7749 177.326 16.052 177.094 15.4377C177.667 15.1645 178.485 15.0146 179.699 15.0146C182.291 15.0146 183.738 15.7102 183.738 17.4838C183.738 18.8342 182.905 19.7756 181.582 20.1168C182.237 20.308 182.592 20.7171 182.892 21.2487L183.451 22.5172C183.724 23.1722 183.956 23.4586 184.229 23.4719C184.324 23.4719 184.447 23.4446 184.556 23.3627C184.638 23.5672 184.666 23.7311 184.666 23.881L184.664 23.8817ZM179.794 19.8576C181.063 19.817 181.65 18.8342 181.65 17.607C181.65 16.5157 181.172 15.6563 179.863 15.6563C179.631 15.6563 179.44 15.6563 179.276 15.6696V19.8436C179.44 19.8569 179.617 19.8709 179.795 19.8569L179.794 19.8576Z"
        fill="#D9B88B" />
</svg>