<svg width="178" height="265" viewBox="0 0 178 265" fill="none" xmlns="http://www.w3.org/2000/svg">
    <path
        d="M2.19917 88.5166C2.19917 40.8448 40.8448 2.19917 88.5166 2.19917C136.188 2.19917 174.834 40.8448 174.834 88.5166V260.602C174.834 261.816 173.849 262.801 172.635 262.801H4.39835C3.18378 262.801 2.19917 261.816 2.19917 260.602V88.5166Z"
        fill="#753418" stroke="#D9B88B" stroke-width="4.39834" stroke-linejoin="round" />
    <path
        d="M122.636 88.9609H122.595V127.298C122.595 143.767 109.243 157.119 92.7738 157.119H88.5195V119.724C88.5195 102.732 102.293 88.9609 119.282 88.9609H122.595"
        fill="#D9B88B" />
    <path
        d="M148.505 87.8156V87.7055C148.503 87.557 148.503 87.4111 148.495 87.2627C148.495 87.191 148.495 87.1142 148.492 87.0425C148.144 70.9649 141.484 56.4308 130.892 45.8412C120.01 34.9547 104.969 28.2227 88.3619 28.2227C55.1392 28.2252 28.2109 55.1535 28.2109 88.3736V182.894H79.7663V88.3736C79.7663 69.3907 95.1554 54.0016 114.138 54.0016C123.632 54.0016 132.225 57.8489 138.443 64.069C144.468 70.092 148.267 78.3446 148.5 87.4854C148.508 87.7797 148.51 88.0766 148.51 88.371C148.51 88.1842 148.51 87.9999 148.508 87.813L148.505 87.8156Z"
        fill="#753418" />
    <path
        d="M81.6102 184.727H26.3867V88.3743C26.3867 71.818 32.8347 56.2524 44.5403 44.5467C56.2459 32.8411 71.8116 26.3906 88.3679 26.3906C104.924 26.3906 120.492 32.8386 132.195 44.5467C143.543 55.8889 149.983 70.9605 150.334 86.9869C150.336 87.0637 150.339 87.1456 150.339 87.2224C150.344 87.3248 150.344 87.4272 150.346 87.5296V87.8009C150.352 87.9929 150.352 88.1823 150.352 88.3743H146.686C146.686 88.0927 146.683 87.8112 146.676 87.5322C146.461 79.1619 143.082 71.2907 137.156 65.3675C131.013 59.2216 122.842 55.8377 114.149 55.8377C96.2083 55.8377 81.6127 70.4332 81.6127 88.3743V184.727H81.6102ZM30.0522 181.062H77.9421V88.3743C77.9421 68.411 94.1835 52.1696 114.147 52.1696C123.82 52.1696 132.912 55.9349 139.747 62.7745C140.481 63.5092 141.178 64.2668 141.84 65.0527C138.958 58.4435 134.835 52.3718 129.6 47.1397C118.588 36.1253 103.944 30.0587 88.3653 30.0587C56.2101 30.0587 30.0497 56.2191 30.0497 88.3743V181.062H30.0522Z"
        fill="#D9B88B" />
    <path
        d="M81.6221 184.724H43.582V88.3712C43.582 58.9318 67.5334 34.9805 96.9727 34.9805C111.236 34.9805 124.641 40.5351 134.724 50.6204C144.445 60.3396 149.992 73.2509 150.346 86.9787C150.348 87.0708 150.351 87.1681 150.351 87.2603V87.3319C150.351 87.3678 150.353 87.401 150.353 87.4343C150.358 87.5239 150.361 87.616 150.361 87.7031V87.7978C150.363 87.9898 150.363 88.1792 150.363 88.3712H146.698C146.698 88.0922 146.695 87.8106 146.688 87.5316C146.473 79.1587 143.094 71.2876 137.168 65.3644C131.025 59.2185 122.854 55.8345 114.161 55.8345C96.2202 55.8345 81.6246 70.4301 81.6246 88.3712V184.724H81.6221ZM47.2501 181.059H77.954V88.3712C77.954 68.4079 94.1954 52.1664 114.159 52.1664C123.663 52.1664 132.604 55.8013 139.398 62.413C137.368 59.1059 134.936 56.0163 132.131 53.2134C122.741 43.8192 110.255 38.6486 96.9727 38.6486C69.5555 38.6486 47.2501 60.954 47.2501 88.3712V181.059Z"
        fill="#D9B88B" />
    <path
        d="M81.5976 184.729H60.7461V88.3758C60.7461 63.6745 80.8425 43.5781 105.544 43.5781C117.511 43.5781 128.761 48.2368 137.22 56.6993C145.381 64.8597 150.034 75.6975 150.326 87.2188V87.3366C150.329 87.3775 150.329 87.4159 150.331 87.4543C150.334 87.5695 150.339 87.6847 150.339 87.8025C150.342 87.9944 150.342 88.1839 150.342 88.3758H146.676C146.676 88.0943 146.673 87.8153 146.666 87.5337C146.451 79.1608 143.069 71.2897 137.146 65.369C131.003 59.2231 122.832 55.8392 114.139 55.8392C96.1983 55.8392 81.6027 70.4347 81.6027 88.3758V184.729H81.5976ZM64.4116 181.063H77.9295V88.3758C77.9295 68.4126 94.171 52.1711 114.134 52.1711C120.482 52.1711 126.58 53.794 131.952 56.84C124.56 50.6276 115.312 47.2436 105.541 47.2436C82.8621 47.2436 64.4116 65.6941 64.4116 88.3733V181.061V181.063Z"
        fill="#D9B88B" />
    <path d="M104.135 182.164V182.896H98.168C100.226 182.896 102.225 182.643 104.135 182.164Z"
        fill="#D9B88B" />
    <path
        d="M148.513 88.3743V147.332C148.513 166.973 132.592 182.897 112.949 182.897H98.1663C100.224 182.897 102.223 182.644 104.133 182.165C114.761 179.5 122.627 169.889 122.627 158.436V88.9579H118.429C101.903 88.9579 88.5084 102.355 88.5084 118.878V128.001C88.4803 128.726 88.4675 129.458 88.4675 130.198V182.895H79.7695V88.7813C79.7695 69.7318 95.3557 53.8615 114.405 54.0049C123.794 54.0765 132.285 57.9084 138.446 64.0723C144.472 70.0953 148.27 78.3478 148.503 87.4886C148.511 87.783 148.513 88.0799 148.513 88.3743Z"
        fill="#753418" />
    <path
        d="M112.955 184.728H98.1722C97.1586 184.728 96.3395 183.907 96.3395 182.896C96.3395 181.884 97.1611 181.063 98.1722 181.063C100.038 181.063 101.897 180.835 103.694 180.384C113.766 177.861 120.8 168.832 120.8 158.432V90.7941H118.438C102.951 90.7941 90.3497 103.393 90.3497 118.882V128.005C90.3497 128.028 90.3497 128.051 90.3497 128.074C90.3241 128.773 90.3088 129.487 90.3088 130.201V182.898C90.3088 183.912 89.4871 184.731 88.476 184.731H79.7781C78.7644 184.731 77.9453 183.909 77.9453 182.898V88.7822C77.9453 78.9452 81.8207 69.6815 88.86 62.6961C95.7712 55.8386 104.848 52.0962 114.426 52.173C123.995 52.2447 132.987 56.0101 139.75 62.7754C146.341 69.3641 150.104 78.1235 150.342 87.4409C150.35 87.7557 150.352 88.0655 150.352 88.3752V147.333C150.352 167.954 133.576 184.731 112.955 184.731V184.728ZM111.598 181.063H112.955C131.554 181.063 146.684 165.932 146.684 147.333V88.3752C146.684 88.0936 146.682 87.8121 146.674 87.5305C146.461 79.1628 143.08 71.289 137.154 65.3684C131.077 59.2865 122.994 55.9025 114.396 55.8386C114.314 55.8386 114.235 55.8386 114.153 55.8386C105.649 55.8386 97.5912 59.1918 91.4402 65.2993C85.0997 71.5911 81.6083 79.9307 81.6083 88.7822V181.063H86.6407V130.199C86.6407 129.451 86.6535 128.701 86.6816 127.966V118.879C86.6816 101.371 100.926 87.126 118.435 87.126H122.633C123.647 87.126 124.466 87.9477 124.466 88.9588V158.432C124.466 167.919 119.426 176.425 111.595 181.06L111.598 181.063Z"
        fill="#D9B88B" />
    <path
        d="M92.0361 141.288L102.109 134.574L92.0361 127.86C90.2622 126.677 89.3637 126.677 87.5898 127.86V141.288C89.3637 142.47 90.2622 142.47 92.0361 141.288Z"
        fill="#C1272D" />
    <path
        d="M142.395 93.9665L137.739 98.0774L133.083 102.186C131.225 103.832 128.278 102.841 127.787 100.409L126.556 94.3197L125.386 88.5373C124.841 88.3504 124.326 88.0253 123.919 87.562C123.507 87.0987 123.246 86.5509 123.133 85.9852L117.54 84.1064L111.653 82.1277C109.298 81.3368 108.684 78.2958 110.547 76.6525L115.203 72.5416L119.859 68.4307C121.723 66.7873 124.664 67.7779 125.155 70.2122L126.387 76.2993L127.556 82.0817C128.107 82.2634 128.616 82.5911 129.028 83.0569C129.438 83.5254 129.699 84.0706 129.812 84.6388L135.405 86.5177L141.292 88.4938C143.647 89.2847 144.261 92.3308 142.398 93.9716L142.395 93.9665Z"
        fill="#C1272D" />
    <path
        d="M32.9869 216.543C32.9869 215.428 33.6411 214.459 35.7729 214.774C35.6759 215.161 35.7007 215.646 35.7729 216.058C35.9905 217.341 37.0079 218.77 39.2604 218.77C40.6894 218.77 41.876 217.995 41.876 216.324C41.876 214.652 40.7616 213.854 38.5813 212.617C35.4806 210.849 33.5913 209.517 33.5913 206.683C33.5913 203.559 36.2803 202.348 39.3798 202.348C42.4792 202.348 44.5874 203.268 44.5874 205.157C44.5874 205.957 44.1757 206.683 42.8436 206.707C42.5775 206.731 42.2143 206.707 41.9233 206.659C41.9469 206.15 41.8748 205.641 41.7056 205.205C41.4394 204.284 40.6397 203.484 38.993 203.484C38.0004 203.484 36.7156 203.921 36.7156 205.494C36.7156 206.972 37.4905 207.844 40.4457 209.491C42.6981 210.726 45.1446 212.203 45.1446 215.135C45.1446 217.775 43.0613 219.956 38.7741 219.956C34.8264 219.956 32.9844 218.478 32.9844 216.54L32.9869 216.543Z"
        fill="#D9B88B" />
    <path
        d="M61.3768 219.209C61.0858 219.475 60.3843 219.96 59.439 219.96C58.3246 219.96 57.5013 219.306 57.5013 218.24V211.676H51.3248V216.06C51.3248 216.98 51.3733 218.143 51.8098 219.209C51.5188 219.475 50.8173 219.96 49.8721 219.96C48.7576 219.96 47.9343 219.306 47.9343 218.24V206.251C47.9343 205.33 47.8621 204.192 47.4492 203.101C47.7403 202.835 48.4417 202.375 49.387 202.375C50.4765 202.375 51.3248 203.004 51.3248 204.07V209.884H57.5013V206.251C57.5013 205.33 57.4291 204.192 57.0162 203.101C57.3072 202.835 58.0087 202.375 58.954 202.375C60.0435 202.375 60.8917 203.004 60.8917 204.07V216.06C60.8917 216.98 60.9403 218.143 61.3768 219.209Z"
        fill="#D9B88B" />
    <path
        d="M78.0347 219.183C77.7436 219.523 77.1628 219.935 76.0484 219.935C75.0074 219.935 74.2076 219.498 74.0136 218.626L72.9726 214.678H67.6928L66.9416 217.657C66.8446 218.045 66.7725 218.408 66.7725 218.772C66.7725 219.16 66.8695 219.402 67.0386 219.571C66.5536 219.765 66.0461 219.935 65.1979 219.935C63.8894 219.935 63.3086 219.523 63.3086 218.529C63.3086 218.117 63.4292 217.488 63.6481 216.809L68.3471 202.784C69.3159 202.47 70.26 202.324 71.2052 202.324C72.0049 202.324 72.7798 202.542 73.0223 203.414L77.2374 217.608C77.3581 218.019 77.6255 218.746 78.0372 219.182L78.0347 219.183ZM72.5124 212.886L70.2836 204.312L68.1282 212.886H72.5124Z"
        fill="#D9B88B" />
    <path
        d="M91.7248 214.775C91.7248 217.997 89.1813 219.595 84.7971 219.595H82.0596C80.9452 219.595 80.1218 218.965 80.1218 217.875V206.248C80.1218 205.473 80.0496 204.19 79.6367 203.099C80.6541 202.614 82.1068 202.348 84.1901 202.348C88.3803 202.348 90.9002 203.486 90.9002 206.417C90.9002 208.404 89.7373 209.953 87.7995 210.462C90.1004 210.777 91.7236 212.254 91.7236 214.774L91.7248 214.775ZM83.5135 203.512V210.028H84.6279C86.5657 210.076 87.3169 208.672 87.3169 206.71C87.3169 204.747 86.5657 203.512 84.2411 203.512H83.5148H83.5135ZM88.0433 214.847C88.0433 211.916 86.6142 211.19 84.7013 211.19H83.5148V218.432H84.6528C87.1478 218.432 88.0433 216.857 88.0433 214.847Z"
        fill="#D9B88B" />
    <path
        d="M94.2395 219.524C94.6512 218.435 94.7246 216.957 94.7246 216.06V206.226C94.7246 204.772 94.6761 203.779 94.5554 202.787C94.9186 202.352 96.5902 202.255 96.88 202.544C99.8116 206.686 104.922 212.717 106.012 215.261L105.14 204.603C105.019 203.343 105.576 202.471 106.738 202.399C107.198 202.375 107.731 202.496 108.119 202.762C107.755 203.779 107.731 205.16 107.731 205.935L107.707 216.132C107.707 217.586 107.731 218.53 107.876 219.524C107.537 219.912 106.156 220.081 105.599 219.79C99.8824 213.129 97.7506 209.884 96.5641 207.558L97.2905 218.022C97.3875 219.185 96.4422 219.959 95.6188 219.959C95.1338 219.959 94.6263 219.79 94.2383 219.523L94.2395 219.524Z"
        fill="#D9B88B" />
    <path
        d="M124.876 219.183C124.585 219.523 124.004 219.935 122.889 219.935C121.848 219.935 121.049 219.498 120.855 218.626L119.812 214.678H114.533L113.781 217.657C113.684 218.045 113.612 218.408 113.612 218.772C113.612 219.16 113.709 219.402 113.878 219.571C113.393 219.765 112.886 219.935 112.038 219.935C110.729 219.935 110.148 219.523 110.148 218.529C110.148 218.117 110.269 217.488 110.488 216.809L115.187 202.784C116.156 202.47 117.1 202.324 118.045 202.324C118.845 202.324 119.62 202.542 119.862 203.414L124.077 217.608C124.198 218.019 124.465 218.746 124.877 219.182L124.876 219.183ZM119.353 212.886L117.125 204.312L114.969 212.886H119.353Z"
        fill="#D9B88B" />
    <path
        d="M144.039 219.207C143.748 219.473 143.047 219.958 142.102 219.958C141.06 219.958 140.284 219.304 140.284 218.238L140.261 206.466L136.265 217.704C135.03 218.116 134.109 218.189 133.164 217.826C131.663 214.628 129.966 210.293 128.708 206.369L128.731 216.081C128.731 216.978 128.803 218.455 129.216 219.545C128.925 219.811 128.465 219.957 128.03 219.957C127.206 219.957 126.915 219.424 126.915 218.625V206.175C126.915 204.721 126.892 203.777 126.746 202.783C127.037 202.517 127.763 202.371 129.096 202.371C129.944 202.371 130.452 202.565 130.864 202.977C132.342 207.022 133.796 211.066 135.225 214.87C136.485 211.212 138.301 205.98 139.294 202.686C140.118 202.395 140.99 202.371 141.45 202.371C142.467 202.371 143.436 202.711 143.557 203.049V216.056C143.557 216.977 143.629 218.139 144.042 219.205L144.039 219.207Z"
        fill="#D9B88B" />
    <path
        d="M21.9922 245.97C22.4052 244.877 22.4788 243.394 22.4788 242.495V232.629C22.4788 231.17 22.4301 230.175 22.3091 229.179C22.6735 228.742 24.3504 228.645 24.6424 228.936C27.5821 233.091 32.7103 239.141 33.8033 241.692L32.9286 231.001C32.8076 229.737 33.3666 228.862 34.532 228.79C34.9936 228.766 35.5277 228.887 35.917 229.154C35.5526 230.175 35.5277 231.56 35.5277 232.337L35.504 242.567C35.504 244.026 35.5277 244.973 35.6736 245.97C35.333 246.359 33.948 246.529 33.389 246.237C27.6544 239.554 25.5158 236.298 24.3255 233.965L25.0541 244.462C25.1515 245.629 24.2032 246.406 23.3772 246.406C22.8906 246.406 22.3815 246.237 21.9922 245.968V245.97Z"
        fill="#D9B88B" />
    <path
        d="M40.5374 244.682V232.654C40.5374 231.73 40.465 230.589 40.0508 229.494C40.3428 229.227 41.0465 228.766 41.9948 228.766C43.0878 228.766 43.9387 229.397 43.9387 230.466V242.494C43.9387 243.418 43.9874 244.584 44.4254 245.654C44.1334 245.921 43.4297 246.407 42.4814 246.407C41.3634 246.407 40.5374 245.751 40.5374 244.682Z"
        fill="#D9B88B" />
    <path
        d="M61.6308 244.682C61.6308 245.702 60.8048 246.528 59.4685 246.528C57.3785 246.528 56.6249 244.487 56.0422 242.835L55.3859 240.842C55.0216 239.798 54.4139 238.437 52.7132 238.437H52.3489V242.494C52.3489 243.418 52.3976 244.584 52.8355 245.654C52.5435 245.921 51.8398 246.407 50.8915 246.407C49.7736 246.407 48.9476 245.751 48.9476 244.682V232.654C48.9476 231.73 48.8752 230.589 48.4609 229.494C48.7529 229.227 49.4566 228.766 50.4049 228.766C51.4979 228.766 52.3252 229.397 52.3252 230.466L52.3489 237.198C52.5186 237.174 52.7132 237.101 52.8829 237.052C55.6042 236.201 56.8682 233.139 56.8682 231.123C56.8682 230.127 56.6012 229.446 56.4315 229.179C56.9181 228.984 57.2825 228.887 57.8165 228.887C58.8371 228.887 60.1498 229.251 60.1498 231.341C60.1498 233.552 58.6437 236.104 55.0228 237.514C56.9181 237.708 57.7928 238.461 58.3767 239.773L59.446 242.251C60.0287 243.49 60.297 243.879 60.856 243.928C61.0506 243.952 61.2203 243.904 61.4387 243.758C61.5597 244.099 61.6333 244.415 61.6333 244.682H61.6308Z"
        fill="#D9B88B" />
    <path
        d="M78.009 244.533C78.009 245.821 76.77 246.38 76.0164 246.38C73.9027 246.38 73.3437 244.995 72.4204 242.687L71.7404 240.84C71.2537 239.625 70.7921 238.555 69.165 238.532L68.4114 238.507V242.687C68.4114 243.489 68.4601 244.654 68.898 245.651C68.606 245.918 67.9023 246.405 66.954 246.405C65.8361 246.405 65.0101 245.749 65.0101 244.679V232.651C65.0101 231.874 64.9377 230.586 64.5234 229.492C65.5441 229.005 67.0014 228.738 69.165 228.738C73.7817 228.738 76.3582 229.977 76.3582 233.137C76.3582 235.542 74.8759 237.219 72.5189 237.827C73.6856 238.167 74.3169 238.896 74.8522 239.843L75.8479 242.103C76.3333 243.269 76.7475 243.78 77.2329 243.803C77.4026 243.803 77.6222 243.755 77.8156 243.609C77.9616 243.973 78.0102 244.265 78.0102 244.532L78.009 244.533ZM69.3335 237.365C71.5931 237.293 72.6387 235.542 72.6387 233.356C72.6387 231.412 71.7878 229.881 69.4557 229.881C69.0427 229.881 68.7021 229.881 68.4114 229.905V237.34C68.7034 237.364 69.019 237.389 69.3347 237.364L69.3335 237.365Z"
        fill="#D9B88B" />
    <path
        d="M94.4568 245.628C94.1648 245.969 93.5822 246.382 92.4642 246.382C91.4198 246.382 90.6175 245.944 90.4229 245.069L89.3785 241.109H84.0819L83.3282 244.097C83.2309 244.486 83.1585 244.851 83.1585 245.215C83.1585 245.604 83.2559 245.848 83.4256 246.017C82.9389 246.212 82.4299 246.382 81.5789 246.382C80.2663 246.382 79.6836 245.969 79.6836 244.972C79.6836 244.559 79.8046 243.927 80.0242 243.246L84.7382 229.177C85.7102 228.861 86.6585 228.715 87.6055 228.715C88.4078 228.715 89.1851 228.933 89.4284 229.808L93.657 244.047C93.7781 244.46 94.0463 245.189 94.4593 245.627L94.4568 245.628ZM88.9169 239.311L86.6809 230.709L84.5186 239.311H88.9169Z"
        fill="#D9B88B" />
    <path
        d="M106.775 232.045C105.098 231.268 103.008 230.758 100.894 230.684V236.395H106.046C106.216 237.028 106.143 237.708 106.046 238.218H100.919V242.495C100.919 243.419 100.968 244.585 101.406 245.655C101.114 245.922 100.41 246.408 99.4618 246.408C98.3439 246.408 97.5179 245.752 97.5179 244.683V233.092C97.5179 232.144 97.4455 231.027 97.0312 229.933C97.8822 229.204 98.5859 229.082 100.117 229.082H107.139C108.063 229.082 107.673 231.634 106.775 232.047V232.045Z"
        fill="#D9B88B" />
    <path
        d="M121.793 232.047C120.773 231.488 119.315 230.808 117.905 230.443L117.929 242.495C117.929 243.419 117.978 244.585 118.416 245.655C118.124 245.922 117.42 246.408 116.472 246.408C115.354 246.408 114.528 245.752 114.528 244.683V230.467C113.118 230.808 111.684 231.488 110.64 232.047C109.741 231.634 109.352 229.082 110.275 229.082H122.183C123.106 229.082 122.717 231.634 121.793 232.047Z"
        fill="#D9B88B" />
    <path
        d="M138.177 245.628C137.885 245.969 137.302 246.382 136.184 246.382C135.14 246.382 134.338 245.944 134.143 245.069L133.099 241.109H127.801L127.047 244.097C126.95 244.486 126.877 244.851 126.877 245.215C126.877 245.604 126.975 245.848 127.144 246.017C126.658 246.212 126.149 246.382 125.298 246.382C123.985 246.382 123.402 245.969 123.402 244.972C123.402 244.559 123.523 243.927 123.743 243.246L128.457 229.177C129.429 228.861 130.376 228.715 131.324 228.715C132.127 228.715 132.904 228.933 133.147 229.808L137.376 244.047C137.497 244.46 137.764 245.189 138.178 245.627L138.177 245.628ZM132.637 239.311L130.401 230.709L128.239 239.311H132.637Z"
        fill="#D9B88B" />
    <path
        d="M154.228 244.533C154.228 245.821 152.989 246.38 152.235 246.38C150.121 246.38 149.562 244.995 148.639 242.687L147.959 240.84C147.473 239.625 147.011 238.555 145.384 238.532L144.63 238.507V242.687C144.63 243.489 144.679 244.654 145.117 245.651C144.825 245.918 144.121 246.405 143.173 246.405C142.055 246.405 141.229 245.749 141.229 244.679V232.651C141.229 231.874 141.156 230.586 140.742 229.492C141.763 229.005 143.22 228.738 145.384 228.738C150 228.738 152.577 229.977 152.577 233.137C152.577 235.542 151.095 237.219 148.738 237.827C149.904 238.167 150.536 238.896 151.071 239.843L152.067 242.103C152.553 243.269 152.966 243.78 153.452 243.803C153.621 243.803 153.841 243.755 154.036 243.609C154.182 243.973 154.23 244.265 154.23 244.532L154.228 244.533ZM145.552 237.365C147.812 237.293 148.857 235.542 148.857 233.356C148.857 231.412 148.007 229.881 145.675 229.881C145.262 229.881 144.921 229.881 144.63 229.905V237.34C144.922 237.364 145.238 237.389 145.553 237.364L145.552 237.365Z"
        fill="#D9B88B" />
</svg>