<svg width="36" height="36" viewBox="0 0 36 36" fill="none" xmlns="http://www.w3.org/2000/svg">
    <path
        d="M33.03 25.2304L28.335 14.2504C27.48 12.2404 26.205 11.1004 24.75 11.0254C23.31 10.9504 21.915 11.9554 20.85 13.8754L18 18.9904C17.4 20.0704 16.545 20.7154 15.615 20.7904C14.67 20.8804 13.725 20.3854 12.96 19.4104L12.63 18.9904C11.565 17.6554 10.245 17.0104 8.89496 17.1454C7.54496 17.2804 6.38996 18.2104 5.62496 19.7254L3.02996 24.9004C2.09996 26.7754 2.18996 28.9504 3.28496 30.7204C4.37996 32.4904 6.28496 33.5554 8.36996 33.5554H27.51C29.52 33.5554 31.395 32.5504 32.505 30.8704C33.645 29.1904 33.825 27.0754 33.03 25.2304Z"
        fill="#CFCFCF" />
    <path
        d="M10.4548 12.5702C13.2548 12.5702 15.5248 10.3003 15.5248 7.50018C15.5248 4.70009 13.2548 2.43018 10.4548 2.43018C7.65468 2.43018 5.38477 4.70009 5.38477 7.50018C5.38477 10.3003 7.65468 12.5702 10.4548 12.5702Z"
        fill="#CFCFCF" />
</svg>