<svg width="328" height="88" viewBox="0 0 328 88" fill="none" xmlns="http://www.w3.org/2000/svg">
    <rect width="328" height="88" rx="20" fill="#753418" />
    <mask id="mask0_1723_12252" style="mask-type:alpha" maskUnits="userSpaceOnUse" x="0" y="0"
        width="328" height="88">
        <rect width="328" height="88" rx="20" fill="#150904" />
    </mask>
    <g mask="url(#mask0_1723_12252)">
        <path
            d="M60.776 36.2578H60.7471V63.375C60.7471 75.0243 51.303 84.4683 39.6537 84.4683H36.6445V58.0174C36.6445 45.9988 46.3873 36.2578 58.4042 36.2578H60.7471"
            fill="#D9B88B" />
        <path
            d="M31.7589 103.997H-7.30273V35.8434C-7.30273 24.1325 -2.74186 13.1223 5.53795 4.8425C13.8178 -3.43732 24.828 -8 36.5388 -8C48.2497 -8 59.2617 -3.43913 67.5397 4.8425C75.5661 12.8652 80.1215 23.5259 80.3695 34.862C80.3714 34.9163 80.3732 34.9743 80.3732 35.0286C80.3768 35.101 80.3768 35.1735 80.3786 35.2459V35.4378C80.3822 35.5736 80.3822 35.7076 80.3822 35.8434H77.7895C77.7895 35.6442 77.7877 35.445 77.7822 35.2477C77.6301 29.3271 75.2402 23.7595 71.0486 19.5698C66.7032 15.2226 60.9238 12.829 54.7751 12.829C42.0847 12.829 31.7607 23.153 31.7607 35.8434V103.997H31.7589ZM-4.70997 101.405H29.1643V35.8434C29.1643 21.7226 40.6525 10.2344 54.7733 10.2344C61.6155 10.2344 68.0467 12.8978 72.881 17.7357C73.4006 18.2553 73.8931 18.7913 74.362 19.3471C72.3233 14.6722 69.4064 10.3775 65.7038 6.67662C57.9146 -1.11434 47.5563 -5.40543 36.537 -5.40543C13.7924 -5.40543 -4.71178 13.0988 -4.71178 35.8434V101.405H-4.70997Z"
            fill="#D9B88B" />
        <path
            d="M31.7665 103.997H4.85938V35.8424C4.85938 15.0188 21.801 -1.92285 42.6246 -1.92285C52.7132 -1.92285 62.1952 2.00612 69.3271 9.13984C76.2037 16.0146 80.1273 25.1472 80.3771 34.8574C80.379 34.9226 80.3808 34.9914 80.3808 35.0566V35.1073C80.3808 35.1326 80.3826 35.1562 80.3826 35.1797C80.3862 35.2431 80.388 35.3083 80.388 35.3698V35.4368C80.3898 35.5726 80.3898 35.7066 80.3898 35.8424H77.7971C77.7971 35.645 77.7953 35.4459 77.7898 35.2485C77.6377 29.3261 75.2478 23.7585 71.0563 19.5688C66.7108 15.2216 60.9314 12.828 54.7827 12.828C42.0923 12.828 31.7683 23.152 31.7683 35.8424V103.997H31.7665ZM7.45395 101.404H29.1719V35.8424C29.1719 21.7216 40.6601 10.2334 54.7809 10.2334C61.5036 10.2334 67.828 12.8045 72.6333 17.4812C71.1975 15.1419 69.4774 12.9566 67.493 10.974C60.8518 4.32911 52.0197 0.67172 42.6246 0.67172C23.2314 0.67172 7.45395 16.4492 7.45395 35.8424V101.404V101.404Z"
            fill="#D9B88B" />
        <path
            d="M31.749 103.998H17V35.8443C17 18.3721 31.2149 4.15723 48.6871 4.15723C57.1516 4.15723 65.1091 7.45249 71.0931 13.4383C76.8653 19.2104 80.1569 26.8765 80.3633 35.0259V35.1092C80.3651 35.1382 80.3651 35.1653 80.3669 35.1925C80.3687 35.274 80.3724 35.3555 80.3724 35.4387C80.3742 35.5745 80.3742 35.7085 80.3742 35.8443H77.7814C77.7814 35.6451 77.7796 35.4478 77.7742 35.2486C77.6221 29.3262 75.2303 23.7586 71.0406 19.5708C66.6952 15.2235 60.9158 12.8299 54.767 12.8299C42.0766 12.8299 31.7527 23.1539 31.7527 35.8443V103.998H31.749ZM19.5928 101.406H29.1545V35.8443C29.1545 21.7235 40.6427 10.2354 54.7634 10.2354C59.2537 10.2354 63.5665 11.3833 67.3669 13.5379C62.1379 9.14358 55.5963 6.74999 48.6853 6.74999C32.6435 6.74999 19.5928 19.8007 19.5928 35.8425V101.404V101.406Z"
            fill="#D9B88B" />
        <path
            d="M39.1333 73.2707L46.2579 68.5216L39.1333 63.7724C37.8785 62.9359 37.243 62.9359 35.9883 63.7724V73.2707C37.243 74.1072 37.8785 74.1072 39.1333 73.2707V73.2707Z"
            fill="#C1272D" />
        <path
            d="M53.9236 103.998H43.4674C42.7504 103.998 42.171 103.417 42.171 102.702C42.171 101.987 42.7522 101.405 43.4674 101.405C44.7873 101.405 46.1018 101.244 47.3729 100.926C54.4975 99.1404 59.473 92.7544 59.473 85.398V37.555H57.8018C46.8478 37.555 37.9343 46.4668 37.9343 57.4226V63.8756C37.9343 63.8919 37.9343 63.9081 37.9343 63.9244C37.9162 64.4187 37.9053 64.9239 37.9053 65.429V102.704C37.9053 103.421 37.3241 104 36.6089 104H30.4565C29.7395 104 29.1602 103.419 29.1602 102.704V36.1319C29.1602 29.1738 31.9014 22.6213 36.8805 17.6802C41.7691 12.8297 48.1894 10.1826 54.9646 10.2369C61.7326 10.2876 68.0932 12.951 72.8768 17.7364C77.5391 22.3968 80.2006 28.5926 80.369 35.1832C80.3744 35.4059 80.3762 35.625 80.3762 35.844V77.5473C80.3762 92.1334 68.5096 104 53.9236 104V103.998ZM52.9639 101.405H53.9236C67.0793 101.405 77.7817 90.703 77.7817 77.5473V35.844C77.7817 35.6449 77.7799 35.4457 77.7744 35.2465C77.6241 29.3277 75.2324 23.7584 71.0409 19.5705C66.7425 15.2685 61.0247 12.8749 54.9429 12.8297C54.885 12.8297 54.8289 12.8297 54.7709 12.8297C48.7561 12.8297 43.0564 15.2015 38.7056 19.5216C34.2207 23.972 31.7511 29.8709 31.7511 36.1319V101.405H35.3107V65.4272C35.3107 64.8985 35.3198 64.368 35.3397 63.8484V57.4208C35.3397 45.0364 45.4156 34.9605 57.8 34.9605H60.7694C61.4864 34.9605 62.0658 35.5417 62.0658 36.2569V85.398C62.0658 92.108 58.5007 98.1246 52.9621 101.404L52.9639 101.405Z"
            fill="#D9B88B" />
        <path
            d="M74.7543 39.7986L71.4608 42.7064L68.1674 45.6124C66.8529 46.7766 64.7689 46.0759 64.4213 44.3559L63.5504 40.0485L62.7229 35.9584C62.3373 35.8262 61.9733 35.5963 61.6855 35.2685C61.394 34.9408 61.2093 34.5534 61.1296 34.1532L57.1735 32.8242L53.0091 31.4247C51.3434 30.8652 50.9088 28.7142 52.227 27.5518L55.5204 24.644L58.8139 21.7362C60.132 20.5738 62.2123 21.2745 62.56 22.9964L63.4309 27.302L64.2583 31.3921C64.6476 31.5206 65.0079 31.7524 65.2994 32.0819C65.5891 32.4132 65.7738 32.7989 65.8534 33.2009L69.8096 34.5298L73.9739 35.9276C75.6397 36.4871 76.0742 38.6417 74.7561 39.8023L74.7543 39.7986Z"
            fill="#C1272D" />
    </g>
    <path
        d="M117.432 31.62C117.725 31.62 117.972 31.5867 118.172 31.52C118.372 31.44 118.532 31.3467 118.652 31.24C118.785 31.12 118.878 30.9933 118.932 30.86C118.998 30.7267 119.032 30.6 119.032 30.48C119.032 30.3467 119.005 30.1667 118.952 29.94C118.898 29.7133 118.798 29.38 118.652 28.94C118.518 28.5 118.318 27.9133 118.052 27.18C117.798 26.4467 117.465 25.5067 117.052 24.36L118.272 23.86L120.412 29.96C120.625 30.56 120.872 30.9867 121.152 31.24C121.432 31.4933 121.825 31.62 122.332 31.62H122.612C122.905 31.62 123.052 31.8467 123.052 32.3C123.052 32.7667 122.905 33 122.612 33H122.332C121.892 33 121.472 32.92 121.072 32.76C120.672 32.5867 120.305 32.22 119.972 31.66C119.692 32.2067 119.338 32.5667 118.912 32.74C118.498 32.9133 118.045 33 117.552 33H113.252L113.152 31.62H117.432ZM124.405 31.62C124.925 31.62 125.339 31.48 125.645 31.2C125.965 30.92 126.125 30.5333 126.125 30.04V27.28H127.425V30.04C127.425 30.9867 127.159 31.72 126.625 32.24C126.105 32.7467 125.392 33 124.485 33H122.605C122.432 33 122.319 32.9467 122.265 32.84C122.199 32.7333 122.165 32.5667 122.165 32.34C122.165 32.1 122.199 31.92 122.265 31.8C122.319 31.68 122.432 31.62 122.605 31.62H124.405ZM126.885 36.74H125.365V35.32H126.885V36.74ZM124.285 36.74H122.745V35.32H124.285V36.74ZM133.623 31.62C133.916 31.62 134.163 31.5867 134.363 31.52C134.563 31.44 134.723 31.3467 134.843 31.24C134.976 31.12 135.07 30.9933 135.123 30.86C135.19 30.7267 135.223 30.6 135.223 30.48C135.223 30.3467 135.196 30.1667 135.143 29.94C135.09 29.7133 134.99 29.38 134.843 28.94C134.71 28.5 134.51 27.9133 134.243 27.18C133.99 26.4467 133.656 25.5067 133.243 24.36L134.463 23.86L136.603 29.96C136.816 30.56 137.063 30.9867 137.343 31.24C137.623 31.4933 138.016 31.62 138.523 31.62H138.803C139.096 31.62 139.243 31.8467 139.243 32.3C139.243 32.7667 139.096 33 138.803 33H138.523C138.083 33 137.663 32.92 137.263 32.76C136.863 32.5867 136.496 32.22 136.163 31.66C135.883 32.2067 135.53 32.5667 135.103 32.74C134.69 32.9133 134.236 33 133.743 33H129.443L129.343 31.62H133.623ZM139.117 31.62C139.637 31.62 140.03 31.4933 140.297 31.24C140.564 30.9867 140.697 30.6467 140.697 30.22V29.46C140.697 28.3 140.99 27.3933 141.577 26.74C142.177 26.0867 143.004 25.76 144.057 25.76C144.604 25.76 145.084 25.8467 145.497 26.02C145.91 26.1933 146.25 26.44 146.517 26.76C146.797 27.08 147.004 27.46 147.137 27.9C147.27 28.34 147.337 28.8267 147.337 29.36C147.337 30.5067 147.037 31.4 146.437 32.04C145.837 32.68 145.017 33 143.977 33C143.444 33 142.93 32.9 142.437 32.7C141.944 32.4867 141.557 32.1133 141.277 31.58C141.157 31.8867 141.01 32.1333 140.837 32.32C140.664 32.5067 140.484 32.6533 140.297 32.76C140.11 32.8533 139.91 32.92 139.697 32.96C139.497 32.9867 139.304 33 139.117 33H138.797C138.624 33 138.51 32.9467 138.457 32.84C138.39 32.7333 138.357 32.5667 138.357 32.34C138.357 32.1 138.39 31.92 138.457 31.8C138.51 31.68 138.624 31.62 138.797 31.62H139.117ZM146.057 29.48C146.057 28.7867 145.904 28.2267 145.597 27.8C145.29 27.36 144.764 27.14 144.017 27.14C142.63 27.14 141.937 27.9467 141.937 29.56C141.937 30.24 142.124 30.7533 142.497 31.1C142.884 31.4467 143.377 31.62 143.977 31.62C144.657 31.62 145.17 31.4333 145.517 31.06C145.877 30.6867 146.057 30.16 146.057 29.48ZM149.845 23.34H151.145V33H149.845V23.34ZM149.505 21.14C149.252 21.14 149.045 21.1667 148.885 21.22C148.738 21.2733 148.612 21.4333 148.505 21.7L148.085 22.6L147.225 22.22L147.745 21.06C147.865 20.82 147.978 20.6267 148.085 20.48C148.192 20.32 148.312 20.2 148.445 20.12C148.565 20.04 148.705 19.9867 148.865 19.96C149.038 19.9333 149.238 19.92 149.465 19.92H153.145L153.085 21.14H149.505ZM172.413 30.04C172.413 30.6267 172.58 31.04 172.913 31.28C173.247 31.5067 173.62 31.62 174.033 31.62C174.54 31.62 174.94 31.48 175.233 31.2C175.54 30.92 175.693 30.5333 175.693 30.04V27.28H176.993V30.04C176.993 30.9867 176.727 31.72 176.193 32.24C175.673 32.7467 174.967 33 174.073 33C173.593 33 173.147 32.9133 172.733 32.74C172.32 32.5533 171.98 32.2067 171.713 31.7C171.407 32.2067 171.033 32.5533 170.593 32.74C170.167 32.9133 169.72 33 169.253 33C168.827 33 168.46 32.9333 168.153 32.8C167.847 32.6533 167.6 32.46 167.413 32.22V32.68C167.413 33.36 167.3 34.0133 167.073 34.64C166.847 35.2667 166.52 35.8133 166.093 36.28C165.68 36.76 165.173 37.14 164.573 37.42C163.973 37.7 163.293 37.84 162.533 37.84H161.353C159.86 37.84 158.7 37.38 157.873 36.46C157.047 35.54 156.633 34.28 156.633 32.68V29.18H157.913V32.64C157.913 33.2133 157.98 33.7333 158.113 34.2C158.26 34.6667 158.48 35.0667 158.773 35.4C159.08 35.7467 159.46 36.0133 159.913 36.2C160.367 36.3867 160.913 36.48 161.553 36.48H162.433C163.06 36.48 163.607 36.3733 164.073 36.16C164.54 35.96 164.927 35.6867 165.233 35.34C165.553 34.9933 165.787 34.5867 165.933 34.12C166.093 33.6533 166.173 33.1667 166.173 32.66V27.28H167.453V30.1C167.453 30.5667 167.613 30.94 167.933 31.22C168.253 31.4867 168.687 31.62 169.233 31.62C169.847 31.62 170.313 31.48 170.633 31.2C170.967 30.92 171.133 30.5333 171.133 30.04V27.28H172.413V30.04ZM172.573 22.32H170.973V20.92H172.573V22.32ZM173.833 24.72H172.233V23.3H173.833V24.72ZM171.293 24.72H169.693V23.3H171.293V24.72ZM181.033 36.48C181.62 36.48 182.133 36.3867 182.573 36.2C183.027 36.0133 183.407 35.76 183.713 35.44C184.02 35.12 184.253 34.7467 184.413 34.32C184.573 33.9067 184.667 33.4667 184.693 33H182.693C182.013 33 181.453 32.9267 181.013 32.78C180.573 32.6333 180.227 32.42 179.973 32.14C179.72 31.86 179.54 31.5267 179.433 31.14C179.34 30.74 179.293 30.2933 179.293 29.8C179.293 29.2933 179.367 28.8133 179.513 28.36C179.66 27.9067 179.873 27.5067 180.153 27.16C180.433 26.8133 180.78 26.54 181.193 26.34C181.62 26.1267 182.107 26.02 182.653 26.02C183.093 26.02 183.513 26.0933 183.913 26.24C184.313 26.3867 184.667 26.62 184.973 26.94C185.28 27.2467 185.52 27.6533 185.693 28.16C185.88 28.6533 185.973 29.2533 185.973 29.96V31.62H187.893C188.053 31.62 188.16 31.68 188.213 31.8C188.28 31.9067 188.313 32.0733 188.313 32.3C188.313 32.54 188.28 32.72 188.213 32.84C188.16 32.9467 188.053 33 187.893 33H185.933C185.907 33.6533 185.773 34.2733 185.533 34.86C185.307 35.4467 184.987 35.96 184.573 36.4C184.16 36.84 183.667 37.1867 183.093 37.44C182.52 37.7067 181.873 37.84 181.153 37.84H179.033L178.913 36.48H181.033ZM180.533 29.72C180.533 30.0533 180.567 30.34 180.633 30.58C180.713 30.82 180.84 31.02 181.013 31.18C181.2 31.3267 181.447 31.44 181.753 31.52C182.06 31.5867 182.447 31.62 182.913 31.62H184.713V30.12C184.713 29.1333 184.52 28.4267 184.133 28C183.747 27.5733 183.213 27.36 182.533 27.36C181.893 27.36 181.4 27.5733 181.053 28C180.707 28.4267 180.533 29 180.533 29.72ZM193.678 31.82C193.332 32.02 192.998 32.2 192.678 32.36C192.358 32.5067 192.012 32.6267 191.638 32.72C191.265 32.8133 190.852 32.8867 190.398 32.94C189.958 32.98 189.452 33 188.878 33H187.898C187.725 33 187.612 32.9467 187.558 32.84C187.492 32.7333 187.458 32.5667 187.458 32.34C187.458 32.1 187.492 31.92 187.558 31.8C187.612 31.68 187.725 31.62 187.898 31.62H188.898C189.418 31.62 189.878 31.6067 190.278 31.58C190.678 31.54 191.045 31.4867 191.378 31.42C191.712 31.34 192.025 31.24 192.318 31.12C192.612 31 192.912 30.8467 193.218 30.66L196.598 28.7C196.492 28.42 196.378 28.1667 196.258 27.94C196.138 27.7 195.985 27.5 195.798 27.34C195.625 27.18 195.405 27.06 195.138 26.98C194.872 26.8867 194.538 26.84 194.138 26.84H189.658L189.778 25.46H194.318C194.665 25.46 195.018 25.5 195.378 25.58C195.752 25.66 196.098 25.8333 196.418 26.1C196.752 26.3533 197.058 26.7333 197.338 27.24C197.632 27.7467 197.872 28.42 198.058 29.26L193.678 31.82ZM193.758 23.2H192.078V21.74H193.758V23.2ZM213.558 29.78C213.558 30.46 213.705 30.94 213.998 31.22C214.305 31.4867 214.671 31.62 215.098 31.62H215.458C215.631 31.62 215.745 31.68 215.798 31.8C215.865 31.9067 215.898 32.0733 215.898 32.3C215.898 32.54 215.865 32.72 215.798 32.84C215.745 32.9467 215.631 33 215.458 33H215.098C214.671 33 214.271 32.9267 213.898 32.78C213.525 32.62 213.205 32.26 212.938 31.7C212.778 31.9667 212.585 32.1867 212.358 32.36C212.131 32.5333 211.891 32.6667 211.638 32.76C211.398 32.8533 211.151 32.92 210.898 32.96C210.645 32.9867 210.405 33 210.178 33C209.258 33 208.518 32.76 207.958 32.28C207.398 31.7867 207.118 31.0733 207.118 30.14V28.92C207.118 28.4933 207.171 28.1267 207.278 27.82C207.385 27.5133 207.578 27.2333 207.858 26.98H207.018C206.178 26.98 205.545 27.1933 205.118 27.62C204.691 28.0333 204.478 28.5733 204.478 29.24V37.84H203.198V29.2C203.198 28.7333 203.278 28.2867 203.438 27.86C203.611 27.4333 203.858 27.0533 204.178 26.72C204.498 26.3867 204.898 26.1267 205.378 25.94C205.858 25.74 206.418 25.64 207.058 25.64H210.678C211.211 25.64 211.658 25.72 212.018 25.88C212.391 26.0267 212.691 26.2267 212.918 26.48C213.145 26.7333 213.305 27.0267 213.398 27.36C213.505 27.68 213.558 28.0067 213.558 28.34V29.78ZM210.318 31.62C210.931 31.62 211.411 31.4867 211.758 31.22C212.118 30.94 212.298 30.52 212.298 29.96V28.64C212.298 28.2 212.171 27.82 211.918 27.5C211.665 27.18 211.258 27.02 210.698 27.02H209.978C209.418 27.02 209.011 27.1867 208.758 27.52C208.505 27.84 208.378 28.24 208.378 28.72V29.9C208.378 30.46 208.538 30.8867 208.858 31.18C209.191 31.4733 209.678 31.62 210.318 31.62ZM216.977 31.62C217.537 31.62 217.964 31.48 218.257 31.2C218.55 30.92 218.697 30.5333 218.697 30.04V27.28H219.997V30.04C219.997 30.3333 220.044 30.58 220.137 30.78C220.244 30.98 220.377 31.1467 220.537 31.28C220.697 31.4 220.877 31.4867 221.077 31.54C221.277 31.5933 221.484 31.62 221.697 31.62H222.297C222.604 31.62 222.757 31.8467 222.757 32.3C222.757 32.7667 222.604 33 222.297 33H221.657C221.177 33 220.73 32.9133 220.317 32.74C219.904 32.5533 219.564 32.2067 219.297 31.7C218.99 32.2067 218.637 32.5533 218.237 32.74C217.85 32.9133 217.43 33 216.977 33H215.457C215.284 33 215.17 32.9467 215.117 32.84C215.05 32.7333 215.017 32.5667 215.017 32.34C215.017 32.1 215.05 31.92 215.117 31.8C215.17 31.68 215.284 31.62 215.457 31.62H216.977ZM220.037 24.72H218.357V23.26H220.037V24.72ZM223.813 31.62C224.373 31.62 224.8 31.48 225.093 31.2C225.386 30.92 225.533 30.5333 225.533 30.04V27.28H226.833V30.04C226.833 30.3333 226.88 30.58 226.973 30.78C227.08 30.98 227.213 31.1467 227.373 31.28C227.533 31.4 227.713 31.4867 227.913 31.54C228.113 31.5933 228.32 31.62 228.533 31.62H229.133C229.44 31.62 229.593 31.8467 229.593 32.3C229.593 32.7667 229.44 33 229.133 33H228.493C228.013 33 227.566 32.9133 227.153 32.74C226.74 32.5533 226.4 32.2067 226.133 31.7C225.826 32.2067 225.473 32.5533 225.073 32.74C224.686 32.9133 224.266 33 223.813 33H222.293C222.12 33 222.006 32.9467 221.953 32.84C221.886 32.7333 221.853 32.5667 221.853 32.34C221.853 32.1 221.886 31.92 221.953 31.8C222.006 31.68 222.12 31.62 222.293 31.62H223.813ZM226.533 36.78H224.853V35.32H226.533V36.78ZM229.849 31.62C230.409 31.62 230.842 31.48 231.149 31.2C231.469 30.92 231.629 30.5333 231.629 30.04V27.28H232.929V30.04C232.929 30.3333 232.976 30.58 233.069 30.78C233.176 30.98 233.309 31.1467 233.469 31.28C233.642 31.4 233.829 31.4867 234.029 31.54C234.242 31.5933 234.456 31.62 234.669 31.62C235.296 31.62 235.769 31.48 236.089 31.2C236.422 30.92 236.589 30.5333 236.589 30.04V27.28H237.889V30.04C237.889 30.6267 238.049 31.04 238.369 31.28C238.702 31.5067 239.076 31.62 239.489 31.62C239.996 31.62 240.396 31.48 240.689 31.2C240.996 30.92 241.149 30.5333 241.149 30.04V27.28H242.449V30.04C242.449 30.9867 242.182 31.72 241.649 32.24C241.129 32.7467 240.422 33 239.529 33C239.049 33 238.602 32.9133 238.189 32.74C237.776 32.5533 237.436 32.2067 237.169 31.7C236.876 32.2067 236.502 32.5533 236.049 32.74C235.609 32.9133 235.149 33 234.669 33C234.149 33 233.676 32.9133 233.249 32.74C232.822 32.5533 232.476 32.2067 232.209 31.7C231.916 32.2067 231.556 32.5533 231.129 32.74C230.702 32.9133 230.249 33 229.769 33H229.129C228.956 33 228.842 32.9467 228.789 32.84C228.722 32.7333 228.689 32.5667 228.689 32.34C228.689 32.1 228.722 31.92 228.789 31.8C228.842 31.68 228.956 31.62 229.129 31.62H229.849ZM238.049 22.32H236.449V20.92H238.049V22.32ZM239.309 24.72H237.709V23.3H239.309V24.72ZM236.769 24.72H235.169V23.3H236.769V24.72ZM254.729 33C253.809 33 253.069 32.76 252.509 32.28C251.949 31.7867 251.669 31.0733 251.669 30.14V28.92C251.669 28.4933 251.722 28.1267 251.829 27.82C251.936 27.5133 252.129 27.2333 252.409 26.98H251.569C250.729 26.98 250.096 27.1933 249.669 27.62C249.242 28.0333 249.029 28.5733 249.029 29.24V37.84H247.749V29.2C247.749 28.7333 247.829 28.2867 247.989 27.86C248.162 27.4333 248.409 27.0533 248.729 26.72C249.049 26.3867 249.449 26.1267 249.929 25.94C250.409 25.74 250.969 25.64 251.609 25.64H255.229C255.762 25.64 256.209 25.72 256.569 25.88C256.942 26.0267 257.242 26.2267 257.469 26.48C257.696 26.7333 257.856 27.0267 257.949 27.36C258.056 27.68 258.109 28.0067 258.109 28.34V30.1C258.109 30.6067 258.022 31.0467 257.849 31.42C257.676 31.78 257.436 32.08 257.129 32.32C256.836 32.5467 256.482 32.72 256.069 32.84C255.656 32.9467 255.209 33 254.729 33ZM254.869 31.62C255.482 31.62 255.962 31.4867 256.309 31.22C256.669 30.94 256.849 30.52 256.849 29.96V28.64C256.849 28.2 256.722 27.82 256.469 27.5C256.216 27.18 255.809 27.02 255.249 27.02H254.529C253.969 27.02 253.562 27.1867 253.309 27.52C253.056 27.84 252.929 28.24 252.929 28.72V29.9C252.929 30.46 253.089 30.8867 253.409 31.18C253.742 31.4733 254.229 31.62 254.869 31.62ZM262.547 32.68C262.547 33.4533 262.427 34.1533 262.187 34.78C261.947 35.42 261.613 35.9667 261.187 36.42C260.76 36.8733 260.26 37.22 259.687 37.46C259.113 37.7133 258.487 37.84 257.807 37.84H256.627L256.527 36.48H257.507C258.173 36.48 258.747 36.3733 259.227 36.16C259.707 35.9467 260.1 35.66 260.407 35.3C260.713 34.9533 260.94 34.5533 261.087 34.1C261.233 33.6467 261.307 33.1733 261.307 32.68V27.28H262.587V30.1C262.587 30.5667 262.74 30.94 263.047 31.22C263.367 31.4867 263.78 31.62 264.287 31.62H264.507C264.8 31.62 264.947 31.8467 264.947 32.3C264.947 32.7667 264.8 33 264.507 33H264.287C263.967 33 263.647 32.94 263.327 32.82C263.02 32.7 262.76 32.4933 262.547 32.2V32.68ZM268.34 31.62C267.7 31.2467 267.193 30.8 266.82 30.28C266.447 29.7467 266.26 29.1533 266.26 28.5C266.26 28.06 266.34 27.6333 266.5 27.22C266.673 26.8067 266.913 26.4467 267.22 26.14C267.527 25.82 267.9 25.5667 268.34 25.38C268.793 25.18 269.293 25.08 269.84 25.08C270.387 25.08 270.867 25.18 271.28 25.38C271.693 25.5667 272.033 25.82 272.3 26.14C272.58 26.4467 272.787 26.8 272.92 27.2C273.067 27.5867 273.14 27.98 273.14 28.38C273.14 29.7 272.513 30.78 271.26 31.62H274.92C275.213 31.62 275.36 31.8467 275.36 32.3C275.36 32.7667 275.213 33 274.92 33H272.7C272.087 33 271.54 32.9867 271.06 32.96C270.58 32.92 270.207 32.8333 269.94 32.7C269.753 32.78 269.52 32.84 269.24 32.88C268.973 32.92 268.693 32.9533 268.4 32.98C268.12 32.9933 267.84 33 267.56 33C267.293 33 267.067 33 266.88 33H264.5C264.327 33 264.213 32.9467 264.16 32.84C264.093 32.7333 264.06 32.5667 264.06 32.34C264.06 32.1 264.093 31.92 264.16 31.8C264.213 31.68 264.327 31.62 264.5 31.62H268.34ZM269.7 26.46C269.033 26.46 268.507 26.6733 268.12 27.1C267.733 27.5267 267.54 28.0467 267.54 28.66C267.54 29.0067 267.613 29.32 267.76 29.6C267.907 29.88 268.087 30.1333 268.3 30.36C268.527 30.5867 268.773 30.7867 269.04 30.96C269.32 31.12 269.593 31.26 269.86 31.38C270.073 31.26 270.293 31.12 270.52 30.96C270.76 30.7867 270.98 30.5933 271.18 30.38C271.38 30.1533 271.547 29.9 271.68 29.62C271.813 29.34 271.88 29.04 271.88 28.72C271.88 28.04 271.687 27.4933 271.3 27.08C270.913 26.6667 270.38 26.46 269.7 26.46ZM270.7 23.14H269.02V21.68H270.7V23.14ZM276.45 31.62C277.01 31.62 277.436 31.48 277.73 31.2C278.023 30.92 278.17 30.5333 278.17 30.04V27.28H279.47V30.04C279.47 30.3333 279.516 30.58 279.61 30.78C279.716 30.98 279.85 31.1467 280.01 31.28C280.17 31.4 280.35 31.4867 280.55 31.54C280.75 31.5933 280.956 31.62 281.17 31.62H281.77C282.076 31.62 282.23 31.8467 282.23 32.3C282.23 32.7667 282.076 33 281.77 33H281.13C280.65 33 280.203 32.9133 279.79 32.74C279.376 32.5533 279.036 32.2067 278.77 31.7C278.463 32.2067 278.11 32.5533 277.71 32.74C277.323 32.9133 276.903 33 276.45 33H274.93C274.756 33 274.643 32.9467 274.59 32.84C274.523 32.7333 274.49 32.5667 274.49 32.34C274.49 32.1 274.523 31.92 274.59 31.8C274.643 31.68 274.756 31.62 274.93 31.62H276.45ZM280.67 24.72H279.07V23.3H280.67V24.72ZM278.13 24.72H276.53V23.3H278.13V24.72ZM282.286 31.62C282.846 31.62 283.266 31.48 283.546 31.2C283.839 30.92 283.986 30.5333 283.986 30.04V20.6H285.286V30.04C285.286 30.3333 285.332 30.58 285.426 30.78C285.532 30.98 285.666 31.1467 285.826 31.28C285.986 31.4 286.166 31.4867 286.366 31.54C286.566 31.5933 286.772 31.62 286.986 31.62H287.266C287.439 31.62 287.552 31.68 287.606 31.8C287.672 31.9067 287.706 32.0733 287.706 32.3C287.706 32.54 287.672 32.72 287.606 32.84C287.552 32.9467 287.439 33 287.266 33H286.946C286.466 33 286.019 32.9133 285.606 32.74C285.192 32.5533 284.852 32.2067 284.586 31.7C284.292 32.2067 283.939 32.5533 283.526 32.74C283.126 32.9133 282.712 33 282.286 33H281.766C281.592 33 281.479 32.9467 281.426 32.84C281.359 32.7333 281.326 32.5667 281.326 32.34C281.326 32.1 281.359 31.92 281.426 31.8C281.479 31.68 281.592 31.62 281.766 31.62H282.286ZM289.073 31.62C289.593 31.62 290.007 31.48 290.313 31.2C290.633 30.92 290.793 30.5333 290.793 30.04V27.28H292.093V30.04C292.093 30.9867 291.827 31.72 291.293 32.24C290.773 32.7467 290.06 33 289.153 33H287.273C287.1 33 286.987 32.9467 286.933 32.84C286.867 32.7333 286.833 32.5667 286.833 32.34C286.833 32.1 286.867 31.92 286.933 31.8C286.987 31.68 287.1 31.62 287.273 31.62H289.073ZM290.373 39.14H288.773V37.72H290.373V39.14ZM291.633 36.74H290.033V35.32H291.633V36.74ZM289.093 36.74H287.493V35.32H289.093V36.74ZM300.597 30.88C301.304 30.88 301.857 30.74 302.257 30.46C302.671 30.18 302.877 29.8267 302.877 29.4V26.4H300.737C300.044 26.4 299.511 26.6333 299.137 27.1C298.764 27.5533 298.577 28.16 298.577 28.92C298.577 29.6667 298.751 30.18 299.097 30.46C299.444 30.74 299.944 30.88 300.597 30.88ZM304.137 29.68C304.137 30.2533 304.251 30.72 304.477 31.08C304.704 31.44 305.117 31.62 305.717 31.62H306.057C306.217 31.62 306.324 31.68 306.377 31.8C306.444 31.9067 306.477 32.0733 306.477 32.3C306.477 32.54 306.444 32.72 306.377 32.84C306.324 32.9467 306.217 33 306.057 33H305.717C305.091 33 304.557 32.8733 304.117 32.62C303.677 32.3533 303.364 31.88 303.177 31.2C303.017 31.4 302.817 31.5667 302.577 31.7C302.351 31.8333 302.104 31.94 301.837 32.02C301.584 32.0867 301.324 32.1333 301.057 32.16C300.804 32.1867 300.564 32.2 300.337 32.2C299.364 32.2 298.617 31.9467 298.097 31.44C297.591 30.9333 297.337 30.14 297.337 29.06C297.337 28.5667 297.404 28.0867 297.537 27.62C297.684 27.14 297.897 26.7133 298.177 26.34C298.457 25.9667 298.804 25.6667 299.217 25.44C299.644 25.2133 300.144 25.1 300.717 25.1H302.877V23.72H304.137V29.68ZM307.863 31.62C308.383 31.62 308.796 31.48 309.103 31.2C309.423 30.92 309.583 30.5333 309.583 30.04V27.28H310.883V30.04C310.883 30.9867 310.616 31.72 310.083 32.24C309.563 32.7467 308.849 33 307.943 33H306.062C305.889 33 305.776 32.9467 305.722 32.84C305.656 32.7333 305.622 32.5667 305.622 32.34C305.622 32.1 305.656 31.92 305.722 31.8C305.776 31.68 305.889 31.62 306.062 31.62H307.863ZM308.663 36.78H306.983V35.32H308.663V36.78Z"
        fill="#D9B88B" />
    <path
        d="M120.444 64.776C120.444 65.3173 120.355 65.8073 120.178 66.246C120.01 66.694 119.776 67.0767 119.478 67.394C119.179 67.7113 118.824 67.954 118.414 68.122C118.012 68.2993 117.574 68.388 117.098 68.388H116.272L116.202 67.436H116.888C117.354 67.436 117.756 67.3613 118.092 67.212C118.428 67.0627 118.703 66.862 118.918 66.61C119.132 66.3673 119.291 66.0873 119.394 65.77C119.496 65.4527 119.548 65.1213 119.548 64.776V60.996H120.444V64.776ZM124.064 65C123.822 65 123.588 64.9673 123.364 64.902C123.14 64.8273 122.94 64.706 122.762 64.538C122.594 64.37 122.459 64.1507 122.356 63.88C122.254 63.6 122.202 63.2547 122.202 62.844V56.32H123.112V62.676C123.112 63.068 123.196 63.3947 123.364 63.656C123.542 63.908 123.826 64.034 124.218 64.034H124.456C124.662 64.034 124.764 64.1927 124.764 64.51C124.764 64.8367 124.662 65 124.456 65H124.064ZM125.527 64.034C125.919 64.034 126.218 63.936 126.423 63.74C126.628 63.544 126.731 63.2733 126.731 62.928V60.996H127.641V62.928C127.641 63.1333 127.674 63.306 127.739 63.446C127.814 63.586 127.907 63.7027 128.019 63.796C128.131 63.88 128.257 63.9407 128.397 63.978C128.537 64.0153 128.682 64.034 128.831 64.034H129.251C129.466 64.034 129.573 64.1927 129.573 64.51C129.573 64.8367 129.466 65 129.251 65H128.803C128.467 65 128.154 64.9393 127.865 64.818C127.576 64.6873 127.338 64.4447 127.151 64.09C126.936 64.4447 126.689 64.6873 126.409 64.818C126.138 64.9393 125.844 65 125.527 65H124.463C124.342 65 124.262 64.9627 124.225 64.888C124.178 64.8133 124.155 64.6967 124.155 64.538C124.155 64.37 124.178 64.244 124.225 64.16C124.262 64.076 124.342 64.034 124.463 64.034H125.527ZM128.481 59.204H127.361V58.21H128.481V59.204ZM126.703 59.204H125.583V58.21H126.703V59.204ZM131.614 64.034C131.857 64.034 132.062 64.034 132.23 64.034C132.407 64.0247 132.594 64.0247 132.79 64.034C132.258 63.8567 131.838 63.6793 131.53 63.502C131.231 63.3247 131.003 63.1427 130.844 62.956C130.685 62.7693 130.583 62.5687 130.536 62.354C130.499 62.13 130.48 61.8827 130.48 61.612C130.48 61.3507 130.531 61.0847 130.634 60.814C130.737 60.5433 130.886 60.3007 131.082 60.086C131.287 59.862 131.535 59.68 131.824 59.54C132.123 59.4 132.463 59.33 132.846 59.33C133.201 59.33 133.523 59.3813 133.812 59.484C134.101 59.5773 134.349 59.7313 134.554 59.946C134.769 60.1607 134.932 60.4407 135.044 60.786C135.165 61.1313 135.226 61.556 135.226 62.06V62.69C135.226 63.4087 135.007 63.9733 134.568 64.384C134.139 64.7947 133.457 65 132.524 65H129.248C129.127 65 129.047 64.9627 129.01 64.888C128.963 64.8133 128.94 64.6967 128.94 64.538C128.94 64.37 128.963 64.244 129.01 64.16C129.047 64.076 129.127 64.034 129.248 64.034H131.614ZM132.79 60.296C132.566 60.296 132.361 60.338 132.174 60.422C131.997 60.506 131.843 60.6133 131.712 60.744C131.591 60.8747 131.497 61.024 131.432 61.192C131.367 61.36 131.334 61.5327 131.334 61.71C131.334 61.8873 131.353 62.0553 131.39 62.214C131.427 62.3633 131.53 62.5173 131.698 62.676C131.866 62.8253 132.118 62.9887 132.454 63.166C132.799 63.334 133.275 63.5253 133.882 63.74C134.181 63.488 134.33 63.1147 134.33 62.62V62.158C134.33 61.5793 134.213 61.1267 133.98 60.8C133.747 60.464 133.35 60.296 132.79 60.296ZM133.434 57.944H132.258V56.922H133.434V57.944ZM138.368 64.776C138.368 65.3173 138.279 65.8073 138.102 66.246C137.934 66.694 137.7 67.0767 137.402 67.394C137.103 67.7113 136.748 67.954 136.338 68.122C135.936 68.2993 135.498 68.388 135.022 68.388H134.196L134.126 67.436H134.812C135.278 67.436 135.68 67.3613 136.016 67.212C136.352 67.0627 136.627 66.862 136.842 66.61C137.056 66.3673 137.215 66.0873 137.318 65.77C137.42 65.4527 137.472 65.1213 137.472 64.776V60.996H138.368V64.776ZM147.117 62.074V60.856C147.117 60.772 147.089 60.702 147.033 60.646C146.986 60.5807 146.893 60.548 146.753 60.548H144.975V58.91C144.975 58.4433 145.105 58.0793 145.367 57.818C145.628 57.5567 146.006 57.426 146.501 57.426H147.187L147.271 58.154H146.529C146.249 58.154 146.034 58.2193 145.885 58.35C145.745 58.4713 145.675 58.6767 145.675 58.966V59.82H147.075C147.355 59.82 147.546 59.904 147.649 60.072C147.761 60.24 147.817 60.422 147.817 60.618V62.074H147.117ZM144.247 65C143.864 65 143.533 64.944 143.253 64.832C142.982 64.7107 142.758 64.552 142.581 64.356C142.413 64.16 142.287 63.9313 142.203 63.67C142.128 63.4087 142.091 63.1333 142.091 62.844V60.968H142.987V62.634C142.987 63.054 143.094 63.3947 143.309 63.656C143.523 63.908 143.901 64.034 144.443 64.034H148.993C149.385 64.034 149.683 63.936 149.889 63.74C150.094 63.544 150.197 63.2733 150.197 62.928V56.32H151.093V62.928C151.093 63.1333 151.125 63.306 151.191 63.446C151.265 63.586 151.359 63.7027 151.471 63.796C151.583 63.88 151.709 63.9407 151.849 63.978C151.998 64.0153 152.147 64.034 152.297 64.034H152.507C152.712 64.034 152.815 64.1927 152.815 64.51C152.815 64.8367 152.712 65 152.507 65H152.269C151.933 65 151.615 64.9393 151.317 64.818C151.027 64.6873 150.789 64.4447 150.603 64.09C150.397 64.4447 150.155 64.6873 149.875 64.818C149.595 64.9393 149.301 65 148.993 65H144.247ZM153.568 64.034C153.96 64.034 154.259 63.936 154.464 63.74C154.669 63.544 154.772 63.2733 154.772 62.928V60.996H155.682V62.928C155.682 63.1333 155.715 63.306 155.78 63.446C155.855 63.586 155.948 63.7027 156.06 63.796C156.172 63.88 156.298 63.9407 156.438 63.978C156.578 64.0153 156.723 64.034 156.872 64.034H157.292C157.507 64.034 157.614 64.1927 157.614 64.51C157.614 64.8367 157.507 65 157.292 65H156.844C156.508 65 156.195 64.9393 155.906 64.818C155.617 64.6873 155.379 64.4447 155.192 64.09C154.977 64.4447 154.73 64.6873 154.45 64.818C154.179 64.9393 153.885 65 153.568 65H152.504C152.383 65 152.303 64.9627 152.266 64.888C152.219 64.8133 152.196 64.6967 152.196 64.538C152.196 64.37 152.219 64.244 152.266 64.16C152.303 64.076 152.383 64.034 152.504 64.034H153.568ZM156.284 67.618H155.22V66.624H156.284V67.618ZM154.464 67.618H153.386V66.624H154.464V67.618ZM158.549 64.034C158.913 64.034 159.202 63.936 159.417 63.74C159.641 63.544 159.753 63.2733 159.753 62.928V60.996H160.663V62.928C160.663 63.5907 160.476 64.104 160.103 64.468C159.739 64.8227 159.24 65 158.605 65H157.289C157.168 65 157.088 64.9627 157.051 64.888C157.004 64.8133 156.981 64.6967 156.981 64.538C156.981 64.37 157.004 64.244 157.051 64.16C157.088 64.076 157.168 64.034 157.289 64.034H158.549ZM160.285 59.204H159.109V58.182H160.285V59.204ZM171.628 62.746C171.628 63.222 171.73 63.558 171.936 63.754C172.15 63.9407 172.407 64.034 172.706 64.034H172.958C173.079 64.034 173.158 64.076 173.196 64.16C173.242 64.2347 173.266 64.3513 173.266 64.51C173.266 64.678 173.242 64.804 173.196 64.888C173.158 64.9627 173.079 65 172.958 65H172.706C172.407 65 172.127 64.9487 171.866 64.846C171.604 64.734 171.38 64.482 171.194 64.09C171.082 64.2767 170.946 64.4307 170.788 64.552C170.629 64.6733 170.461 64.7667 170.284 64.832C170.116 64.8973 169.943 64.944 169.766 64.972C169.588 64.9907 169.42 65 169.262 65C168.618 65 168.1 64.832 167.708 64.496C167.316 64.1507 167.12 63.6513 167.12 62.998V62.144C167.12 61.8453 167.157 61.5887 167.232 61.374C167.306 61.1593 167.442 60.9633 167.638 60.786H167.05C166.462 60.786 166.018 60.9353 165.72 61.234C165.421 61.5233 165.272 61.9013 165.272 62.368V68.388H164.376V62.34C164.376 62.0133 164.432 61.7007 164.544 61.402C164.665 61.1033 164.838 60.8373 165.062 60.604C165.286 60.3707 165.566 60.1887 165.902 60.058C166.238 59.918 166.63 59.848 167.078 59.848H169.612C169.985 59.848 170.298 59.904 170.55 60.016C170.811 60.1187 171.021 60.2587 171.18 60.436C171.338 60.6133 171.45 60.8187 171.516 61.052C171.59 61.276 171.628 61.5047 171.628 61.738V62.746ZM169.36 64.034C169.789 64.034 170.125 63.9407 170.368 63.754C170.62 63.558 170.746 63.264 170.746 62.872V61.948C170.746 61.64 170.657 61.374 170.48 61.15C170.302 60.926 170.018 60.814 169.626 60.814H169.122C168.73 60.814 168.445 60.9307 168.268 61.164C168.09 61.388 168.002 61.668 168.002 62.004V62.83C168.002 63.222 168.114 63.5207 168.338 63.726C168.571 63.9313 168.912 64.034 169.36 64.034ZM174.021 64.034C174.413 64.034 174.712 63.936 174.917 63.74C175.122 63.544 175.225 63.2733 175.225 62.928V60.996H176.135V62.928C176.135 63.1333 176.168 63.306 176.233 63.446C176.308 63.586 176.401 63.7027 176.513 63.796C176.625 63.88 176.751 63.9407 176.891 63.978C177.031 64.0153 177.176 64.034 177.325 64.034H177.745C177.96 64.034 178.067 64.1927 178.067 64.51C178.067 64.8367 177.96 65 177.745 65H177.297C176.961 65 176.648 64.9393 176.359 64.818C176.07 64.6873 175.832 64.4447 175.645 64.09C175.43 64.4447 175.183 64.6873 174.903 64.818C174.632 64.9393 174.338 65 174.021 65H172.957C172.836 65 172.756 64.9627 172.719 64.888C172.672 64.8133 172.649 64.6967 172.649 64.538C172.649 64.37 172.672 64.244 172.719 64.16C172.756 64.076 172.836 64.034 172.957 64.034H174.021ZM176.163 59.204H174.987V58.182H176.163V59.204ZM178.806 64.034C179.198 64.034 179.497 63.936 179.702 63.74C179.908 63.544 180.01 63.2733 180.01 62.928V60.996H180.92V62.928C180.92 63.1333 180.953 63.306 181.018 63.446C181.093 63.586 181.186 63.7027 181.298 63.796C181.41 63.88 181.536 63.9407 181.676 63.978C181.816 64.0153 181.961 64.034 182.11 64.034H182.53C182.745 64.034 182.852 64.1927 182.852 64.51C182.852 64.8367 182.745 65 182.53 65H182.082C181.746 65 181.434 64.9393 181.144 64.818C180.855 64.6873 180.617 64.4447 180.43 64.09C180.216 64.4447 179.968 64.6873 179.688 64.818C179.418 64.9393 179.124 65 178.806 65H177.742C177.621 65 177.542 64.9627 177.504 64.888C177.458 64.8133 177.434 64.6967 177.434 64.538C177.434 64.37 177.458 64.244 177.504 64.16C177.542 64.076 177.621 64.034 177.742 64.034H178.806ZM180.71 67.646H179.534V66.624H180.71V67.646ZM183.031 64.034C183.423 64.034 183.727 63.936 183.941 63.74C184.165 63.544 184.277 63.2733 184.277 62.928V60.996H185.187V62.928C185.187 63.1333 185.22 63.306 185.285 63.446C185.36 63.586 185.453 63.7027 185.565 63.796C185.687 63.88 185.817 63.9407 185.957 63.978C186.107 64.0153 186.256 64.034 186.405 64.034C186.844 64.034 187.175 63.936 187.399 63.74C187.633 63.544 187.749 63.2733 187.749 62.928V60.996H188.659V62.928C188.659 63.3387 188.771 63.628 188.995 63.796C189.229 63.9547 189.49 64.034 189.779 64.034C190.134 64.034 190.414 63.936 190.619 63.74C190.834 63.544 190.941 63.2733 190.941 62.928V60.996H191.851V62.928C191.851 63.5907 191.665 64.104 191.291 64.468C190.927 64.8227 190.433 65 189.807 65C189.471 65 189.159 64.9393 188.869 64.818C188.58 64.6873 188.342 64.4447 188.155 64.09C187.95 64.4447 187.689 64.6873 187.371 64.818C187.063 64.9393 186.741 65 186.405 65C186.041 65 185.71 64.9393 185.411 64.818C185.113 64.6873 184.87 64.4447 184.683 64.09C184.478 64.4447 184.226 64.6873 183.927 64.818C183.629 64.9393 183.311 65 182.975 65H182.527C182.406 65 182.327 64.9627 182.289 64.888C182.243 64.8133 182.219 64.6967 182.219 64.538C182.219 64.37 182.243 64.244 182.289 64.16C182.327 64.076 182.406 64.034 182.527 64.034H183.031ZM188.771 57.524H187.651V56.544H188.771V57.524ZM189.653 59.204H188.533V58.21H189.653V59.204ZM187.875 59.204H186.755V58.21H187.875V59.204ZM200.069 67.436C200.545 67.436 200.942 67.3893 201.259 67.296C201.586 67.2027 201.852 67.0767 202.057 66.918C202.263 66.7687 202.407 66.596 202.491 66.4C202.585 66.2133 202.631 66.0173 202.631 65.812C202.631 65.588 202.571 65.3967 202.449 65.238C202.337 65.0793 202.141 65 201.861 65H199.523L199.593 64.034H204.563C204.769 64.034 204.871 64.1927 204.871 64.51C204.871 64.8367 204.769 65 204.563 65H203.191C203.313 65.1027 203.392 65.2287 203.429 65.378C203.476 65.5273 203.499 65.6953 203.499 65.882C203.499 66.134 203.443 66.4047 203.331 66.694C203.229 66.9833 203.047 67.254 202.785 67.506C202.533 67.758 202.193 67.968 201.763 68.136C201.343 68.304 200.821 68.388 200.195 68.388H198.795C197.75 68.388 196.938 68.066 196.359 67.422C195.781 66.778 195.491 65.896 195.491 64.776V62.326H196.387V64.748C196.387 65.1493 196.434 65.5133 196.527 65.84C196.63 66.1667 196.784 66.4467 196.989 66.68C197.204 66.9227 197.47 67.1093 197.787 67.24C198.105 67.3707 198.487 67.436 198.935 67.436H200.069ZM200.685 70.894H199.621V69.9H200.685V70.894ZM198.865 70.894H197.787V69.9H198.865V70.894ZM208.094 63.992C208.514 63.2267 208.911 62.5733 209.284 62.032C209.658 61.4907 210.017 61.052 210.362 60.716C210.708 60.3707 211.044 60.1233 211.37 59.974C211.697 59.8153 212.028 59.736 212.364 59.736C212.728 59.736 213.055 59.806 213.344 59.946C213.643 60.086 213.9 60.2773 214.114 60.52C214.329 60.7627 214.492 61.0473 214.604 61.374C214.726 61.7007 214.786 62.0507 214.786 62.424C214.786 62.872 214.67 63.278 214.436 63.642C214.623 63.8287 214.824 63.9407 215.038 63.978C215.262 64.0153 215.524 64.034 215.822 64.034H216.032C216.238 64.034 216.34 64.1927 216.34 64.51C216.34 64.8367 216.238 65 216.032 65H215.822C215.673 65 215.524 65 215.374 65C215.225 64.9907 215.071 64.9673 214.912 64.93C214.763 64.8833 214.609 64.818 214.45 64.734C214.301 64.65 214.156 64.5287 214.016 64.37C213.802 64.5567 213.55 64.7107 213.26 64.832C212.98 64.944 212.654 65 212.28 65H208.388C208.024 65 207.693 64.9393 207.394 64.818C207.096 64.6873 206.853 64.4447 206.666 64.09C206.461 64.4447 206.204 64.6873 205.896 64.818C205.598 64.9393 205.285 65 204.958 65H204.566C204.445 65 204.366 64.9627 204.328 64.888C204.282 64.8133 204.258 64.6967 204.258 64.538C204.258 64.37 204.282 64.244 204.328 64.16C204.366 64.076 204.445 64.034 204.566 64.034H205.014C205.406 64.034 205.71 63.936 205.924 63.74C206.148 63.544 206.26 63.2733 206.26 62.928V60.996H207.17V62.928C207.17 63.2267 207.254 63.4693 207.422 63.656C207.6 63.8333 207.824 63.9453 208.094 63.992ZM213.876 62.424C213.876 62.1813 213.834 61.9573 213.75 61.752C213.676 61.5373 213.568 61.3553 213.428 61.206C213.288 61.0473 213.12 60.926 212.924 60.842C212.738 60.7487 212.532 60.702 212.308 60.702C211.814 60.702 211.296 60.968 210.754 61.5C210.222 62.0227 209.63 62.8673 208.976 64.034H212.308C212.504 64.034 212.696 64.006 212.882 63.95C213.078 63.8847 213.246 63.7867 213.386 63.656C213.536 63.516 213.652 63.348 213.736 63.152C213.83 62.9467 213.876 62.704 213.876 62.424ZM219.565 63.992C219.985 63.2267 220.382 62.5733 220.755 62.032C221.128 61.4907 221.488 61.052 221.833 60.716C222.178 60.3707 222.514 60.1233 222.841 59.974C223.168 59.8153 223.499 59.736 223.835 59.736C224.199 59.736 224.526 59.806 224.815 59.946C225.114 60.086 225.37 60.2773 225.585 60.52C225.8 60.7627 225.963 61.0473 226.075 61.374C226.196 61.7007 226.257 62.0507 226.257 62.424C226.257 62.872 226.14 63.278 225.907 63.642C226.094 63.8287 226.294 63.9407 226.509 63.978C226.733 64.0153 226.994 64.034 227.293 64.034H227.503C227.708 64.034 227.811 64.1927 227.811 64.51C227.811 64.8367 227.708 65 227.503 65H227.293C227.144 65 226.994 65 226.845 65C226.696 64.9907 226.542 64.9673 226.383 64.93C226.234 64.8833 226.08 64.818 225.921 64.734C225.772 64.65 225.627 64.5287 225.487 64.37C225.272 64.5567 225.02 64.7107 224.731 64.832C224.451 64.944 224.124 65 223.751 65H219.859C219.495 65 219.164 64.9393 218.865 64.818C218.566 64.6873 218.324 64.4447 218.137 64.09C217.932 64.4447 217.675 64.6873 217.367 64.818C217.068 64.9393 216.756 65 216.429 65H216.037C215.916 65 215.836 64.9627 215.799 64.888C215.752 64.8133 215.729 64.6967 215.729 64.538C215.729 64.37 215.752 64.244 215.799 64.16C215.836 64.076 215.916 64.034 216.037 64.034H216.485C216.877 64.034 217.18 63.936 217.395 63.74C217.619 63.544 217.731 63.2733 217.731 62.928V60.996H218.641V62.928C218.641 63.2267 218.725 63.4693 218.893 63.656C219.07 63.8333 219.294 63.9453 219.565 63.992ZM225.347 62.424C225.347 62.1813 225.305 61.9573 225.221 61.752C225.146 61.5373 225.039 61.3553 224.899 61.206C224.759 61.0473 224.591 60.926 224.395 60.842C224.208 60.7487 224.003 60.702 223.779 60.702C223.284 60.702 222.766 60.968 222.225 61.5C221.693 62.0227 221.1 62.8673 220.447 64.034H223.779C223.975 64.034 224.166 64.006 224.353 63.95C224.549 63.8847 224.717 63.7867 224.857 63.656C225.006 63.516 225.123 63.348 225.207 63.152C225.3 62.9467 225.347 62.704 225.347 62.424ZM233.57 62.998C233.728 63.39 233.906 63.6607 234.102 63.81C234.307 63.9593 234.582 64.034 234.928 64.034H235.852C235.973 64.034 236.052 64.076 236.09 64.16C236.136 64.2347 236.16 64.3513 236.16 64.51C236.16 64.678 236.136 64.804 236.09 64.888C236.052 64.9627 235.973 65 235.852 65H234.858C234.55 65 234.288 64.958 234.074 64.874C233.868 64.79 233.691 64.678 233.542 64.538C233.402 64.3887 233.28 64.216 233.178 64.02C233.084 63.824 232.996 63.6093 232.912 63.376L231.554 64.174C231.311 64.314 231.078 64.44 230.854 64.552C230.63 64.6547 230.387 64.7387 230.126 64.804C229.864 64.8693 229.575 64.9207 229.258 64.958C228.95 64.986 228.595 65 228.194 65H227.508C227.386 65 227.307 64.9627 227.27 64.888C227.223 64.8133 227.2 64.6967 227.2 64.538C227.2 64.37 227.223 64.244 227.27 64.16C227.307 64.076 227.386 64.034 227.508 64.034H228.208C228.572 64.034 228.894 64.0247 229.174 64.006C229.454 63.978 229.71 63.9407 229.944 63.894C230.177 63.838 230.396 63.768 230.602 63.684C230.807 63.6 231.017 63.4927 231.232 63.362L233.598 61.99C233.523 61.794 233.444 61.6167 233.36 61.458C233.276 61.29 233.168 61.15 233.038 61.038C232.916 60.926 232.762 60.842 232.576 60.786C232.389 60.7207 232.156 60.688 231.876 60.688H228.74L228.824 59.722H232.002C232.244 59.722 232.492 59.75 232.744 59.806C233.005 59.862 233.248 59.9833 233.472 60.17C233.705 60.3473 233.92 60.6133 234.116 60.968C234.321 61.3227 234.489 61.794 234.62 62.382L233.57 62.998ZM231.61 58.14H230.434V57.118H231.61V58.14ZM237.108 64.034C237.472 64.034 237.761 63.936 237.976 63.74C238.2 63.544 238.312 63.2733 238.312 62.928V60.996H239.222V62.928C239.222 63.5907 239.035 64.104 238.662 64.468C238.298 64.8227 237.798 65 237.164 65H235.848C235.726 65 235.647 64.9627 235.61 64.888C235.563 64.8133 235.54 64.6967 235.54 64.538C235.54 64.37 235.563 64.244 235.61 64.16C235.647 64.076 235.726 64.034 235.848 64.034H237.108ZM239.362 59.204H238.242V58.21H239.362V59.204ZM237.584 59.204H236.464V58.21H237.584V59.204ZM245.595 64.776C245.595 65.3173 245.511 65.8073 245.343 66.246C245.175 66.694 244.942 67.0767 244.643 67.394C244.345 67.7113 243.995 67.954 243.593 68.122C243.192 68.2993 242.753 68.388 242.277 68.388H241.451L241.381 67.436H242.067C242.534 67.436 242.935 67.3613 243.271 67.212C243.607 67.0627 243.883 66.862 244.097 66.61C244.312 66.3673 244.471 66.0873 244.573 65.77C244.676 65.4527 244.727 65.1213 244.727 64.776V60.996H245.623V62.97C245.623 63.2967 245.731 63.558 245.945 63.754C246.169 63.9407 246.459 64.034 246.813 64.034H246.967C247.173 64.034 247.275 64.1927 247.275 64.51C247.275 64.8367 247.173 65 246.967 65H246.813C246.589 65 246.365 64.958 246.141 64.874C245.927 64.79 245.745 64.6453 245.595 64.44V64.776ZM245.679 59.204H244.503V58.182H245.679V59.204ZM250.659 64.034C251.079 64.034 251.368 63.95 251.527 63.782C251.686 63.6047 251.765 63.3947 251.765 63.152C251.765 62.9933 251.737 62.816 251.681 62.62C251.625 62.424 251.471 62.2 251.219 61.948L248.195 58.938V57.944L252.829 56.11L253.067 57.02L249.091 58.574L251.625 61.108C251.849 61.3413 252.031 61.5513 252.171 61.738C252.32 61.9247 252.437 62.102 252.521 62.27C252.605 62.438 252.661 62.6013 252.689 62.76C252.717 62.9187 252.731 63.0867 252.731 63.264C252.731 63.5627 252.68 63.824 252.577 64.048C252.484 64.2627 252.348 64.44 252.171 64.58C251.994 64.72 251.784 64.8273 251.541 64.902C251.298 64.9673 251.032 65 250.743 65H246.963C246.842 65 246.762 64.9627 246.725 64.888C246.678 64.8133 246.655 64.6967 246.655 64.538C246.655 64.37 246.678 64.244 246.725 64.16C246.762 64.076 246.842 64.034 246.963 64.034H250.659ZM255.89 64.776C255.89 65.3173 255.806 65.8073 255.638 66.246C255.47 66.694 255.237 67.0767 254.938 67.394C254.64 67.7113 254.29 67.954 253.888 68.122C253.487 68.2993 253.048 68.388 252.572 68.388H251.746L251.676 67.436H252.362C252.829 67.436 253.23 67.3613 253.566 67.212C253.902 67.0627 254.178 66.862 254.392 66.61C254.607 66.3673 254.766 66.0873 254.868 65.77C254.971 65.4527 255.022 65.1213 255.022 64.776V60.996H255.918V62.97C255.918 63.2967 256.026 63.558 256.24 63.754C256.464 63.9407 256.754 64.034 257.108 64.034H257.262C257.468 64.034 257.57 64.1927 257.57 64.51C257.57 64.8367 257.468 65 257.262 65H257.108C256.884 65 256.66 64.958 256.436 64.874C256.222 64.79 256.04 64.6453 255.89 64.44V64.776ZM257.482 64.034C257.846 64.034 258.121 63.9453 258.308 63.768C258.494 63.5907 258.588 63.3527 258.588 63.054V62.522C258.588 61.71 258.793 61.0753 259.204 60.618C259.624 60.1607 260.202 59.932 260.94 59.932C261.322 59.932 261.658 59.9927 261.948 60.114C262.237 60.2353 262.475 60.408 262.662 60.632C262.858 60.856 263.002 61.122 263.096 61.43C263.189 61.738 263.236 62.0787 263.236 62.452C263.236 63.2547 263.026 63.88 262.606 64.328C262.186 64.776 261.612 65 260.884 65C260.51 65 260.151 64.93 259.806 64.79C259.46 64.6407 259.19 64.3793 258.994 64.006C258.91 64.2207 258.807 64.3933 258.686 64.524C258.564 64.6547 258.438 64.7573 258.308 64.832C258.177 64.8973 258.037 64.944 257.888 64.972C257.748 64.9907 257.612 65 257.482 65H257.258C257.136 65 257.057 64.9627 257.02 64.888C256.973 64.8133 256.95 64.6967 256.95 64.538C256.95 64.37 256.973 64.244 257.02 64.16C257.057 64.076 257.136 64.034 257.258 64.034H257.482ZM262.34 62.536C262.34 62.0507 262.232 61.6587 262.018 61.36C261.803 61.052 261.434 60.898 260.912 60.898C259.941 60.898 259.456 61.4627 259.456 62.592C259.456 63.068 259.586 63.4273 259.848 63.67C260.118 63.9127 260.464 64.034 260.884 64.034C261.36 64.034 261.719 63.9033 261.962 63.642C262.214 63.3807 262.34 63.012 262.34 62.536ZM268.216 67.436C268.627 67.436 268.986 67.3707 269.294 67.24C269.611 67.1093 269.877 66.932 270.092 66.708C270.307 66.484 270.47 66.2227 270.582 65.924C270.694 65.6347 270.759 65.3267 270.778 65H269.378C268.902 65 268.51 64.9487 268.202 64.846C267.894 64.7433 267.651 64.594 267.474 64.398C267.297 64.202 267.171 63.9687 267.096 63.698C267.031 63.418 266.998 63.1053 266.998 62.76C266.998 62.4053 267.049 62.0693 267.152 61.752C267.255 61.4347 267.404 61.1547 267.6 60.912C267.796 60.6693 268.039 60.478 268.328 60.338C268.627 60.1887 268.967 60.114 269.35 60.114C269.658 60.114 269.952 60.1653 270.232 60.268C270.512 60.3707 270.759 60.534 270.974 60.758C271.189 60.9727 271.357 61.2573 271.478 61.612C271.609 61.9573 271.674 62.3773 271.674 62.872V64.776C271.674 65.252 271.595 65.7093 271.436 66.148C271.287 66.5867 271.067 66.9693 270.778 67.296C270.489 67.632 270.134 67.898 269.714 68.094C269.294 68.29 268.823 68.388 268.3 68.388H266.816L266.732 67.436H268.216ZM267.866 62.704C267.866 62.9373 267.889 63.138 267.936 63.306C267.992 63.474 268.081 63.614 268.202 63.726C268.333 63.8287 268.505 63.908 268.72 63.964C268.935 64.0107 269.205 64.034 269.532 64.034H270.792V62.984C270.792 62.2933 270.657 61.7987 270.386 61.5C270.115 61.2013 269.742 61.052 269.266 61.052C268.818 61.052 268.473 61.2013 268.23 61.5C267.987 61.7987 267.866 62.2 267.866 62.704ZM279.899 67.436C280.375 67.436 280.772 67.3893 281.089 67.296C281.416 67.2027 281.682 67.0767 281.887 66.918C282.093 66.7687 282.237 66.596 282.321 66.4C282.415 66.2133 282.461 66.0173 282.461 65.812C282.461 65.588 282.401 65.3967 282.279 65.238C282.167 65.0793 281.971 65 281.691 65H279.353L279.423 64.034H284.393C284.599 64.034 284.701 64.1927 284.701 64.51C284.701 64.8367 284.599 65 284.393 65H283.021C283.143 65.1027 283.222 65.2287 283.259 65.378C283.306 65.5273 283.329 65.6953 283.329 65.882C283.329 66.134 283.273 66.4047 283.161 66.694C283.059 66.9833 282.877 67.254 282.615 67.506C282.363 67.758 282.023 67.968 281.593 68.136C281.173 68.304 280.651 68.388 280.025 68.388H278.625C277.58 68.388 276.768 68.066 276.189 67.422C275.611 66.778 275.321 65.896 275.321 64.776V62.326H276.217V64.748C276.217 65.1493 276.264 65.5133 276.357 65.84C276.46 66.1667 276.614 66.4467 276.819 66.68C277.034 66.9227 277.3 67.1093 277.617 67.24C277.935 67.3707 278.317 67.436 278.765 67.436H279.899ZM280.515 70.894H279.451V69.9H280.515V70.894ZM278.695 70.894H277.617V69.9H278.695V70.894ZM284.62 64.034C284.984 64.034 285.26 63.9453 285.446 63.768C285.633 63.5907 285.726 63.3527 285.726 63.054V62.522C285.726 61.71 285.932 61.0753 286.342 60.618C286.762 60.1607 287.341 59.932 288.078 59.932C288.461 59.932 288.797 59.9927 289.086 60.114C289.376 60.2353 289.614 60.408 289.8 60.632C289.996 60.856 290.141 61.122 290.234 61.43C290.328 61.738 290.374 62.0787 290.374 62.452C290.374 63.2547 290.164 63.88 289.744 64.328C289.324 64.776 288.75 65 288.022 65C287.649 65 287.29 64.93 286.944 64.79C286.599 64.6407 286.328 64.3793 286.132 64.006C286.048 64.2207 285.946 64.3933 285.824 64.524C285.703 64.6547 285.577 64.7573 285.446 64.832C285.316 64.8973 285.176 64.944 285.026 64.972C284.886 64.9907 284.751 65 284.62 65H284.396C284.275 65 284.196 64.9627 284.158 64.888C284.112 64.8133 284.088 64.6967 284.088 64.538C284.088 64.37 284.112 64.244 284.158 64.16C284.196 64.076 284.275 64.034 284.396 64.034H284.62ZM289.478 62.536C289.478 62.0507 289.371 61.6587 289.156 61.36C288.942 61.052 288.573 60.898 288.05 60.898C287.08 60.898 286.594 61.4627 286.594 62.592C286.594 63.068 286.725 63.4273 286.986 63.67C287.257 63.9127 287.602 64.034 288.022 64.034C288.498 64.034 288.858 63.9033 289.1 63.642C289.352 63.3807 289.478 63.012 289.478 62.536ZM297.086 61.668C297.329 61.9387 297.501 62.2093 297.604 62.48C297.716 62.7413 297.772 62.998 297.772 63.25C297.772 63.754 297.59 64.174 297.226 64.51C296.871 64.8367 296.363 65 295.7 65H291.794L291.724 64.034H295.588C295.952 64.034 296.232 63.95 296.428 63.782C296.633 63.614 296.736 63.3947 296.736 63.124C296.736 62.9933 296.703 62.8487 296.638 62.69C296.573 62.5313 296.475 62.382 296.344 62.242L293.74 59.302L294.454 58.63L297.086 61.668ZM301.307 65C301.064 65 300.831 64.9673 300.607 64.902C300.383 64.8273 300.182 64.706 300.005 64.538C299.837 64.37 299.701 64.1507 299.599 63.88C299.496 63.6 299.445 63.2547 299.445 62.844V56.32H300.355V62.676C300.355 63.068 300.439 63.3947 300.607 63.656C300.784 63.908 301.069 64.034 301.461 64.034H301.699C301.904 64.034 302.007 64.1927 302.007 64.51C302.007 64.8367 301.904 65 301.699 65H301.307ZM305.401 64.034C305.821 64.034 306.11 63.95 306.269 63.782C306.428 63.6047 306.507 63.3947 306.507 63.152C306.507 62.9933 306.479 62.816 306.423 62.62C306.367 62.424 306.213 62.2 305.961 61.948L302.937 58.938V57.944L307.571 56.11L307.809 57.02L303.833 58.574L306.367 61.108C306.591 61.3413 306.773 61.5513 306.913 61.738C307.062 61.9247 307.179 62.102 307.263 62.27C307.347 62.438 307.403 62.6013 307.431 62.76C307.459 62.9187 307.473 63.0867 307.473 63.264C307.473 63.5627 307.422 63.824 307.319 64.048C307.226 64.2627 307.09 64.44 306.913 64.58C306.736 64.72 306.526 64.8273 306.283 64.902C306.04 64.9673 305.774 65 305.485 65H301.705C301.584 65 301.504 64.9627 301.467 64.888C301.42 64.8133 301.397 64.6967 301.397 64.538C301.397 64.37 301.42 64.244 301.467 64.16C301.504 64.076 301.584 64.034 301.705 64.034H305.401ZM310.109 58.238H311.019V65H310.109V58.238ZM309.871 56.698C309.693 56.698 309.549 56.7167 309.437 56.754C309.334 56.7913 309.245 56.9033 309.171 57.09L308.877 57.72L308.275 57.454L308.639 56.642C308.723 56.474 308.802 56.3387 308.877 56.236C308.951 56.124 309.035 56.04 309.129 55.984C309.213 55.928 309.311 55.8907 309.423 55.872C309.544 55.8533 309.684 55.844 309.843 55.844H312.419L312.377 56.698H309.871Z"
        fill="#E1E1E1" />
</svg>