<svg width="328" height="88" viewBox="0 0 328 88" fill="none" xmlns="http://www.w3.org/2000/svg">
    <rect width="328" height="88" rx="20" fill="#753418" />
    <mask id="mask0_380_3135" style="mask-type:alpha" maskUnits="userSpaceOnUse" x="0" y="0"
        width="328" height="88">
        <rect width="328" height="88" rx="20" fill="#150904" />
    </mask>
    <g mask="url(#mask0_380_3135)">
        <path
            d="M60.776 36.2578H60.7471V63.375C60.7471 75.0243 51.303 84.4683 39.6537 84.4683H36.6445V58.0175C36.6445 45.9988 46.3873 36.2578 58.4042 36.2578H60.7471"
            fill="#D9B88B" />
        <path
            d="M31.7589 103.997H-7.30273V35.8434C-7.30273 24.1325 -2.74186 13.1223 5.53795 4.84249C13.8178 -3.43732 24.828 -8 36.5388 -8C48.2497 -8 59.2617 -3.43913 67.5397 4.84249C75.5661 12.8652 80.1215 23.5259 80.3695 34.862C80.3714 34.9163 80.3732 34.9743 80.3732 35.0286C80.3768 35.101 80.3768 35.1735 80.3786 35.2459V35.4378C80.3822 35.5736 80.3822 35.7076 80.3822 35.8434H77.7895C77.7895 35.6442 77.7877 35.445 77.7822 35.2477C77.6301 29.3271 75.2402 23.7595 71.0486 19.5698C66.7032 15.2226 60.9238 12.829 54.7751 12.829C42.0847 12.829 31.7607 23.153 31.7607 35.8434V103.997H31.7589ZM-4.70997 101.405H29.1643V35.8434C29.1643 21.7226 40.6525 10.2344 54.7733 10.2344C61.6155 10.2344 68.0467 12.8978 72.881 17.7357C73.4006 18.2553 73.8931 18.7913 74.362 19.3471C72.3233 14.6722 69.4064 10.3775 65.7038 6.67662C57.9146 -1.11434 47.5563 -5.40543 36.537 -5.40543C13.7924 -5.40543 -4.71178 13.0988 -4.71178 35.8434V101.405H-4.70997Z"
            fill="#D9B88B" />
        <path
            d="M31.7665 103.997H4.85938V35.8424C4.85938 15.0188 21.801 -1.92285 42.6246 -1.92285C52.7132 -1.92285 62.1952 2.00612 69.3271 9.13984C76.2037 16.0146 80.1273 25.1472 80.3772 34.8574C80.379 34.9226 80.3808 34.9914 80.3808 35.0566V35.1073C80.3808 35.1326 80.3826 35.1562 80.3826 35.1797C80.3862 35.2431 80.388 35.3083 80.388 35.3698V35.4368C80.3898 35.5726 80.3898 35.7066 80.3898 35.8424H77.7971C77.7971 35.645 77.7953 35.4459 77.7898 35.2485C77.6377 29.3261 75.2478 23.7585 71.0563 19.5688C66.7108 15.2216 60.9314 12.828 54.7827 12.828C42.0923 12.828 31.7683 23.152 31.7683 35.8424V103.997H31.7665ZM7.45395 101.404H29.1719V35.8424C29.1719 21.7216 40.6601 10.2334 54.7809 10.2334C61.5036 10.2334 67.828 12.8045 72.6333 17.4812C71.1975 15.1419 69.4774 12.9566 67.493 10.974C60.8518 4.32911 52.0197 0.671721 42.6246 0.671721C23.2314 0.671721 7.45395 16.4492 7.45395 35.8424V101.404Z"
            fill="#D9B88B" />
        <path
            d="M31.749 103.998H17V35.8443C17 18.3721 31.2149 4.15723 48.6871 4.15723C57.1516 4.15723 65.1091 7.45249 71.0931 13.4383C76.8653 19.2104 80.1569 26.8765 80.3633 35.0259V35.1092C80.3651 35.1382 80.3651 35.1653 80.3669 35.1925C80.3687 35.274 80.3724 35.3555 80.3724 35.4387C80.3742 35.5745 80.3742 35.7085 80.3742 35.8443H77.7814C77.7814 35.6451 77.7796 35.4478 77.7742 35.2486C77.6221 29.3262 75.2303 23.7586 71.0406 19.5708C66.6952 15.2235 60.9158 12.8299 54.767 12.8299C42.0766 12.8299 31.7527 23.1539 31.7527 35.8443V103.998H31.749ZM19.5928 101.406H29.1545V35.8443C29.1545 21.7235 40.6427 10.2354 54.7634 10.2354C59.2537 10.2354 63.5665 11.3833 67.3669 13.5379C62.1379 9.14358 55.5963 6.74999 48.6853 6.74999C32.6435 6.74999 19.5928 19.8007 19.5928 35.8425V101.404V101.406Z"
            fill="#D9B88B" />
        <path
            d="M39.1333 73.2712L46.2579 68.522L39.1333 63.7729C37.8785 62.9364 37.243 62.9364 35.9883 63.7729V73.2712C37.243 74.1077 37.8785 74.1077 39.1333 73.2712Z"
            fill="#C1272D" />
        <path
            d="M53.9236 103.998H43.4674C42.7504 103.998 42.171 103.417 42.171 102.702C42.171 101.987 42.7522 101.406 43.4674 101.406C44.7873 101.406 46.1018 101.245 47.3729 100.926C54.4975 99.1406 59.473 92.7547 59.473 85.3983V37.5553H57.8018C46.8478 37.5553 37.9343 46.467 37.9343 57.4229V63.8758C37.9343 63.8921 37.9343 63.9084 37.9343 63.9247C37.9162 64.419 37.9053 64.9241 37.9053 65.4293V102.704C37.9053 103.421 37.3241 104 36.6089 104H30.4565C29.7395 104 29.1602 103.419 29.1602 102.704V36.1322C29.1602 29.1741 31.9014 22.6216 36.8805 17.6805C41.7691 12.8299 48.1894 10.1828 54.9646 10.2371C61.7326 10.2878 68.0932 12.9512 72.8768 17.7366C77.5391 22.3971 80.2006 28.5929 80.369 35.1834C80.3744 35.4061 80.3762 35.6252 80.3762 35.8443V77.5475C80.3762 92.1336 68.5096 104 53.9236 104V103.998ZM52.9639 101.406H53.9236C67.0793 101.406 77.7817 90.7033 77.7817 77.5475V35.8443C77.7817 35.6451 77.7799 35.446 77.7744 35.2468C77.6241 29.328 75.2324 23.7586 71.0409 19.5707C66.7425 15.2688 61.0247 12.8752 54.9429 12.8299C54.885 12.8299 54.8289 12.8299 54.7709 12.8299C48.7561 12.8299 43.0564 15.2018 38.7056 19.5218C34.2207 23.9723 31.7511 29.8712 31.7511 36.1322V101.406H35.3107V65.4275C35.3107 64.8988 35.3198 64.3683 35.3397 63.8486V57.4211C35.3397 45.0366 45.4156 34.9607 57.8 34.9607H60.7694C61.4864 34.9607 62.0658 35.5419 62.0658 36.2571V85.3983C62.0658 92.1083 58.5007 98.1249 52.9621 101.404L52.9639 101.406Z"
            fill="#D9B88B" />
        <path
            d="M74.7543 39.7981L71.4608 42.7059L68.1674 45.6119C66.8529 46.7762 64.7689 46.0755 64.4213 44.3554L63.5504 40.048L62.7229 35.9579C62.3373 35.8257 61.9733 35.5958 61.6855 35.2681C61.394 34.9403 61.2093 34.5529 61.1296 34.1527L57.1735 32.8238L53.0091 31.4242C51.3434 30.8647 50.9088 28.7137 52.227 27.5513L55.5204 24.6435L58.8139 21.7357C60.132 20.5733 62.2123 21.274 62.56 22.9959L63.4309 27.3015L64.2583 31.3916C64.6476 31.5201 65.0079 31.7519 65.2994 32.0814C65.5891 32.4128 65.7738 32.7984 65.8534 33.2004L69.8096 34.5293L73.9739 35.9271C75.6397 36.4866 76.0742 38.6412 74.7561 39.8018L74.7543 39.7981Z"
            fill="#C1272D" />
    </g>
    <path
        d="M121.454 33.98H126.214C126.508 33.98 126.754 33.9 126.954 33.74C127.154 33.5667 127.254 33.3333 127.254 33.04C127.254 32.96 127.214 32.7867 127.134 32.52L125.234 27.36L127.954 26.34L130.414 33.16C130.641 33.7067 131.001 33.98 131.494 33.98H131.614C131.748 33.98 131.814 34.0467 131.814 34.18V36.8C131.814 36.9333 131.748 37 131.614 37H131.354C130.808 37 130.321 36.8933 129.894 36.68C129.468 36.4667 129.148 36.2 128.934 35.88C128.508 36.3067 128.101 36.6 127.714 36.76C127.328 36.92 126.828 37 126.214 37H121.454V33.98ZM131.609 37C131.476 37 131.409 36.9333 131.409 36.8V34.18C131.409 34.0467 131.476 33.98 131.609 33.98H133.769C134.023 33.98 134.236 33.8867 134.409 33.7C134.596 33.5133 134.689 33.2933 134.689 33.04V28.94H137.549V33.22C137.549 33.9 137.383 34.5333 137.049 35.12C136.716 35.6933 136.263 36.1533 135.689 36.5C135.116 36.8333 134.483 37 133.789 37H131.609ZM131.629 38.72H134.189V41.28H131.629V38.72ZM135.229 38.72H137.809V41.28H135.229V38.72ZM139.169 33.98H143.929C144.222 33.98 144.469 33.9 144.669 33.74C144.869 33.5667 144.969 33.3333 144.969 33.04C144.969 32.96 144.929 32.7867 144.849 32.52L142.949 27.36L145.669 26.34L148.129 33.16C148.356 33.7067 148.716 33.98 149.209 33.98H149.329C149.462 33.98 149.529 34.0467 149.529 34.18V36.8C149.529 36.9333 149.462 37 149.329 37H149.069C148.522 37 148.036 36.8933 147.609 36.68C147.182 36.4667 146.862 36.2 146.649 35.88C146.222 36.3067 145.816 36.6 145.429 36.76C145.042 36.92 144.542 37 143.929 37H139.169V33.98ZM155.724 37.04C154.938 37.04 154.224 36.8467 153.584 36.46C152.958 36.06 152.464 35.5267 152.104 34.86C151.744 34.1933 151.564 33.46 151.564 32.66V31.36H150.324V28.5H155.724C156.524 28.5 157.258 28.68 157.924 29.04C158.591 29.4 159.118 29.9 159.504 30.54C159.904 31.1667 160.104 31.8733 160.104 32.66C160.104 33.4467 159.904 34.18 159.504 34.86C159.118 35.5267 158.584 36.06 157.904 36.46C157.238 36.8467 156.511 37.04 155.724 37.04ZM149.324 37C149.191 37 149.124 36.9333 149.124 36.8V34.18C149.124 34.0467 149.191 33.98 149.324 33.98H150.644C150.898 33.98 151.111 33.8933 151.284 33.72C151.471 33.5333 151.564 33.3067 151.564 33.04V31.76H153.864V33.22C153.864 34.3133 153.578 35.22 153.004 35.94C152.444 36.6467 151.658 37 150.644 37H149.324ZM155.724 34.02C156.111 34.02 156.431 33.8933 156.684 33.64C156.938 33.3733 157.064 33.0467 157.064 32.66C157.064 32.2867 156.938 31.98 156.684 31.74C156.431 31.4867 156.111 31.36 155.724 31.36H154.404V32.66C154.404 33.0467 154.524 33.3733 154.764 33.64C155.018 33.8933 155.338 34.02 155.724 34.02ZM161.474 24.32H164.354V37H161.474V24.32ZM158.694 22.56C158.694 21.9467 158.894 21.46 159.294 21.1C159.681 20.7267 160.161 20.54 160.734 20.54H165.794V22.72H161.114C160.954 22.72 160.828 22.7667 160.734 22.86C160.641 22.94 160.594 23.0667 160.594 23.24V24.2H158.694V22.56ZM175.903 40.52C174.743 40.52 173.67 40.2267 172.683 39.64C171.696 39.0667 170.91 38.2867 170.323 37.3C169.75 36.3133 169.463 35.24 169.463 34.08V30.34H172.343V33.92C172.343 34.56 172.503 35.1533 172.823 35.7C173.143 36.2467 173.576 36.68 174.123 37C174.67 37.32 175.263 37.48 175.903 37.48C176.556 37.48 177.156 37.32 177.703 37C178.263 36.68 178.703 36.2467 179.023 35.7C179.343 35.1533 179.503 34.56 179.503 33.92V29.54H182.283V34.08C182.283 35.24 181.996 36.3133 181.423 37.3C180.863 38.2867 180.096 39.0667 179.123 39.64C178.15 40.2267 177.076 40.52 175.903 40.52ZM183.323 37.04C182.336 37.04 181.65 36.7067 181.263 36.04C180.89 35.36 180.703 34.4333 180.703 33.26V29.54H182.403V33.08C182.403 33.3467 182.49 33.5733 182.663 33.76C182.85 33.9333 183.07 34.02 183.323 34.02C183.59 34.02 183.81 33.9333 183.983 33.76C184.156 33.5733 184.243 33.3467 184.243 33.08V29.54H186.543V33.26C186.543 34.3533 186.263 35.26 185.703 35.98C185.143 36.6867 184.35 37.04 183.323 37.04ZM188.023 37C187.01 37 186.223 36.6467 185.663 35.94C185.103 35.22 184.823 34.3133 184.823 33.22V29.54H187.123V33.04C187.123 33.3067 187.21 33.5333 187.383 33.72C187.556 33.8933 187.77 33.98 188.023 33.98H188.743V28.94H191.623V37H188.023ZM182.603 25.3H185.183V27.86H182.603V25.3ZM186.223 25.3H188.783V27.86H186.223V25.3ZM184.423 21.72H187.003V24.28H184.423V21.72ZM194.634 40.14C195.821 39.6333 196.701 39.22 197.274 38.9C197.861 38.58 198.261 38.28 198.474 38C198.688 37.72 198.794 37.3867 198.794 37H197.494C196.694 37 195.961 36.82 195.294 36.46C194.628 36.1 194.094 35.6067 193.694 34.98C193.308 34.34 193.114 33.6267 193.114 32.84C193.114 32.04 193.308 31.3067 193.694 30.64C194.094 29.9733 194.628 29.4467 195.294 29.06C195.961 28.66 196.694 28.46 197.494 28.46C198.268 28.46 198.974 28.66 199.614 29.06C200.254 29.4467 200.754 29.9733 201.114 30.64C201.474 31.3067 201.654 32.04 201.654 32.84V35.76C201.654 37 201.461 38 201.074 38.76C200.701 39.5333 200.088 40.2 199.234 40.76C198.394 41.3333 197.161 41.9733 195.534 42.68L194.634 40.14ZM197.494 34.16H198.794V32.82C198.794 32.4333 198.668 32.1133 198.414 31.86C198.174 31.6067 197.868 31.48 197.494 31.48C197.108 31.48 196.781 31.6067 196.514 31.86C196.261 32.1133 196.134 32.4333 196.134 32.82C196.134 33.2067 196.261 33.5267 196.514 33.78C196.781 34.0333 197.108 34.16 197.494 34.16ZM201.514 33.98H202.474C202.608 33.98 202.674 34.0467 202.674 34.18V36.8C202.674 36.9333 202.608 37 202.474 37H201.514V33.98ZM202.469 37C202.335 37 202.269 36.9333 202.269 36.8V34.18C202.269 34.0467 202.335 33.98 202.469 33.98H206.629C207.669 33.98 208.535 33.66 209.229 33.02L211.169 31.26L208.389 29.92C208.122 29.8133 207.922 29.76 207.789 29.76C207.615 29.76 207.442 29.8 207.269 29.88C207.109 29.96 206.969 30.0667 206.849 30.2L205.009 32.24L203.009 30.48L204.849 28.24C205.235 27.8 205.682 27.4733 206.189 27.26C206.709 27.0333 207.235 26.92 207.769 26.92C208.142 26.92 208.455 26.9667 208.709 27.06C208.975 27.14 209.242 27.2467 209.509 27.38L213.809 29.38C213.889 29.42 213.995 29.44 214.129 29.44H216.269V32.24H214.049L210.809 35.26C210.195 35.8333 209.489 36.2667 208.689 36.56C207.889 36.8533 207.062 37 206.209 37H202.469ZM206.509 22.8H209.069V25.36H206.509V22.8ZM225 37C224.307 37 223.674 36.8333 223.1 36.5C222.527 36.1533 222.074 35.6933 221.74 35.12C221.407 34.5333 221.24 33.9 221.24 33.22V23.52H224.12V33.04C224.12 33.3067 224.207 33.5333 224.38 33.72C224.554 33.8933 224.767 33.98 225.02 33.98H226.12C226.254 33.98 226.32 34.0467 226.32 34.18V36.8C226.32 36.9333 226.254 37 226.12 37H225ZM232.521 37.04C231.734 37.04 231.021 36.8467 230.381 36.46C229.754 36.06 229.261 35.5267 228.901 34.86C228.541 34.1933 228.361 33.46 228.361 32.66V31.36H227.121V28.5H232.521C233.321 28.5 234.054 28.68 234.721 29.04C235.388 29.4 235.914 29.9 236.301 30.54C236.701 31.1667 236.901 31.8733 236.901 32.66C236.901 33.4467 236.701 34.18 236.301 34.86C235.914 35.5267 235.381 36.06 234.701 36.46C234.034 36.8467 233.308 37.04 232.521 37.04ZM226.121 37C225.988 37 225.921 36.9333 225.921 36.8V34.18C225.921 34.0467 225.988 33.98 226.121 33.98H227.441C227.694 33.98 227.908 33.8933 228.081 33.72C228.268 33.5333 228.361 33.3067 228.361 33.04V31.76H230.661V33.22C230.661 34.3133 230.374 35.22 229.801 35.94C229.241 36.6467 228.454 37 227.441 37H226.121ZM232.521 34.02C232.908 34.02 233.228 33.8933 233.481 33.64C233.734 33.3733 233.861 33.0467 233.861 32.66C233.861 32.2867 233.734 31.98 233.481 31.74C233.228 31.4867 232.908 31.36 232.521 31.36H231.201V32.66C231.201 33.0467 231.321 33.3733 231.561 33.64C231.814 33.8933 232.134 34.02 232.521 34.02ZM241.885 32.6C241.885 31.8667 242.065 31.1867 242.425 30.56C242.798 29.9333 243.298 29.4333 243.925 29.06C244.552 28.6867 245.232 28.5 245.965 28.5H250.545C251.345 28.5 252.078 28.68 252.745 29.04C253.412 29.4 253.938 29.9 254.325 30.54C254.725 31.1667 254.925 31.8733 254.925 32.66C254.925 33.4467 254.725 34.18 254.325 34.86C253.938 35.5267 253.405 36.06 252.725 36.46C252.058 36.8467 251.332 37.04 250.545 37.04C249.758 37.04 249.045 36.8467 248.405 36.46C247.778 36.06 247.285 35.5267 246.925 34.86C246.565 34.1933 246.385 33.46 246.385 32.66V31.36H245.985C245.652 31.36 245.365 31.4867 245.125 31.74C244.885 31.98 244.765 32.2667 244.765 32.6V42.02H241.885V32.6ZM250.545 34.02C250.932 34.02 251.252 33.8933 251.505 33.64C251.772 33.3733 251.905 33.0467 251.905 32.66C251.905 32.2867 251.772 31.9733 251.505 31.72C251.252 31.4667 250.932 31.34 250.545 31.34H249.225V32.66C249.225 33.0467 249.352 33.3733 249.605 33.64C249.858 33.8933 250.172 34.02 250.545 34.02ZM253.542 40.26C254.489 39.7133 255.162 39.2733 255.562 38.94C255.962 38.6067 256.229 38.2467 256.362 37.86C256.495 37.4733 256.562 36.9133 256.562 36.18V29.54H259.442V36.18C259.442 37.3 259.302 38.22 259.022 38.94C258.742 39.66 258.262 40.3 257.582 40.86C256.902 41.4333 255.915 42.04 254.622 42.68L253.542 40.26ZM260.362 37C259.349 37 258.602 36.6533 258.122 35.96C257.655 35.2667 257.422 34.3533 257.422 33.22V29.54H259.442V33.04C259.442 33.3067 259.529 33.5333 259.702 33.72C259.875 33.8933 260.095 33.98 260.362 33.98H261.202C261.335 33.98 261.402 34.0467 261.402 34.18V36.8C261.402 36.9333 261.335 37 261.202 37H260.362ZM261.919 32.56C261.919 31.76 262.113 31.04 262.499 30.4C262.899 29.7467 263.433 29.2333 264.099 28.86C264.779 28.4867 265.519 28.3 266.319 28.3C267.119 28.3 267.853 28.4867 268.519 28.86C269.186 29.2333 269.713 29.7467 270.099 30.4C270.499 31.04 270.699 31.76 270.699 32.56C270.699 33.3733 270.506 34.1 270.119 34.74C269.733 35.3667 269.199 35.86 268.519 36.22C267.853 36.5667 267.119 36.74 266.319 36.74C265.506 36.74 264.766 36.5667 264.099 36.22C263.433 35.86 262.899 35.3667 262.499 34.74C262.113 34.1 261.919 33.3733 261.919 32.56ZM261.199 37C261.066 37 260.999 36.9333 260.999 36.8V34.18C260.999 34.0467 261.066 33.98 261.199 33.98H271.439C271.573 33.98 271.639 34.0467 271.639 34.18V36.8C271.639 36.9333 271.573 37 271.439 37H261.199ZM264.959 32.66C264.959 33.0333 265.086 33.3467 265.339 33.6C265.606 33.8533 265.933 33.98 266.319 33.98C266.706 33.98 267.026 33.8533 267.279 33.6C267.533 33.3467 267.659 33.0333 267.659 32.66C267.659 32.2867 267.533 31.9733 267.279 31.72C267.026 31.4667 266.706 31.34 266.319 31.34C265.933 31.34 265.606 31.4667 265.339 31.72C265.086 31.9733 264.959 32.2867 264.959 32.66ZM265.039 24.18H267.599V26.74H265.039V24.18ZM271.234 34.18C271.234 34.0467 271.3 33.98 271.434 33.98H272.734C273 33.98 273.22 33.8933 273.394 33.72C273.567 33.5333 273.654 33.3067 273.654 33.04V29.54H276.534V33.04C276.534 33.3067 276.62 33.5333 276.794 33.72C276.967 33.8933 277.187 33.98 277.454 33.98H278.754C278.887 33.98 278.954 34.0467 278.954 34.18V36.8C278.954 36.9333 278.887 37 278.754 37H277.454C276.467 37 275.68 36.6733 275.094 36.02C274.48 36.6733 273.694 37 272.734 37H271.434C271.3 37 271.234 36.9333 271.234 36.8V34.18ZM272.014 25.24H274.574V27.8H272.014V25.24ZM275.614 25.24H278.194V27.8H275.614V25.24ZM278.758 37C278.624 37 278.558 36.9333 278.558 36.8V34.18C278.558 34.0467 278.624 33.98 278.758 33.98H279.598C279.864 33.98 280.084 33.8933 280.258 33.72C280.444 33.5333 280.538 33.3067 280.538 33.04V23.52H283.398V33.04C283.398 33.3067 283.484 33.5333 283.658 33.72C283.831 33.8933 284.051 33.98 284.318 33.98H285.178C285.311 33.98 285.378 34.0467 285.378 34.18V36.8C285.378 36.9333 285.311 37 285.178 37H284.318C283.811 37 283.358 36.9 282.958 36.7C282.558 36.5 282.224 36.2267 281.958 35.88C281.704 36.2267 281.371 36.5 280.958 36.7C280.558 36.9 280.104 37 279.598 37H278.758ZM285.184 37C285.05 37 284.984 36.9333 284.984 36.8V34.18C284.984 34.0467 285.05 33.98 285.184 33.98H287.344C287.597 33.98 287.81 33.8867 287.984 33.7C288.17 33.5133 288.264 33.2933 288.264 33.04V28.94H291.124V33.22C291.124 33.9 290.957 34.5333 290.624 35.12C290.29 35.6933 289.837 36.1533 289.264 36.5C288.69 36.8333 288.057 37 287.364 37H285.184ZM287.004 42.28H289.564V44.84H287.004V42.28ZM285.164 38.7H287.744V41.26H285.164V38.7ZM288.764 38.7H291.324V41.26H288.764V38.7ZM300.6 36.4C299.8 36.4 299.06 36.2067 298.38 35.82C297.713 35.42 297.18 34.8867 296.78 34.22C296.38 33.54 296.18 32.8067 296.18 32.02C296.18 31.2467 296.38 30.5467 296.78 29.92C297.18 29.28 297.713 28.78 298.38 28.42C299.06 28.0467 299.8 27.86 300.6 27.86H301.92V26.58H304.76V32.02C304.76 32.82 304.58 33.5533 304.22 34.22C303.86 34.8867 303.36 35.42 302.72 35.82C302.093 36.2067 301.387 36.4 300.6 36.4ZM300.6 33.38C300.973 33.38 301.287 33.2533 301.54 33C301.793 32.7333 301.92 32.4067 301.92 32.02V30.74H300.6C300.213 30.74 299.887 30.86 299.62 31.1C299.367 31.34 299.24 31.6467 299.24 32.02C299.24 32.4067 299.367 32.7333 299.62 33C299.887 33.2533 300.213 33.38 300.6 33.38ZM305.68 37C304.987 37 304.38 36.8333 303.86 36.5C303.353 36.1667 302.96 35.7133 302.68 35.14C302.413 34.5533 302.28 33.9133 302.28 33.22V29.54H304.76V33.04C304.76 33.3067 304.847 33.5333 305.02 33.72C305.193 33.8933 305.413 33.98 305.68 33.98H306.52C306.653 33.98 306.72 34.0467 306.72 34.18V36.8C306.72 36.9333 306.653 37 306.52 37H305.68ZM306.512 37C306.378 37 306.312 36.9333 306.312 36.8V34.18C306.312 34.0467 306.378 33.98 306.512 33.98H307.592C307.845 33.98 308.058 33.8867 308.232 33.7C308.418 33.5133 308.512 33.2933 308.512 33.04V28.94H311.372V33.22C311.372 33.9 311.205 34.5333 310.872 35.12C310.538 35.6933 310.085 36.1533 309.512 36.5C308.938 36.8333 308.305 37 307.612 37H306.512ZM306.492 38.7H309.072V41.26H306.492V38.7Z"
        fill="#D9B88B" />
    <path
        d="M111.778 62.584C111.256 63.6853 110.994 64.6467 110.994 65.468C110.994 66.3547 111.256 67.0313 111.778 67.498C112.301 67.9647 113.052 68.198 114.032 68.198C114.788 68.198 115.418 68.058 115.922 67.778C116.436 67.5073 116.814 67.1573 117.056 66.728C117.299 66.308 117.42 65.8647 117.42 65.398C117.42 64.6233 117.164 63.4567 116.65 61.898L117.686 61.422C117.957 62.2807 118.158 63.0227 118.288 63.648C118.419 64.264 118.484 64.8473 118.484 65.398C118.484 66.07 118.307 66.7187 117.952 67.344C117.607 67.9693 117.098 68.478 116.426 68.87C115.754 69.262 114.956 69.458 114.032 69.458C113.146 69.458 112.39 69.2807 111.764 68.926C111.148 68.5713 110.682 68.1 110.364 67.512C110.056 66.924 109.902 66.28 109.902 65.58C109.902 65.02 109.996 64.432 110.182 63.816C110.369 63.2 110.584 62.64 110.826 62.136L111.778 62.584ZM114.34 60.652L115.334 61.646L114.34 62.64L113.346 61.646L114.34 60.652ZM122.679 66C122.016 66 121.498 65.8927 121.125 65.678C120.752 65.454 120.486 65.1227 120.327 64.684C120.178 64.2453 120.103 63.6667 120.103 62.948C120.103 61.884 120.08 60.68 120.033 59.336C119.996 57.9827 119.935 57.0353 119.851 56.494L120.971 56.256C121.046 56.732 121.102 57.5673 121.139 58.762C121.186 59.9473 121.209 61.0253 121.209 61.996V62.584L121.195 63.074C121.195 63.5127 121.232 63.8487 121.307 64.082C121.382 64.306 121.522 64.474 121.727 64.586C121.942 64.6887 122.259 64.74 122.679 64.74H122.749L122.819 65.37L122.749 66H122.679ZM122.616 64.74H122.742C123.46 64.74 124.02 64.712 124.422 64.656C124.823 64.5907 125.117 64.4927 125.304 64.362C125.49 64.2313 125.626 64.054 125.71 63.83C125.766 63.662 125.794 63.4613 125.794 63.228C125.794 62.9293 125.738 62.416 125.626 61.688L126.662 61.492C126.774 62.08 126.834 62.8267 126.844 63.732C126.974 64.404 127.399 64.74 128.118 64.74H128.216L128.286 65.37L128.216 66H128.118C127.726 66 127.371 65.902 127.054 65.706C126.736 65.5007 126.489 65.23 126.312 64.894C126.088 65.3047 125.705 65.594 125.164 65.762C124.622 65.9207 123.815 66 122.742 66H122.616V64.74ZM124.016 58.412L125.01 59.406L124.016 60.4L123.022 59.406L124.016 58.412ZM126.522 58.412L127.516 59.406L126.522 60.4L125.528 59.406L126.522 58.412ZM135.883 66C135.407 65.9907 135.015 65.86 134.707 65.608C134.408 65.356 134.203 64.9967 134.091 64.53C133.876 64.9593 133.596 65.3093 133.251 65.58C132.915 65.8507 132.546 65.9907 132.145 66H132.103C131.673 66 131.314 65.874 131.025 65.622C130.745 65.3607 130.577 65.0107 130.521 64.572C130.231 65.0387 129.886 65.3933 129.485 65.636C129.083 65.8787 128.64 66 128.155 66H128.099L128.029 65.37L128.099 64.74H128.169C128.514 64.74 128.841 64.6607 129.149 64.502C129.457 64.3433 129.695 64.1333 129.863 63.872C130.04 63.62 130.175 63.354 130.269 63.074C130.371 62.794 130.474 62.4627 130.577 62.08L131.627 62.192C131.608 62.248 131.571 62.388 131.515 62.612C131.459 62.836 131.412 63.046 131.375 63.242C131.347 63.438 131.333 63.6153 131.333 63.774C131.333 64.418 131.594 64.74 132.117 64.74H132.145C132.667 64.74 133.115 64.4133 133.489 63.76C133.61 63.536 133.703 63.27 133.769 62.962C133.843 62.654 133.913 62.3133 133.979 61.94L135.015 61.996C135.005 62.0333 134.973 62.206 134.917 62.514C134.861 62.822 134.833 63.1207 134.833 63.41C134.833 63.858 134.917 64.194 135.085 64.418C135.262 64.6327 135.537 64.74 135.911 64.74C136.611 64.74 136.961 64.3527 136.961 63.578C136.961 63.2607 136.867 62.8173 136.681 62.248C136.503 61.6693 136.345 61.2307 136.205 60.932L137.199 60.386C137.385 60.778 137.572 61.2913 137.759 61.926C137.945 62.5513 138.039 63.102 138.039 63.578C138.039 64.026 137.95 64.4367 137.773 64.81C137.595 65.174 137.343 65.4633 137.017 65.678C136.699 65.8927 136.34 66 135.939 66H135.911H135.883ZM139.652 65.916C139.717 65.356 139.75 64.4087 139.75 63.074C139.75 61.8047 139.722 60.4933 139.666 59.14C139.619 57.7773 139.563 56.8953 139.498 56.494L140.618 56.256C140.674 56.6853 140.73 57.6233 140.786 59.07C140.851 60.5073 140.884 61.8747 140.884 63.172C140.884 64.4787 140.851 65.44 140.786 66.056L139.652 65.916ZM144.943 68.926C145.541 68.7207 146.082 68.45 146.567 68.114C147.053 67.778 147.431 67.4187 147.701 67.036C147.981 66.6533 148.121 66.294 148.121 65.958C148.121 65.482 147.883 64.3153 147.407 62.458L148.485 62.052C148.691 62.7147 148.859 63.4147 148.989 64.152C149.129 64.8893 149.199 65.4913 149.199 65.958C149.199 66.5087 149.036 67.0453 148.709 67.568C148.383 68.1 147.93 68.576 147.351 68.996C146.782 69.4253 146.138 69.766 145.419 70.018L144.943 68.926ZM153.312 66.042C152.575 66.042 151.945 65.944 151.422 65.748C150.899 65.5427 150.484 65.3093 150.176 65.048L150.722 64.124C150.759 64.1427 150.895 64.222 151.128 64.362C151.371 64.4927 151.674 64.6047 152.038 64.698C152.411 64.7913 152.803 64.838 153.214 64.838C153.718 64.838 154.129 64.768 154.446 64.628C154.773 64.4787 154.983 64.3153 155.076 64.138C155.123 64.026 155.146 63.9093 155.146 63.788C155.146 63.3493 154.903 62.808 154.418 62.164C153.942 61.5107 153.214 60.8247 152.234 60.106L152.864 59.014C153.9 59.798 154.707 60.61 155.286 61.45C155.874 62.2807 156.168 63.06 156.168 63.788C156.168 64.124 156.107 64.4273 155.986 64.698C155.799 65.1273 155.463 65.4587 154.978 65.692C154.493 65.9253 153.937 66.042 153.312 66.042ZM165.629 69.906C164.827 69.906 164.113 69.7473 163.487 69.43C162.871 69.122 162.386 68.6787 162.031 68.1C161.677 67.5213 161.499 66.8447 161.499 66.07C161.499 65.5007 161.593 64.8987 161.779 64.264C161.966 63.6293 162.181 63.0693 162.423 62.584L163.375 63.032C162.853 64.1333 162.591 65.0947 162.591 65.916C162.591 66.8027 162.853 67.4793 163.375 67.946C163.898 68.4127 164.649 68.646 165.629 68.646C166.199 68.646 166.735 68.5713 167.239 68.422C167.753 68.2727 168.173 68.086 168.499 67.862C168.826 67.6473 169.013 67.456 169.059 67.288C169.013 67.1853 168.849 67.022 168.569 66.798C168.299 66.5833 167.958 66.3547 167.547 66.112C167.137 65.8693 166.712 65.6593 166.273 65.482L166.539 64.292C167.986 64.5907 169.339 64.74 170.599 64.74H171.201L171.271 65.37L171.201 66H170.599C170.17 66 169.638 65.9673 169.003 65.902C169.759 66.4153 170.137 66.882 170.137 67.302C170.137 67.7313 169.927 68.1467 169.507 68.548C169.097 68.9493 168.541 69.276 167.841 69.528C167.151 69.78 166.413 69.906 165.629 69.906ZM171.013 65.37L171.083 64.74H171.881C172.88 64.74 173.585 64.6467 173.995 64.46C174.406 64.264 174.611 63.9467 174.611 63.508C174.602 63.2187 174.504 62.78 174.317 62.192C174.14 61.5947 173.986 61.1653 173.855 60.904L174.863 60.372C175.05 60.736 175.232 61.2307 175.409 61.856C175.596 62.472 175.689 63.0087 175.689 63.466C175.689 64.2967 175.386 64.9267 174.779 65.356C174.173 65.7853 173.258 66 172.035 66H171.083L171.013 65.37ZM172.133 67.274L173.127 68.268L172.133 69.262L171.139 68.268L172.133 67.274ZM174.639 67.274L175.633 68.268L174.639 69.262L173.645 68.268L174.639 67.274ZM180.074 66C179.411 66 178.893 65.8927 178.52 65.678C178.146 65.454 177.88 65.1227 177.722 64.684C177.572 64.2453 177.498 63.6667 177.498 62.948C177.498 61.884 177.474 60.68 177.428 59.336C177.39 57.9827 177.33 57.0353 177.246 56.494L178.366 56.256C178.44 56.732 178.496 57.5673 178.534 58.762C178.58 59.9473 178.604 61.0253 178.604 61.996V62.584L178.59 63.074C178.59 63.5127 178.627 63.8487 178.702 64.082C178.776 64.306 178.916 64.474 179.122 64.586C179.336 64.6887 179.654 64.74 180.074 64.74H180.144L180.214 65.37L180.144 66H180.074ZM180.01 64.74H180.122C180.794 64.74 181.307 64.67 181.662 64.53C182.017 64.3807 182.255 64.1473 182.376 63.83C182.423 63.6993 182.446 63.5173 182.446 63.284C182.446 63.0507 182.409 62.654 182.334 62.094L182.278 61.688L183.3 61.492C183.421 62.08 183.482 62.8267 183.482 63.732C183.547 64.0587 183.692 64.3107 183.916 64.488C184.14 64.656 184.42 64.74 184.756 64.74H184.868L184.938 65.37L184.868 66H184.756C184.364 66 184.009 65.902 183.692 65.706C183.375 65.5007 183.127 65.23 182.95 64.894C182.745 65.2953 182.409 65.58 181.942 65.748C181.485 65.916 180.878 66 180.122 66H180.01V64.74ZM180.906 67.316L181.9 68.31L180.906 69.304L179.912 68.31L180.906 67.316ZM184.727 64.74H185.287C186.286 64.74 186.99 64.6467 187.401 64.46C187.812 64.264 188.017 63.9467 188.017 63.508C188.008 63.2187 187.91 62.78 187.723 62.192C187.546 61.5947 187.392 61.1653 187.261 60.904L188.269 60.372C188.456 60.736 188.638 61.2307 188.815 61.856C189.002 62.472 189.095 63.0087 189.095 63.466C189.095 64.2967 188.792 64.9267 188.185 65.356C187.578 65.7853 186.664 66 185.441 66H184.727V64.74ZM184.881 67.302L185.875 68.296L184.881 69.29L183.887 68.296L184.881 67.302ZM187.387 67.302L188.381 68.296L187.387 69.29L186.393 68.296L187.387 67.302ZM189.664 68.926C190.261 68.7207 190.803 68.45 191.288 68.114C191.773 67.778 192.151 67.4187 192.422 67.036C192.702 66.6533 192.842 66.294 192.842 65.958C192.842 65.482 192.604 64.3153 192.128 62.458L193.206 62.052C193.411 62.7147 193.579 63.4147 193.71 64.152C193.85 64.8893 193.92 65.4913 193.92 65.958C193.92 66.5087 193.757 67.0453 193.43 67.568C193.103 68.1 192.651 68.576 192.072 68.996C191.503 69.4253 190.859 69.766 190.14 70.018L189.664 68.926ZM192.45 58.678L193.444 59.672L192.45 60.666L191.456 59.672L192.45 58.678ZM208.768 66C208.432 66 208.119 65.8553 207.83 65.566C207.839 65.6593 207.844 65.79 207.844 65.958C207.844 66.63 207.666 67.2787 207.312 67.904C206.966 68.5293 206.458 69.038 205.786 69.43C205.114 69.822 204.316 70.018 203.392 70.018C202.505 70.018 201.749 69.8407 201.124 69.486C200.508 69.1313 200.041 68.66 199.724 68.072C199.416 67.484 199.262 66.84 199.262 66.14C199.262 65.58 199.355 64.992 199.542 64.376C199.728 63.76 199.943 63.2 200.186 62.696L201.138 63.144C200.615 64.2453 200.354 65.2067 200.354 66.028C200.354 66.9147 200.615 67.5913 201.138 68.058C201.66 68.5247 202.412 68.758 203.392 68.758C204.148 68.758 204.778 68.618 205.282 68.338C205.795 68.0673 206.173 67.7173 206.416 67.288C206.658 66.868 206.78 66.4247 206.78 65.958C206.78 65.1833 206.523 64.0167 206.01 62.458L207.046 61.982C207.195 62.43 207.321 62.8593 207.424 63.27C207.592 63.8207 207.769 64.2033 207.956 64.418C208.152 64.6327 208.422 64.74 208.768 64.74H208.852L208.922 65.37L208.852 66H208.768ZM203.7 61.212L204.694 62.206L203.7 63.2L202.706 62.206L203.7 61.212ZM208.694 64.74H209.156C209.697 64.74 210.084 64.6187 210.318 64.376C210.551 64.1333 210.668 63.76 210.668 63.256C210.668 62.7333 210.621 61.59 210.528 59.826C210.444 58.0527 210.369 56.942 210.304 56.494L211.424 56.256C211.48 56.704 211.55 57.8333 211.634 59.644C211.727 61.4547 211.774 62.6307 211.774 63.172C211.774 64.0307 211.54 64.7167 211.074 65.23C210.607 65.7433 209.972 66 209.17 66H208.694V64.74ZM216.413 66C215.751 66 215.233 65.8927 214.859 65.678C214.486 65.454 214.22 65.1227 214.061 64.684C213.912 64.2453 213.837 63.6667 213.837 62.948C213.837 61.884 213.814 60.68 213.767 59.336C213.73 57.9827 213.669 57.0353 213.585 56.494L214.705 56.256C214.78 56.732 214.836 57.5673 214.873 58.762C214.92 59.9473 214.943 61.0253 214.943 61.996V62.584L214.929 63.074C214.929 63.5127 214.967 63.8487 215.041 64.082C215.116 64.306 215.256 64.474 215.461 64.586C215.676 64.6887 215.993 64.74 216.413 64.74H216.483L216.553 65.37L216.483 66H216.413ZM224.162 66C223.686 65.9907 223.294 65.86 222.986 65.608C222.687 65.356 222.482 64.9967 222.37 64.53C222.155 64.9593 221.875 65.3093 221.53 65.58C221.194 65.8507 220.825 65.9907 220.424 66H220.382C219.953 66 219.593 65.874 219.304 65.622C219.024 65.3607 218.856 65.0107 218.8 64.572C218.511 65.0387 218.165 65.3933 217.764 65.636C217.363 65.8787 216.919 66 216.434 66H216.378L216.308 65.37L216.378 64.74H216.448C216.793 64.74 217.12 64.6607 217.428 64.502C217.736 64.3433 217.974 64.1333 218.142 63.872C218.319 63.62 218.455 63.354 218.548 63.074C218.651 62.794 218.753 62.4627 218.856 62.08L219.906 62.192C219.887 62.248 219.85 62.388 219.794 62.612C219.738 62.836 219.691 63.046 219.654 63.242C219.626 63.438 219.612 63.6153 219.612 63.774C219.612 64.418 219.873 64.74 220.396 64.74H220.424C220.947 64.74 221.395 64.4133 221.768 63.76C221.889 63.536 221.983 63.27 222.048 62.962C222.123 62.654 222.193 62.3133 222.258 61.94L223.294 61.996C223.285 62.0333 223.252 62.206 223.196 62.514C223.14 62.822 223.112 63.1207 223.112 63.41C223.112 63.858 223.196 64.194 223.364 64.418C223.541 64.6327 223.817 64.74 224.19 64.74C224.89 64.74 225.24 64.3527 225.24 63.578C225.24 63.2607 225.147 62.8173 224.96 62.248C224.783 61.6693 224.624 61.2307 224.484 60.932L225.478 60.386C225.665 60.778 225.851 61.2913 226.038 61.926C226.225 62.5513 226.318 63.102 226.318 63.578C226.318 64.026 226.229 64.4367 226.052 64.81C225.875 65.174 225.623 65.4633 225.296 65.678C224.979 65.8927 224.619 66 224.218 66H224.19H224.162ZM241.088 66C240.752 66 240.439 65.8553 240.15 65.566C240.159 65.6593 240.164 65.79 240.164 65.958C240.164 66.63 239.987 67.2787 239.632 67.904C239.287 68.5293 238.778 69.038 238.106 69.43C237.434 69.822 236.636 70.018 235.712 70.018C234.825 70.018 234.069 69.8407 233.444 69.486C232.828 69.1313 232.361 68.66 232.044 68.072C231.736 67.484 231.582 66.84 231.582 66.14C231.582 65.58 231.675 64.992 231.862 64.376C232.049 63.76 232.263 63.2 232.506 62.696L233.458 63.144C232.935 64.2453 232.674 65.2067 232.674 66.028C232.674 66.9147 232.935 67.5913 233.458 68.058C233.981 68.5247 234.732 68.758 235.712 68.758C236.468 68.758 237.098 68.618 237.602 68.338C238.115 68.0673 238.493 67.7173 238.736 67.288C238.979 66.868 239.1 66.4247 239.1 65.958C239.1 65.1833 238.843 64.0167 238.33 62.458L239.366 61.982C239.515 62.43 239.641 62.8593 239.744 63.27C239.912 63.8207 240.089 64.2033 240.276 64.418C240.472 64.6327 240.743 64.74 241.088 64.74H241.172L241.242 65.37L241.172 66H241.088ZM236.02 61.212L237.014 62.206L236.02 63.2L235.026 62.206L236.02 61.212ZM240.986 65.37L241.056 64.74H241.854C242.853 64.74 243.557 64.6467 243.968 64.46C244.379 64.264 244.584 63.9467 244.584 63.508C244.575 63.2187 244.477 62.78 244.29 62.192C244.113 61.5947 243.959 61.1653 243.828 60.904L244.836 60.372C245.023 60.736 245.205 61.2307 245.382 61.856C245.569 62.472 245.662 63.0087 245.662 63.466C245.662 64.2967 245.359 64.9267 244.752 65.356C244.145 65.7853 243.231 66 242.008 66H241.056L240.986 65.37ZM242.106 67.274L243.1 68.268L242.106 69.262L241.112 68.268L242.106 67.274ZM244.612 67.274L245.606 68.268L244.612 69.262L243.618 68.268L244.612 67.274ZM251.432 66C251.078 66 250.765 65.916 250.494 65.748V65.958C250.494 66.5087 250.331 67.0453 250.004 67.568C249.678 68.1 249.225 68.576 248.646 68.996C248.077 69.4253 247.433 69.766 246.714 70.018L246.238 68.926C246.836 68.7207 247.377 68.45 247.862 68.114C248.348 67.778 248.726 67.4187 248.996 67.036C249.276 66.6533 249.416 66.294 249.416 65.958C249.416 65.482 249.178 64.3153 248.702 62.458L249.78 62.052C249.93 62.5373 250.051 63.0087 250.144 63.466C250.284 63.9327 250.452 64.264 250.648 64.46C250.844 64.6467 251.106 64.74 251.432 64.74H251.53L251.6 65.37L251.53 66H251.432ZM251.391 64.74H251.517C252.236 64.74 252.796 64.712 253.197 64.656C253.598 64.5907 253.892 64.4927 254.079 64.362C254.266 64.2313 254.401 64.054 254.485 63.83C254.541 63.662 254.569 63.4613 254.569 63.228C254.569 62.9293 254.513 62.416 254.401 61.688L255.437 61.492C255.549 62.08 255.61 62.8267 255.619 63.732C255.75 64.404 256.174 64.74 256.893 64.74H256.991L257.061 65.37L256.991 66H256.893C256.501 66 256.146 65.902 255.829 65.706C255.512 65.5007 255.264 65.23 255.087 64.894C254.863 65.3047 254.48 65.594 253.939 65.762C253.398 65.9207 252.59 66 251.517 66H251.391V64.74ZM252.791 58.412L253.785 59.406L252.791 60.4L251.797 59.406L252.791 58.412ZM255.297 58.412L256.291 59.406L255.297 60.4L254.303 59.406L255.297 58.412ZM256.86 64.74H257.728H258.05C258.115 63.7507 258.283 62.878 258.554 62.122C258.834 61.3567 259.114 60.7547 259.394 60.316L260.402 59.91C260.981 60.246 261.447 60.694 261.802 61.254C262.157 61.8047 262.334 62.3693 262.334 62.948C262.334 63.5733 262.147 64.1147 261.774 64.572C262.371 64.684 263.141 64.74 264.084 64.74L264.154 65.37L264.084 66C263.468 66 262.894 65.958 262.362 65.874C262.558 66.1447 262.707 66.4247 262.81 66.714C262.922 67.0033 262.978 67.2833 262.978 67.554C262.978 68.0767 262.791 68.506 262.418 68.842C262.045 69.1687 261.601 69.332 261.088 69.332C260.64 69.332 260.201 69.206 259.772 68.954C259.343 68.702 258.974 68.324 258.666 67.82C258.358 67.316 258.162 66.7047 258.078 65.986C257.947 65.9953 257.751 66 257.49 66H256.86V64.74ZM259.058 64.656C260.495 64.4413 261.256 63.872 261.34 62.948C261.368 62.64 261.265 62.3087 261.032 61.954C260.799 61.5993 260.495 61.3007 260.122 61.058C259.889 61.4033 259.665 61.9167 259.45 62.598C259.245 63.27 259.114 63.956 259.058 64.656ZM259.1 65.874C259.184 66.3407 259.333 66.7467 259.548 67.092C259.772 67.4467 260.024 67.7173 260.304 67.904C260.593 68.0907 260.873 68.184 261.144 68.184C261.396 68.184 261.611 68.1093 261.788 67.96C261.9 67.8667 261.956 67.722 261.956 67.526C261.956 67.218 261.83 66.8633 261.578 66.462C261.326 66.07 260.99 65.734 260.57 65.454C260.141 65.6313 259.651 65.7713 259.1 65.874ZM263.914 64.74H264.642C265.389 64.74 265.926 64.642 266.252 64.446C266.588 64.25 266.756 63.9467 266.756 63.536C266.756 63.2467 266.663 62.8033 266.476 62.206C266.29 61.6087 266.136 61.1747 266.014 60.904L267.022 60.372C267.2 60.764 267.382 61.282 267.568 61.926C267.755 62.5607 267.848 63.102 267.848 63.55C267.839 64.3527 267.559 64.964 267.008 65.384C266.458 65.7947 265.669 66 264.642 66H263.914V64.74ZM265.636 67.302L266.63 68.296L265.636 69.29L264.642 68.296L265.636 67.302ZM273.045 68.898C274.398 68.5993 275.43 68.2073 276.139 67.722C276.858 67.246 277.278 66.6533 277.399 65.944C277.1 66.0093 276.741 66.042 276.321 66.042C275.714 66.042 275.164 65.9487 274.669 65.762C274.174 65.566 273.82 65.258 273.605 64.838C273.456 64.5393 273.381 64.1893 273.381 63.788C273.381 63.3027 273.484 62.8173 273.689 62.332C273.904 61.8467 274.184 61.4453 274.529 61.128C274.884 60.8107 275.262 60.652 275.663 60.652C276.214 60.652 276.699 60.8947 277.119 61.38C277.539 61.8653 277.861 62.4767 278.085 63.214C278.309 63.942 278.421 64.6607 278.421 65.37C278.421 66.5273 277.978 67.512 277.091 68.324C276.214 69.136 274.986 69.7007 273.409 70.018L273.045 68.898ZM274.501 64.138C274.641 64.362 274.888 64.53 275.243 64.642C275.607 64.754 276.022 64.81 276.489 64.81C276.76 64.81 277.058 64.7867 277.385 64.74C277.292 63.984 277.091 63.326 276.783 62.766C276.484 62.206 276.102 61.912 275.635 61.884C275.43 61.8747 275.229 61.9587 275.033 62.136C274.837 62.3133 274.678 62.542 274.557 62.822C274.436 63.102 274.375 63.368 274.375 63.62C274.375 63.8253 274.417 63.998 274.501 64.138ZM293.274 66C292.938 66 292.625 65.8553 292.336 65.566C292.345 65.6593 292.35 65.79 292.35 65.958C292.35 66.63 292.172 67.2787 291.818 67.904C291.472 68.5293 290.964 69.038 290.292 69.43C289.62 69.822 288.822 70.018 287.898 70.018C287.011 70.018 286.255 69.8407 285.63 69.486C285.014 69.1313 284.547 68.66 284.23 68.072C283.922 67.484 283.768 66.84 283.768 66.14C283.768 65.58 283.861 64.992 284.048 64.376C284.234 63.76 284.449 63.2 284.692 62.696L285.644 63.144C285.121 64.2453 284.86 65.2067 284.86 66.028C284.86 66.9147 285.121 67.5913 285.644 68.058C286.166 68.5247 286.918 68.758 287.898 68.758C288.654 68.758 289.284 68.618 289.788 68.338C290.301 68.0673 290.679 67.7173 290.922 67.288C291.164 66.868 291.286 66.4247 291.286 65.958C291.286 65.1833 291.029 64.0167 290.516 62.458L291.552 61.982C291.701 62.43 291.827 62.8593 291.93 63.27C292.098 63.8207 292.275 64.2033 292.462 64.418C292.658 64.6327 292.928 64.74 293.274 64.74H293.358L293.428 65.37L293.358 66H293.274ZM288.206 61.212L289.2 62.206L288.206 63.2L287.212 62.206L288.206 61.212ZM293.2 64.74H293.326C294.044 64.74 294.604 64.712 295.006 64.656C295.407 64.5907 295.701 64.4927 295.888 64.362C296.074 64.2313 296.21 64.054 296.294 63.83C296.35 63.662 296.378 63.4613 296.378 63.228C296.378 62.9293 296.322 62.416 296.21 61.688L297.246 61.492C297.358 62.08 297.418 62.8267 297.428 63.732C297.558 64.404 297.983 64.74 298.702 64.74H298.8L298.87 65.37L298.8 66H298.702C298.31 66 297.955 65.902 297.638 65.706C297.32 65.5007 297.073 65.23 296.896 64.894C296.672 65.3047 296.289 65.594 295.748 65.762C295.206 65.9207 294.399 66 293.326 66H293.2V64.74ZM294.278 67.302L295.272 68.296L294.278 69.29L293.284 68.296L294.278 67.302ZM296.784 67.302L297.778 68.296L296.784 69.29L295.79 68.296L296.784 67.302ZM298.655 64.74H299.117C299.658 64.74 300.045 64.6187 300.279 64.376C300.512 64.1333 300.629 63.76 300.629 63.256C300.629 62.7333 300.582 61.59 300.489 59.826C300.405 58.0527 300.33 56.942 300.265 56.494L301.385 56.256C301.441 56.704 301.511 57.8333 301.595 59.644C301.688 61.4547 301.735 62.6307 301.735 63.172C301.735 64.0307 301.501 64.7167 301.035 65.23C300.568 65.7433 299.933 66 299.131 66H298.655V64.74ZM302.713 68.898C304.066 68.5993 305.098 68.2073 305.807 67.722C306.526 67.246 306.946 66.6533 307.067 65.944C306.768 66.0093 306.409 66.042 305.989 66.042C305.382 66.042 304.832 65.9487 304.337 65.762C303.842 65.566 303.488 65.258 303.273 64.838C303.124 64.5393 303.049 64.1893 303.049 63.788C303.049 63.3027 303.152 62.8173 303.357 62.332C303.572 61.8467 303.852 61.4453 304.197 61.128C304.552 60.8107 304.93 60.652 305.331 60.652C305.882 60.652 306.367 60.8947 306.787 61.38C307.207 61.8653 307.529 62.4767 307.753 63.214C307.977 63.942 308.089 64.6607 308.089 65.37C308.089 66.5273 307.646 67.512 306.759 68.324C305.882 69.136 304.654 69.7007 303.077 70.018L302.713 68.898ZM304.169 64.138C304.309 64.362 304.556 64.53 304.911 64.642C305.275 64.754 305.69 64.81 306.157 64.81C306.428 64.81 306.726 64.7867 307.053 64.74C306.96 63.984 306.759 63.326 306.451 62.766C306.152 62.206 305.77 61.912 305.303 61.884C305.098 61.8747 304.897 61.9587 304.701 62.136C304.505 62.3133 304.346 62.542 304.225 62.822C304.104 63.102 304.043 63.368 304.043 63.62C304.043 63.8253 304.085 63.998 304.169 64.138ZM309.784 65.916C309.85 65.356 309.882 64.4087 309.882 63.074C309.882 61.8047 309.854 60.4933 309.798 59.14C309.752 57.7773 309.696 56.8953 309.63 56.494L310.75 56.256C310.806 56.6853 310.862 57.6233 310.918 59.07C310.984 60.5073 311.016 61.8747 311.016 63.172C311.016 64.4787 310.984 65.44 310.918 66.056L309.784 65.916Z"
        fill="#E1E1E1" />
</svg>