<svg width="24" height="24" viewBox="0 0 24 24" fill="none" xmlns="http://www.w3.org/2000/svg">
    <path
        d="M18.59 2.24986C19.71 2.24986 20.42 2.62986 20.87 3.07986C21.75 3.95986 22.3701 5.82986 20.3901 9.79986L19.5201 11.5299C19.4101 11.7599 19.4101 12.2399 19.5201 12.4699L20.3901 14.1999C22.3801 18.1699 21.7501 20.0499 20.8701 20.9199C20.0001 21.7999 18.1201 22.4299 14.1601 20.4399L5.60005 16.1599C3.47005 15.0999 2.30005 13.6199 2.30005 11.9999C2.30005 10.3799 3.47005 8.89986 5.59005 7.83986L14.15 3.55986C16.09 2.58986 17.5301 2.24986 18.59 2.24986ZM18.5901 20.2499C19.1301 20.2499 19.5501 20.1199 19.8101 19.8599C20.5401 19.1399 20.2501 17.2699 19.0501 14.8799L18.1801 13.1399C17.8601 12.4899 17.8601 11.5099 18.1801 10.8599L19.0501 9.12986C20.2501 6.72986 20.54 4.86986 19.81 4.14986C19.09 3.41986 17.22 3.70986 14.82 4.90986L6.26005 9.18986C4.69005 9.96986 3.80005 10.9999 3.80005 12.0099C3.80005 13.0199 4.70005 14.0499 6.27005 14.8299L14.8301 19.0999C16.3501 19.8599 17.6601 20.2499 18.5901 20.2499Z"
        fill="white" />
    <path
        d="M13.1605 11.25L18.5605 11.25C18.9705 11.25 19.3105 11.59 19.3105 12C19.3105 12.41 18.9705 12.75 18.5605 12.75L13.1605 12.75C12.7505 12.75 12.4105 12.41 12.4105 12C12.4105 11.59 12.7505 11.25 13.1605 11.25Z"
        fill="white" />
</svg>