<svg width="24" height="24" viewBox="0 0 24 24" fill="none" xmlns="http://www.w3.org/2000/svg">
    <path
        d="M16.2794 22.1005H12.4794C11.9194 22.1005 10.6994 21.9305 10.0494 21.2805L7.01937 18.9405L7.93937 17.7505L11.0394 20.1505C11.2894 20.3905 11.9194 20.5905 12.4794 20.5905H16.2794C17.1794 20.5905 18.1494 19.8705 18.3494 19.0605L20.7694 11.7105C20.9294 11.2705 20.8994 10.8705 20.6894 10.5805C20.4694 10.2705 20.0694 10.0905 19.5794 10.0905H15.5794C15.0594 10.0905 14.5794 9.87048 14.2494 9.49048C13.9094 9.10048 13.7594 8.58048 13.8394 8.04048L14.3394 4.83048C14.4594 4.27048 14.0794 3.64048 13.5394 3.46048C13.0494 3.28048 12.4194 3.54048 12.1994 3.86048L8.09938 9.96048L6.85938 9.13048L10.9594 3.03048C11.5894 2.09048 12.9694 1.64048 14.0494 2.05048C15.2994 2.46048 16.0994 3.84048 15.8194 5.12048L15.3294 8.27048C15.3194 8.34048 15.3194 8.44048 15.3894 8.52048C15.4394 8.57048 15.5094 8.60048 15.5894 8.60048H19.5894C20.5694 8.60048 21.4194 9.01048 21.9194 9.72048C22.4094 10.4105 22.5094 11.3205 22.1894 12.2005L19.7994 19.4805C19.4294 20.9305 17.8894 22.1005 16.2794 22.1005Z"
        fill="#626262" />
    <path
        d="M5.38086 21.0004H4.38086C2.53086 21.0004 1.63086 20.1304 1.63086 18.3504V8.55039C1.63086 6.77039 2.53086 5.90039 4.38086 5.90039H5.38086C7.23086 5.90039 8.13086 6.77039 8.13086 8.55039V18.3504C8.13086 20.1304 7.23086 21.0004 5.38086 21.0004ZM4.38086 7.40039C3.29086 7.40039 3.13086 7.66039 3.13086 8.55039V18.3504C3.13086 19.2404 3.29086 19.5004 4.38086 19.5004H5.38086C6.47086 19.5004 6.63086 19.2404 6.63086 18.3504V8.55039C6.63086 7.66039 6.47086 7.40039 5.38086 7.40039H4.38086Z"
        fill="#626262" />
</svg>