<svg width="24" height="24" viewBox="0 0 24 24" fill="none" xmlns="http://www.w3.org/2000/svg">
    <path
        d="M8.39062 18.4897V8.32973C8.39062 7.92973 8.51062 7.53973 8.73062 7.20973L11.4606 3.14973C11.8906 2.49973 12.9606 2.03973 13.8706 2.37973C14.8506 2.70973 15.5006 3.80973 15.2906 4.78973L14.7706 8.05973C14.7306 8.35973 14.8106 8.62973 14.9806 8.83973C15.1506 9.02973 15.4006 9.14973 15.6706 9.14973H19.7806C20.5706 9.14973 21.2506 9.46973 21.6506 10.0297C22.0306 10.5697 22.1006 11.2697 21.8506 11.9797L19.3906 19.4697C19.0806 20.7097 17.7306 21.7197 16.3906 21.7197H12.4906C11.8206 21.7197 10.8806 21.4897 10.4506 21.0597L9.17062 20.0697C8.68062 19.6997 8.39062 19.1097 8.39062 18.4897Z"
        fill="#40B1D1" />
    <path
        d="M5.21 6.37988H4.18C2.63 6.37988 2 6.97988 2 8.45988V18.5199C2 19.9999 2.63 20.5999 4.18 20.5999H5.21C6.76 20.5999 7.39 19.9999 7.39 18.5199V8.45988C7.39 6.97988 6.76 6.37988 5.21 6.37988Z"
        fill="#40B1D1" />
</svg>