<svg width="24" height="24" viewBox="0 0 24 24" fill="none" xmlns="http://www.w3.org/2000/svg">
    <path
        d="M20.6196 13.0703C20.2396 13.0703 19.9196 12.7803 19.8696 12.4003C19.6296 10.1403 18.4096 8.09035 16.5296 6.79035C16.1896 6.55035 16.1096 6.09035 16.3396 5.75035C16.5796 5.41035 17.0496 5.33035 17.3796 5.56035C19.6196 7.11035 21.0596 9.55035 21.3496 12.2403C21.3896 12.6503 21.0996 13.0203 20.6796 13.0703C20.6696 13.0703 20.6396 13.0703 20.6196 13.0703Z"
        fill="#3B3B3B" />
    <path
        d="M3.48991 13.1203C3.45991 13.1203 3.43991 13.1203 3.40991 13.1203C2.99991 13.0703 2.69991 12.7003 2.73991 12.2903C3.00991 9.60026 4.43991 7.17026 6.64991 5.60026C6.98991 5.36026 7.45991 5.44026 7.69991 5.78026C7.93991 6.12026 7.85991 6.59026 7.51991 6.83026C5.65991 8.14026 4.45991 10.1903 4.22991 12.4503C4.19991 12.8303 3.86991 13.1203 3.48991 13.1203Z"
        fill="#3B3B3B" />
    <path
        d="M12.06 22.61C10.58 22.61 9.16997 22.27 7.84997 21.61C7.47997 21.42 7.32997 20.97 7.51997 20.6C7.70997 20.23 8.15997 20.08 8.52997 20.27C10.69 21.36 13.29 21.38 15.47 20.33C15.84 20.15 16.29 20.31 16.47 20.68C16.65 21.05 16.49 21.5 16.12 21.68C14.84 22.3 13.48 22.61 12.06 22.61Z"
        fill="#3B3B3B" />
    <path
        d="M12.0593 8.43988C10.1093 8.43988 8.5293 6.85988 8.5293 4.90988C8.5293 2.95988 10.1093 1.37988 12.0593 1.37988C14.0093 1.37988 15.5893 2.95988 15.5893 4.90988C15.5893 6.85988 13.9993 8.43988 12.0593 8.43988ZM12.0593 2.88988C10.9393 2.88988 10.0293 3.79988 10.0293 4.91988C10.0293 6.03988 10.9393 6.94988 12.0593 6.94988C13.1793 6.94988 14.0893 6.03988 14.0893 4.91988C14.0893 3.79988 13.1693 2.88988 12.0593 2.88988Z"
        fill="#3B3B3B" />
    <path
        d="M4.83078 20.6704C2.88078 20.6704 1.30078 19.0904 1.30078 17.1404C1.30078 15.2004 2.88078 13.6104 4.83078 13.6104C6.78078 13.6104 8.36078 15.1904 8.36078 17.1404C8.36078 19.0804 6.78078 20.6704 4.83078 20.6704ZM4.83078 15.1104C3.71078 15.1104 2.80078 16.0204 2.80078 17.1404C2.80078 18.2604 3.71078 19.1704 4.83078 19.1704C5.95078 19.1704 6.86078 18.2604 6.86078 17.1404C6.86078 16.0204 5.95078 15.1104 4.83078 15.1104Z"
        fill="#3B3B3B" />
    <path
        d="M19.1706 20.6704C17.2206 20.6704 15.6406 19.0904 15.6406 17.1404C15.6406 15.2004 17.2206 13.6104 19.1706 13.6104C21.1206 13.6104 22.7006 15.1904 22.7006 17.1404C22.6906 19.0804 21.1106 20.6704 19.1706 20.6704ZM19.1706 15.1104C18.0506 15.1104 17.1406 16.0204 17.1406 17.1404C17.1406 18.2604 18.0506 19.1704 19.1706 19.1704C20.2906 19.1704 21.2006 18.2604 21.2006 17.1404C21.1906 16.0204 20.2906 15.1104 19.1706 15.1104Z"
        fill="#3B3B3B" />
</svg>