<svg width="24" height="24" viewBox="0 0 24 24" fill="none" xmlns="http://www.w3.org/2000/svg">
    <path
        d="M14.2199 21.6301C13.0399 21.6301 11.3699 20.8001 10.0499 16.8301L9.32988 14.6701L7.16988 13.9501C3.20988 12.6301 2.37988 10.9601 2.37988 9.78007C2.37988 8.61007 3.20988 6.93007 7.16988 5.60007L15.6599 2.77007C17.7799 2.06007 19.5499 2.27007 20.6399 3.35007C21.7299 4.43007 21.9399 6.21007 21.2299 8.33007L18.3999 16.8201C17.0699 20.8001 15.3999 21.6301 14.2199 21.6301ZM7.63988 7.03007C4.85988 7.96007 3.86988 9.06007 3.86988 9.78007C3.86988 10.5001 4.85988 11.6001 7.63988 12.5201L10.1599 13.3601C10.3799 13.4301 10.5599 13.6101 10.6299 13.8301L11.4699 16.3501C12.3899 19.1301 13.4999 20.1201 14.2199 20.1201C14.9399 20.1201 16.0399 19.1301 16.9699 16.3501L19.7999 7.86007C20.3099 6.32007 20.2199 5.06007 19.5699 4.41007C18.9199 3.76007 17.6599 3.68007 16.1299 4.19007L7.63988 7.03007Z"
        fill="#626262" />
    <path
        d="M10.1098 14.4C9.9198 14.4 9.7298 14.33 9.5798 14.18C9.2898 13.89 9.2898 13.41 9.5798 13.12L13.1598 9.53C13.4498 9.24 13.9298 9.24 14.2198 9.53C14.5098 9.82 14.5098 10.3 14.2198 10.59L10.6398 14.18C10.4998 14.33 10.2998 14.4 10.1098 14.4Z"
        fill="#626262" />
</svg>