<svg width="24" height="24" viewBox="0 0 24 24" fill="none" xmlns="http://www.w3.org/2000/svg">
    <path
        d="M17 20.75H7C3.56 20.75 1.25 18.44 1.25 15V9C1.25 5.56 3.56 3.25 7 3.25H17C20.44 3.25 22.75 5.56 22.75 9V15C22.75 18.44 20.44 20.75 17 20.75ZM7 4.75C4.42 4.75 2.75 6.42 2.75 9V15C2.75 17.58 4.42 19.25 7 19.25H17C19.58 19.25 21.25 17.58 21.25 15V9C21.25 6.42 19.58 4.75 17 4.75H7Z"
        fill="#626262" />
    <path
        d="M10.5901 15.53C10.3001 15.53 10.0201 15.46 9.77014 15.32C9.19014 14.99 8.8501 14.32 8.8501 13.49V10.53C8.8501 9.69997 9.18014 9.02999 9.77014 8.69999C10.3501 8.36999 11.1001 8.42996 11.8101 8.85996L14.2802 10.34C14.9602 10.75 15.3501 11.36 15.3501 12.01C15.3501 12.66 14.9602 13.27 14.2802 13.68L11.8101 15.16C11.4001 15.4 10.9801 15.53 10.5901 15.53ZM10.5901 9.96998C10.5501 9.96998 10.5201 9.97997 10.5001 9.98997C10.4301 10.03 10.3501 10.21 10.3501 10.52V13.48C10.3501 13.78 10.4301 13.96 10.5001 14.01C10.5801 14.05 10.7702 14.03 11.0302 13.87L13.5001 12.39C13.7501 12.24 13.8401 12.09 13.8401 12C13.8401 11.91 13.7501 11.77 13.5001 11.61L11.0302 10.13C10.8502 10.02 10.6901 9.96998 10.5901 9.96998Z"
        fill="#626262" />
</svg>