<svg width="24" height="24" viewBox="0 0 24 24" fill="none" xmlns="http://www.w3.org/2000/svg">
    <path
        d="M15.8101 20.1795C15.5501 20.1795 15.2801 20.1695 14.9901 20.1395C14.4701 20.0995 13.8801 19.9995 13.2701 19.8495L11.5901 19.4495C6.98007 18.3595 5.47007 15.9195 6.55007 11.3195L7.53007 7.12953C7.75007 6.17953 8.01007 5.40953 8.33007 4.76953C10.0501 1.21953 13.3401 1.53953 15.6801 2.08953L17.3501 2.47953C19.6901 3.02953 21.1701 3.89953 22.0001 5.22953C22.8201 6.55953 22.9501 8.26953 22.4001 10.6095L21.4201 14.7895C20.5601 18.4495 18.7701 20.1795 15.8101 20.1795ZM13.1201 3.24953C11.4501 3.24953 10.3901 3.93953 9.68007 5.41953C9.42007 5.95953 9.19007 6.62953 8.99007 7.46953L8.01007 11.6595C7.12007 15.4395 8.15007 17.0895 11.9301 17.9895L13.6101 18.3895C14.1501 18.5195 14.6601 18.5995 15.1201 18.6395C17.8401 18.9095 19.1901 17.7195 19.9501 14.4495L20.9301 10.2695C21.3801 8.33953 21.3201 6.98953 20.7201 6.01953C20.1201 5.04953 18.9401 4.38953 17.0001 3.93953L15.3301 3.54953C14.5001 3.34953 13.7601 3.24953 13.1201 3.24953Z"
        fill="#626262" />
    <path
        d="M8.32907 22.2497C5.75908 22.2497 4.11907 20.7097 3.06907 17.4597L1.78907 13.5097C0.369075 9.10968 1.63907 6.62968 6.01907 5.20968L7.59907 4.69968C8.11907 4.53968 8.50907 4.42968 8.85907 4.36968C9.14907 4.30968 9.42908 4.41968 9.59908 4.64968C9.76908 4.87968 9.79908 5.17968 9.67908 5.43968C9.41908 5.96968 9.18907 6.63968 8.99907 7.47968L8.01908 11.6697C7.12908 15.4497 8.15907 17.0997 11.9391 17.9997L13.6191 18.3997C14.1591 18.5297 14.6691 18.6097 15.1291 18.6497C15.4491 18.6797 15.7091 18.8997 15.7991 19.2097C15.8791 19.5197 15.7591 19.8397 15.4991 20.0197C14.8391 20.4697 14.0091 20.8497 12.9591 21.1897L11.3791 21.7097C10.2291 22.0697 9.22907 22.2497 8.32907 22.2497ZM7.77908 6.21968L6.48907 6.63968C2.91907 7.78968 2.06907 9.46968 3.21907 13.0497L4.49907 16.9997C5.65907 20.5697 7.33908 21.4297 10.9091 20.2797L12.4891 19.7597C12.5491 19.7397 12.5991 19.7197 12.6591 19.6997L11.5991 19.4497C6.98908 18.3597 5.47907 15.9197 6.55907 11.3197L7.53907 7.12968C7.60908 6.80968 7.68907 6.49968 7.77908 6.21968Z"
        fill="#626262" />
    <path
        d="M17.4894 10.5098C17.4294 10.5098 17.3694 10.4998 17.2994 10.4898L12.4494 9.25978C12.0494 9.15978 11.8094 8.74978 11.9094 8.34978C12.0094 7.94978 12.4194 7.70978 12.8194 7.80978L17.6694 9.03978C18.0694 9.13978 18.3094 9.54978 18.2094 9.94978C18.1294 10.2798 17.8194 10.5098 17.4894 10.5098Z"
        fill="#626262" />
    <path
        d="M14.5592 13.8899C14.4992 13.8899 14.4392 13.8799 14.3692 13.8699L11.4592 13.1299C11.0592 13.0299 10.8192 12.6199 10.9192 12.2199C11.0192 11.8199 11.4292 11.5799 11.8292 11.6799L14.7392 12.4199C15.1392 12.5199 15.3792 12.9299 15.2792 13.3299C15.1992 13.6699 14.8992 13.8899 14.5592 13.8899Z"
        fill="#626262" />
</svg>