<svg width="24" height="24" viewBox="0 0 24 24" fill="none" xmlns="http://www.w3.org/2000/svg">
    <path
        d="M16.1391 2.96004L7.10914 5.96004C1.03914 7.99004 1.03914 11.3 7.10914 13.32L9.78914 14.21L10.6791 16.89C12.6991 22.96 16.0191 22.96 18.0391 16.89L21.0491 7.87004C22.3891 3.82004 20.1891 1.61004 16.1391 2.96004ZM16.4591 8.34004L12.6591 12.16C12.5091 12.31 12.3191 12.38 12.1291 12.38C11.9391 12.38 11.7491 12.31 11.5991 12.16C11.3091 11.87 11.3091 11.39 11.5991 11.1L15.3991 7.28004C15.6891 6.99004 16.1691 6.99004 16.4591 7.28004C16.7491 7.57004 16.7491 8.05004 16.4591 8.34004Z"
        fill="#9E9E9E" />
</svg>