<svg width="18" height="21" viewBox="0 0 18 21" fill="none" xmlns="http://www.w3.org/2000/svg">
    <path
        d="M16.9597 7.9599C16.2897 7.2199 15.2797 6.7899 13.8797 6.6399V5.8799C13.8797 4.5099 13.2997 3.1899 12.2797 2.2699C11.2497 1.3299 9.90975 0.8899 8.51975 1.0199C6.12975 1.2499 4.11975 3.5599 4.11975 6.0599V6.6399C2.71975 6.7899 1.70975 7.2199 1.03975 7.9599C0.0697457 9.0399 0.0997458 10.4799 0.209746 11.4799L0.909746 17.0499C1.11975 18.9999 1.90975 20.9999 6.20975 20.9999H11.7897C16.0897 20.9999 16.8797 18.9999 17.0897 17.0599L17.7897 11.4699C17.8997 10.4799 17.9197 9.0399 16.9597 7.9599ZM8.65975 2.4099C9.65975 2.3199 10.6097 2.6299 11.3497 3.2999C12.0797 3.9599 12.4897 4.8999 12.4897 5.8799V6.5799H5.50975V6.0599C5.50975 4.2799 6.97975 2.5699 8.65975 2.4099ZM5.41975 12.1499H5.40975C4.85975 12.1499 4.40975 11.6999 4.40975 11.1499C4.40975 10.5999 4.85975 10.1499 5.40975 10.1499C5.96975 10.1499 6.41975 10.5999 6.41975 11.1499C6.41975 11.6999 5.96975 12.1499 5.41975 12.1499ZM12.4197 12.1499H12.4097C11.8597 12.1499 11.4097 11.6999 11.4097 11.1499C11.4097 10.5999 11.8597 10.1499 12.4097 10.1499C12.9697 10.1499 13.4197 10.5999 13.4197 11.1499C13.4197 11.6999 12.9697 12.1499 12.4197 12.1499Z"
        fill="white" />
</svg>