<svg width="24" height="24" viewBox="0 0 24 24" fill="none" xmlns="http://www.w3.org/2000/svg">
    <path
        d="M19.8501 12.9398C19.8501 13.7398 20.5001 14.3998 21.3001 14.3998C21.6801 14.3998 22.0001 14.7098 22.0001 15.0898C22.0001 18.9298 20.8401 20.0898 17.0001 20.0898H11.7501V18.4998C11.7501 18.1098 11.4501 17.7898 11.0701 17.7598C11.0501 17.7498 11.0201 17.7498 11.0001 17.7498C10.5901 17.7498 10.2501 18.0898 10.2501 18.4998V20.0898H8.49009C6.61009 20.0898 5.64009 18.6798 4.76009 16.5498L4.59009 16.1298C4.45009 15.7698 4.62009 15.3598 4.98009 15.2198C5.35009 15.0798 5.64009 14.7898 5.79009 14.4098C5.95009 14.0398 5.95009 13.6298 5.80009 13.2598C5.48009 12.4898 4.60009 12.1198 3.82009 12.4298C3.65009 12.5098 3.45009 12.5098 3.28009 12.4298C3.11009 12.3598 2.98009 12.2198 2.90009 12.0398L2.75009 11.6398C1.26009 8.01981 1.91009 6.46981 5.53009 4.96981L7.98009 3.95981C8.34009 3.80981 8.75009 3.97981 8.89009 4.33981L11.0701 9.08981C10.6601 9.08981 10.2501 9.41981 10.2501 9.82981V14.1698C10.2501 14.5798 10.5901 14.9198 11.0001 14.9198C11.0201 14.9198 11.0501 14.9198 11.0701 14.9098C11.4501 14.8798 11.7501 14.5598 11.7501 14.1698V9.82981C11.7501 9.43981 11.4501 9.11981 11.0701 9.08981V4.92981H17.0001C20.8401 4.92981 22.0001 6.08981 22.0001 9.92981V10.7798C22.0001 11.1698 21.6801 11.4798 21.3001 11.4798C20.5001 11.4798 19.8501 12.1298 19.8501 12.9398Z"
        fill="white" />
</svg>