<svg width="24" height="24" viewBox="0 0 24 24" fill="none" xmlns="http://www.w3.org/2000/svg">
<path d="M14.4311 18.8201C14.2411 18.8201 14.0511 18.7501 13.9011 18.6001C13.6111 18.3101 13.6111 17.8301 13.9011 17.5401L19.4411 12.0001L13.9011 6.46012C13.6111 6.17012 13.6111 5.69012 13.9011 5.40012C14.1911 5.11012 14.6711 5.11012 14.9611 5.40012L21.0311 11.4701C21.3211 11.7601 21.3211 12.2401 21.0311 12.5301L14.9611 18.6001C14.8111 18.7501 14.6211 18.8201 14.4311 18.8201Z" fill="#F7F7F7"/>
<path d="M20.33 12.75H3.5C3.09 12.75 2.75 12.41 2.75 12C2.75 11.59 3.09 11.25 3.5 11.25H20.33C20.74 11.25 21.08 11.59 21.08 12C21.08 12.41 20.74 12.75 20.33 12.75Z" fill="#F7F7F7"/>
</svg>
