<svg width="24" height="24" viewBox="0 0 24 24" fill="none" xmlns="http://www.w3.org/2000/svg">
    <path
        d="M11.9707 2C6.4507 2 1.9707 6.48 1.9707 12C1.9707 17.52 6.4507 22 11.9707 22C17.4907 22 21.9707 17.52 21.9707 12C21.9707 6.48 17.5007 2 11.9707 2ZM14.9707 14.23L12.0707 15.9C11.7107 16.11 11.3107 16.21 10.9207 16.21C10.5207 16.21 10.1307 16.11 9.7707 15.9C9.0507 15.48 8.6207 14.74 8.6207 13.9V10.55C8.6207 9.72 9.0507 8.97 9.7707 8.55C10.4907 8.13 11.3507 8.13 12.0807 8.55L14.9807 10.22C15.7007 10.64 16.1307 11.38 16.1307 12.22C16.1307 13.06 15.7007 13.81 14.9707 14.23Z"
        fill="white" />
</svg>