<svg width="24" height="24" viewBox="0 0 24 24" fill="none" xmlns="http://www.w3.org/2000/svg">
    <path
        d="M7.88023 12.07C7.88023 11.66 8.22023 11.32 8.63023 11.32H14.1102V2.86C14.1002 2.38 13.7202 2 13.2402 2C7.35023 2 3.24023 6.11 3.24023 12C3.24023 17.89 7.35023 22 13.2402 22C13.7102 22 14.1002 21.62 14.1002 21.14V12.81H8.63023C8.21023 12.82 7.88023 12.48 7.88023 12.07Z"
        fill="#F54851" />
    <path
        d="M20.5396 11.5402L17.6996 8.69016C17.4096 8.40016 16.9296 8.40016 16.6396 8.69016C16.3496 8.98016 16.3496 9.46016 16.6396 9.75016L18.1996 11.3102H14.0996V12.8102H18.1896L16.6296 14.3702C16.3396 14.6602 16.3396 15.1402 16.6296 15.4302C16.7796 15.5802 16.9696 15.6502 17.1596 15.6502C17.3496 15.6502 17.5396 15.5802 17.6896 15.4302L20.5296 12.5802C20.8296 12.3002 20.8296 11.8302 20.5396 11.5402Z"
        fill="#F54851" />
</svg>